TW-Kai-Ext-B-98_1.sfdir
StartChar: exclam
Encoding: 33 33 4
Width: 511
Flags: W
LayerCount: 2
Back
Fore
SplineSet
254 47 m 1,0,-1
 234 47 l 1,1,2
 230 117 230 117 226 165 c 0,3,4
 224 213 224 213 219 273 c 0,5,6
 214 334 214 334 211 377 c 2,7,-1
 194 565 l 2,8,9
 190 595 190 595 190 622 c 256,10,11
 190 649 190 649 200 664 c 0,12,13
 208 675 208 675 221 681 c 256,14,15
 234 687 234 687 250 685 c 0,16,17
 264 684 264 684 275 676 c 256,18,19
 286 668 286 668 292 652 c 0,20,21
 298 637 298 637 298 609 c 0,22,23
 298 591 298 591 293 532 c 256,24,25
 288 473 288 473 286 453 c 256,26,27
 284 433 284 433 275 313 c 0,28,29
 266 194 266 194 260 121 c 2,30,-1
 254 47 l 1,0,-1
248 -41 m 0,31,32
 260 -42 260 -42 272 -48 c 256,33,34
 284 -54 284 -54 292 -68 c 0,35,36
 300 -81 300 -81 300 -97 c 0,37,38
 300 -112 300 -112 293 -124 c 0,39,40
 286 -137 286 -137 273 -143 c 0,41,42
 260 -151 260 -151 246 -151 c 0,43,44
 230 -151 230 -151 218 -144 c 256,45,46
 206 -137 206 -137 200 -125 c 0,47,48
 192 -113 192 -113 192 -98 c 0,49,50
 191 -84 191 -84 196 -73 c 0,51,52
 198 -66 198 -66 205 -58 c 0,53,54
 212 -51 212 -51 222 -46 c 0,55,56
 233 -41 233 -41 248 -41 c 0,31,32
EndSplineSet
EndChar
StartChar: quotedbl
Encoding: 34 34 5
Width: 512
Flags: W
LayerCount: 2
Back
Fore
SplineSet
162 386 m 2,0,-1
 160 404 l 1,1,-1
 158 447 l 1,2,-1
 150 538 l 1,3,-1
 147 605 l 1,4,-1
 142 667 l 2,5,6
 139 719 139 719 138 730 c 0,7,8
 138 741 138 741 140 748 c 0,9,10
 142 757 142 757 151 764 c 256,11,12
 160 771 160 771 174 769 c 0,13,14
 186 768 186 768 194 759 c 0,15,16
 202 749 202 749 201 725 c 0,17,18
 200 709 200 709 198 679 c 256,19,20
 196 649 196 649 194 633 c 0,21,22
 194 617 194 617 191 571 c 256,23,24
 188 525 188 525 186 479 c 0,25,26
 183 433 183 433 182 421 c 2,27,-1
 181 394 l 2,28,29
 180 384 180 384 176 379 c 0,30,31
 173 374 173 374 168 375 c 0,32,33
 165 375 165 375 164 378 c 0,34,35
 162 381 162 381 162 386 c 2,0,-1
314 395 m 2,36,-1
 312 423 l 2,37,38
 310 453 310 453 310 480 c 2,39,-1
 306 567 l 2,40,41
 303 611 303 611 301 648 c 0,42,43
 299 684 299 684 297 703 c 0,44,45
 295 721 295 721 296 729 c 0,46,47
 296 749 296 749 304 759 c 256,48,49
 312 769 312 769 328 770 c 0,50,51
 342 771 342 771 352 759 c 0,52,53
 361 748 361 748 360 721 c 0,54,55
 358 709 358 709 355 667 c 2,56,-1
 350 599 l 1,57,-1
 344 540 l 1,58,-1
 338 449 l 1,59,-1
 334 405 l 1,60,-1
 333 387 l 2,61,62
 332 383 332 383 331 380 c 256,63,64
 330 377 330 377 326 376 c 256,65,66
 322 375 322 375 318 381 c 256,67,68
 314 387 314 387 314 395 c 2,36,-1
EndSplineSet
EndChar
StartChar: numbersign
Encoding: 35 35 6
Width: 1024
Flags: W
LayerCount: 2
Back
Fore
SplineSet
312 173 m 1,0,-1
 347 439 l 1,1,-1
 162 439 l 2,2,3
 151 439 151 439 143 447 c 0,4,5
 134 455 134 455 136 468 c 0,6,7
 137 477 137 477 144 484 c 0,8,9
 152 491 152 491 164 491 c 2,10,-1
 354 492 l 1,11,-1
 384 686 l 2,12,13
 386 699 386 699 392 709 c 0,14,15
 397 717 397 717 408 716 c 256,16,17
 419 715 419 715 423 705 c 0,18,19
 428 695 428 695 426 683 c 2,20,-1
 398 491 l 1,21,-1
 664 491 l 1,22,-1
 688 685 l 2,23,24
 689 701 689 701 694 709 c 0,25,26
 700 717 700 717 713 716 c 256,27,28
 726 715 726 715 730 707 c 0,29,30
 734 698 734 698 732 681 c 2,31,-1
 709 492 l 1,32,-1
 853 491 l 2,33,34
 872 491 872 491 882 486 c 256,35,36
 892 481 892 481 892 465 c 0,37,38
 892 447 892 447 882 443 c 0,39,40
 871 439 871 439 852 439 c 2,41,-1
 699 439 l 1,42,-1
 662 173 l 1,43,-1
 854 173 l 2,44,45
 868 173 868 173 878 168 c 0,46,47
 889 163 889 163 892 148 c 0,48,49
 896 132 896 132 883 125 c 256,50,51
 870 118 870 118 854 119 c 2,52,-1
 654 119 l 1,53,-1
 626 -77 l 2,54,55
 624 -89 624 -89 618 -99 c 256,56,57
 612 -109 612 -109 601 -109 c 256,58,59
 590 -109 590 -109 586 -101 c 256,60,61
 582 -93 582 -93 584 -77 c 2,62,-1
 610 119 l 1,63,-1
 344 119 l 1,64,-1
 316 -73 l 2,65,66
 314 -93 314 -93 306 -104 c 0,67,68
 300 -115 300 -115 287 -111 c 256,69,70
 274 -107 274 -107 274 -97 c 0,71,72
 274 -86 274 -86 276 -71 c 2,73,-1
 304 119 l 1,74,-1
 174 119 l 2,75,76
 156 118 156 118 147 127 c 0,77,78
 138 137 138 137 142 153 c 0,79,80
 146 165 146 165 154 169 c 256,81,82
 162 173 162 173 174 173 c 2,83,-1
 312 173 l 1,0,-1
352 173 m 1,84,-1
 620 173 l 1,85,-1
 658 439 l 1,86,-1
 389 439 l 1,87,-1
 352 173 l 1,84,-1
EndSplineSet
EndChar
StartChar: dollar
Encoding: 36 36 7
Width: 499
Flags: W
LayerCount: 2
Back
Fore
SplineSet
224 -6 m 1,0,1
 216 -5 216 -5 210 -3 c 0,2,3
 204 -2 204 -2 182 6 c 0,4,5
 162 13 162 13 140 31 c 256,6,7
 118 49 118 49 102 68 c 0,8,9
 86 88 86 88 80 100 c 0,10,11
 74 111 74 111 68 125 c 0,12,13
 64 139 64 139 65 149 c 256,14,15
 66 159 66 159 74 161 c 256,16,17
 82 163 82 163 91 155 c 0,18,19
 96 151 96 151 107 132 c 256,20,21
 118 113 118 113 142 92 c 256,22,23
 166 71 166 71 182 63 c 256,24,25
 198 55 198 55 210 51 c 2,26,-1
 224 47 l 1,27,-1
 224 305 l 1,28,29
 220 306 220 306 194 317 c 0,30,31
 167 327 167 327 143 341 c 0,32,33
 119 354 119 354 99 375 c 256,34,35
 79 396 79 396 68 429 c 256,36,37
 57 462 57 462 71 503 c 0,38,39
 84 543 84 543 110 569 c 0,40,41
 135 595 135 595 161 604 c 256,42,43
 187 613 187 613 210 615 c 2,44,-1
 224 615 l 1,45,-1
 224 667 l 2,46,47
 224 682 224 682 230 689 c 0,48,49
 236 695 236 695 245 695 c 256,50,51
 254 695 254 695 262 689 c 0,52,53
 269 683 269 683 269 667 c 2,54,-1
 269 613 l 1,55,56
 276 611 276 611 287 609 c 0,57,58
 298 606 298 606 318 597 c 0,59,60
 338 589 338 589 352 575 c 0,61,62
 366 563 366 563 370 565 c 256,63,64
 374 567 374 567 377 575 c 2,65,-1
 384 596 l 2,66,67
 392 609 392 609 402 608 c 256,68,69
 412 607 412 607 418 591 c 0,70,71
 422 581 422 581 420 561 c 0,72,73
 419 541 419 541 420 509 c 0,74,75
 422 479 422 479 418 461 c 256,76,77
 414 443 414 443 407 441 c 0,78,79
 400 438 400 438 388 451 c 0,80,81
 384 455 384 455 369 487 c 0,82,83
 354 521 354 521 326 539 c 256,84,85
 298 557 298 557 278 563 c 2,86,-1
 269 567 l 1,87,-1
 269 343 l 2,88,89
 272 341 272 341 278 339 c 0,90,91
 285 336 285 336 314 321 c 0,92,93
 344 307 344 307 373 285 c 256,94,95
 402 263 402 263 416 236 c 256,96,97
 430 209 430 209 433 170 c 0,98,99
 435 132 435 132 426 100 c 0,100,101
 416 67 416 67 398 43 c 0,102,103
 378 19 378 19 348 5 c 0,104,105
 316 -9 316 -9 280 -10 c 2,106,-1
 269 -11 l 1,107,-1
 269 -51 l 2,108,109
 269 -63 269 -63 263 -71 c 0,110,111
 258 -79 258 -79 246 -80 c 0,112,113
 235 -81 235 -81 229 -73 c 0,114,115
 224 -66 224 -66 224 -51 c 2,116,-1
 224 -6 l 1,0,1
224 363 m 1,117,-1
 224 570 l 1,118,119
 218 569 218 569 206 567 c 0,120,121
 195 565 195 565 173 553 c 0,122,123
 151 543 151 543 134 512 c 0,124,125
 118 481 118 481 125 451 c 256,126,127
 132 421 132 421 151 405 c 256,128,129
 170 389 170 389 214 367 c 1,130,-1
 224 363 l 1,117,-1
269 286 m 1,131,-1
 269 40 l 1,132,133
 276 41 276 41 299 43 c 256,134,135
 322 45 322 45 344 69 c 256,136,137
 366 93 366 93 372 132 c 0,138,139
 378 170 378 170 370 196 c 0,140,141
 361 223 361 223 337 245 c 0,142,143
 312 267 312 267 276 283 c 2,144,-1
 269 286 l 1,131,-1
EndSplineSet
EndChar
StartChar: percent
Encoding: 37 37 8
Width: 754
Flags: W
LayerCount: 2
Back
Fore
SplineSet
149 700 m 0,0,1
 166 699 166 699 188 691 c 0,2,3
 211 681 211 681 225 663 c 0,4,5
 240 645 240 645 248 621 c 256,6,7
 256 597 256 597 261 573 c 256,8,9
 266 549 266 549 266 512 c 0,10,11
 267 475 267 475 258 432 c 0,12,13
 253 404 253 404 246 388 c 0,14,15
 238 371 238 371 226 356 c 256,16,17
 214 341 214 341 193 327 c 256,18,19
 172 313 172 313 146 313 c 0,20,21
 121 313 121 313 102 324 c 0,22,23
 84 335 84 335 72 351 c 256,24,25
 60 367 60 367 51 389 c 256,26,27
 42 411 42 411 35 438 c 0,28,29
 29 465 29 465 29 511 c 256,30,31
 29 557 29 557 37 590 c 0,32,33
 42 613 42 613 57 641 c 0,34,35
 72 670 72 670 94 685 c 0,36,37
 117 700 117 700 149 700 c 0,0,1
149 353 m 256,38,39
 160 353 160 353 171 359 c 256,40,41
 182 365 182 365 192 380 c 256,42,43
 202 395 202 395 206 418 c 256,44,45
 210 441 210 441 210 480 c 0,46,47
 210 532 210 532 206 574 c 0,48,49
 202 617 202 617 192 633 c 256,50,51
 182 649 182 649 172 654 c 0,52,53
 161 659 161 659 150 660 c 0,54,55
 136 660 136 660 124 653 c 0,56,57
 111 647 111 647 101 631 c 0,58,59
 92 615 92 615 88 590 c 256,60,61
 84 565 84 565 83 525 c 0,62,63
 83 485 83 485 86 459 c 0,64,65
 88 437 88 437 92 413 c 0,66,67
 97 391 97 391 106 377 c 0,68,69
 114 363 114 363 126 358 c 256,70,71
 138 353 138 353 149 353 c 256,38,39
590 700 m 2,72,-1
 189 -65 l 2,73,74
 180 -82 180 -82 169 -88 c 256,75,76
 158 -94 158 -94 153 -88 c 256,77,78
 148 -82 148 -82 148 -77 c 0,79,80
 148 -71 148 -71 152 -65 c 2,81,-1
 554 700 l 2,82,83
 561 713 561 713 568 720 c 0,84,85
 574 727 574 727 583 723 c 256,86,87
 592 719 592 719 592 712 c 0,88,89
 593 705 593 705 590 700 c 2,72,-1
475 119 m 0,90,91
 474 150 474 150 480 184 c 0,92,93
 487 217 487 217 502 245 c 0,94,95
 517 272 517 272 540 288 c 0,96,97
 562 303 562 303 593 303 c 0,98,99
 622 303 622 303 647 286 c 256,100,101
 672 269 672 269 685 240 c 256,102,103
 698 211 698 211 705 181 c 0,104,105
 712 152 712 152 712 120 c 0,106,107
 712 87 712 87 705 55 c 0,108,109
 699 27 699 27 686 -1 c 0,110,111
 672 -29 672 -29 645 -47 c 256,112,113
 618 -65 618 -65 590 -65 c 0,114,115
 566 -66 566 -66 548 -55 c 0,116,117
 530 -45 530 -45 514 -25 c 0,118,119
 500 -5 500 -5 488 31 c 256,120,121
 476 67 476 67 475 119 c 0,90,91
589 -30 m 0,122,123
 601 -31 601 -31 616 -23 c 0,124,125
 632 -16 632 -16 641 5 c 0,126,127
 651 27 651 27 653 55 c 0,128,129
 654 83 654 83 655 131 c 0,130,131
 655 179 655 179 649 213 c 0,132,133
 645 233 645 233 638 244 c 256,134,135
 631 255 631 255 619 263 c 0,136,137
 607 270 607 270 595 271 c 0,138,139
 584 271 584 271 571 264 c 256,140,141
 558 257 558 257 548 242 c 256,142,143
 538 227 538 227 533 198 c 0,144,145
 527 169 527 169 527 143 c 0,146,147
 526 118 526 118 529 85 c 0,148,149
 531 47 531 47 535 26 c 0,150,151
 540 5 540 5 548 -8 c 0,152,153
 557 -21 557 -21 568 -25 c 0,154,155
 580 -30 580 -30 589 -30 c 0,122,123
EndSplineSet
EndChar
StartChar: ampersand
Encoding: 38 38 9
Width: 777
Flags: W
LayerCount: 2
Back
Fore
SplineSet
237 365 m 1,0,1
 217 415 217 415 208 449 c 256,2,3
 199 483 199 483 199 519 c 0,4,5
 199 571 199 571 221 610 c 0,6,7
 243 648 243 648 282 671 c 0,8,9
 321 693 321 693 366 693 c 0,10,11
 404 693 404 693 433 677 c 0,12,13
 462 660 462 660 477 632 c 0,14,15
 493 605 493 605 494 563 c 256,16,17
 495 521 495 521 477 481 c 0,18,19
 455 429 455 429 436 419 c 2,20,-1
 327 339 l 1,21,22
 347 304 347 304 365 272 c 0,23,24
 384 239 384 239 393 228 c 2,25,-1
 433 177 l 1,26,27
 456 203 456 203 467 217 c 0,28,29
 479 231 479 231 503 265 c 256,30,31
 527 299 527 299 539 321 c 0,32,33
 551 342 551 342 549 361 c 2,34,-1
 542 405 l 1,35,36
 546 415 546 415 561 422 c 0,37,38
 575 429 575 429 594 429 c 256,39,40
 613 429 613 429 637 429 c 0,41,42
 655 429 655 429 665 423 c 0,43,44
 676 418 676 418 677 411 c 0,45,46
 678 403 678 403 657 391 c 0,47,48
 628 375 628 375 619 367 c 0,49,50
 611 360 611 360 603 347 c 0,51,52
 596 335 596 335 580 301 c 256,53,54
 564 267 564 267 541 225 c 0,55,56
 517 183 517 183 513 176 c 2,57,-1
 478 124 l 1,58,59
 514 88 514 88 537 71 c 0,60,61
 559 55 559 55 583 47 c 256,62,63
 607 39 607 39 633 39 c 0,64,65
 647 38 647 38 663 43 c 0,66,67
 681 49 681 49 697 69 c 0,68,69
 713 91 713 91 719 102 c 256,70,71
 725 113 725 113 732 117 c 0,72,73
 738 121 738 121 741 119 c 256,74,75
 744 117 744 117 743 107 c 0,76,77
 740 89 740 89 727 62 c 0,78,79
 713 35 713 35 700 17 c 0,80,81
 686 -1 686 -1 660 -14 c 0,82,83
 633 -27 633 -27 598 -27 c 0,84,85
 574 -28 574 -28 544 -19 c 0,86,87
 515 -9 515 -9 496 9 c 2,88,-1
 427 67 l 1,89,90
 391 41 391 41 359 21 c 0,91,92
 327 0 327 0 287 -15 c 0,93,94
 247 -29 247 -29 198 -27 c 0,95,96
 151 -26 151 -26 115 -7 c 0,97,98
 79 13 79 13 59 48 c 256,99,100
 39 83 39 83 38 123 c 256,101,102
 37 163 37 163 51 199 c 0,103,104
 65 233 65 233 94 264 c 256,105,106
 123 295 123 295 149 309 c 2,107,-1
 237 365 l 1,0,1
381 123 m 1,108,109
 355 159 355 159 331 193 c 256,110,111
 307 227 307 227 292 256 c 2,112,-1
 261 313 l 1,113,114
 215 288 215 288 191 271 c 0,115,116
 167 255 167 255 150 237 c 0,117,118
 133 218 133 218 123 197 c 0,119,120
 113 175 113 175 113 140 c 0,121,122
 112 105 112 105 129 81 c 0,123,124
 145 57 145 57 182 47 c 0,125,126
 219 36 219 36 263 47 c 0,127,128
 307 59 307 59 331 81 c 2,129,-1
 381 123 l 1,108,109
305 397 m 1,130,131
 320 405 320 405 341 416 c 256,132,133
 362 427 362 427 382 449 c 256,134,135
 402 471 402 471 414 500 c 0,136,137
 427 529 427 529 427 565 c 0,138,139
 426 594 426 594 417 608 c 0,140,141
 407 623 407 623 394 630 c 0,142,143
 380 637 380 637 363 638 c 0,144,145
 341 639 341 639 322 629 c 0,146,147
 303 621 303 621 289 600 c 0,148,149
 275 580 275 580 269 551 c 0,150,151
 263 521 263 521 270 487 c 0,152,153
 276 453 276 453 291 425 c 2,154,-1
 305 397 l 1,130,131
EndSplineSet
EndChar
StartChar: parenleft
Encoding: 40 40 11
Width: 292
Flags: W
LayerCount: 2
Back
Fore
SplineSet
210 -127 m 2,0,-1
 192 -105 l 2,1,2
 170 -78 170 -78 142 -36 c 256,3,4
 114 6 114 6 97 39 c 0,5,6
 80 73 80 73 66 115 c 256,7,8
 52 157 52 157 42 207 c 0,9,10
 34 257 34 257 34 323 c 0,11,12
 34 375 34 375 42 421 c 0,13,14
 50 465 50 465 74 525 c 256,15,16
 98 585 98 585 126 629 c 0,17,18
 154 671 154 671 177 701 c 2,19,-1
 210 743 l 1,20,-1
 226 763 l 2,21,22
 230 769 230 769 237 773 c 0,23,24
 243 778 243 778 248 777 c 0,25,26
 254 777 254 777 256 772 c 256,27,28
 258 767 258 767 252 759 c 2,29,-1
 236 731 l 2,30,31
 202 675 202 675 187 649 c 256,32,33
 172 623 172 623 156 587 c 256,34,35
 140 551 140 551 128 515 c 256,36,37
 116 479 116 479 108 435 c 256,38,39
 100 391 100 391 99 341 c 0,40,41
 98 292 98 292 100 255 c 0,42,43
 104 207 104 207 112 168 c 256,44,45
 120 129 120 129 136 86 c 0,46,47
 152 42 152 42 176 -6 c 0,48,49
 200 -55 200 -55 222 -91 c 2,50,-1
 241 -121 l 2,51,52
 254 -143 254 -143 254 -149 c 0,53,54
 254 -157 254 -157 250 -159 c 0,55,56
 245 -161 245 -161 238 -158 c 0,57,58
 232 -154 232 -154 210 -127 c 2,0,-1
EndSplineSet
EndChar
StartChar: parenright
Encoding: 41 41 12
Width: 292
Flags: W
LayerCount: 2
Back
Fore
SplineSet
51 -119 m 2,0,-1
 70 -89 l 2,1,2
 93 -50 93 -50 115 -5 c 0,3,4
 137 39 137 39 154 87 c 0,5,6
 172 133 172 133 180 170 c 256,7,8
 188 207 188 207 190 251 c 0,9,10
 193 295 193 295 192 333 c 0,11,12
 191 393 191 393 183 437 c 0,13,14
 175 479 175 479 164 517 c 0,15,16
 152 555 152 555 137 588 c 256,17,18
 122 621 122 621 98 663 c 0,19,20
 75 705 75 705 56 733 c 2,21,-1
 40 757 l 2,22,23
 33 767 33 767 35 773 c 256,24,25
 37 779 37 779 43 780 c 0,26,27
 50 781 50 781 56 775 c 2,28,-1
 64 767 l 1,29,-1
 82 745 l 2,30,31
 105 717 105 717 121 696 c 256,32,33
 137 675 137 675 169 622 c 0,34,35
 202 568 202 568 221 519 c 0,36,37
 240 471 240 471 249 423 c 256,38,39
 258 375 258 375 258 318 c 0,40,41
 259 261 259 261 248 203 c 0,42,43
 240 157 240 157 226 116 c 256,44,45
 212 75 212 75 195 41 c 0,46,47
 178 9 178 9 150 -34 c 256,48,49
 122 -77 122 -77 100 -103 c 2,50,-1
 81 -126 l 2,51,52
 58 -153 58 -153 53 -157 c 0,53,54
 47 -160 47 -160 42 -157 c 0,55,56
 37 -155 37 -155 37 -148 c 0,57,58
 38 -141 38 -141 51 -119 c 2,0,-1
EndSplineSet
EndChar
StartChar: asterisk
Encoding: 42 42 13
Width: 512
Flags: W
LayerCount: 2
Back
Fore
SplineSet
239 313 m 1,0,1
 184 331 184 331 148 338 c 256,2,3
 112 345 112 345 100 354 c 0,4,5
 87 363 87 363 81 374 c 0,6,7
 76 385 76 385 76 396 c 256,8,9
 76 407 76 407 80 415 c 256,10,11
 84 423 84 423 93 426 c 0,12,13
 102 430 102 430 112 430 c 0,14,15
 124 429 124 429 136 423 c 256,16,17
 148 417 148 417 166 401 c 2,18,-1
 204 365 l 1,19,-1
 249 325 l 1,20,21
 246 355 246 355 244 367 c 0,22,23
 241 380 241 380 229 417 c 0,24,25
 216 455 216 455 217 479 c 0,26,27
 217 497 217 497 223 508 c 256,28,29
 229 519 229 519 237 524 c 0,30,31
 246 529 246 529 258 529 c 0,32,33
 268 528 268 528 276 523 c 0,34,35
 284 519 284 519 291 507 c 256,36,37
 298 495 298 495 298 475 c 0,38,39
 298 461 298 461 287 423 c 256,40,41
 276 385 276 385 274 374 c 2,42,-1
 266 323 l 1,43,44
 305 358 305 358 324 377 c 2,45,-1
 354 407 l 2,46,47
 368 422 368 422 379 427 c 0,48,49
 389 431 389 431 400 431 c 0,50,51
 412 431 412 431 421 425 c 0,52,53
 431 419 431 419 436 411 c 0,54,55
 442 403 442 403 442 393 c 256,56,57
 442 383 442 383 434 372 c 256,58,59
 426 361 426 361 403 350 c 256,60,61
 380 339 380 339 349 331 c 2,62,-1
 271 310 l 1,63,64
 296 301 296 301 309 297 c 256,65,66
 322 293 322 293 352 284 c 0,67,68
 380 275 380 275 394 270 c 256,69,70
 408 265 408 265 418 257 c 0,71,72
 428 251 428 251 433 239 c 0,73,74
 438 228 438 228 434 215 c 0,75,76
 430 201 430 201 418 194 c 256,77,78
 406 187 406 187 388 191 c 0,79,80
 372 194 372 194 360 203 c 0,81,82
 350 212 350 212 334 229 c 0,83,84
 320 247 320 247 317 250 c 2,85,-1
 268 297 l 1,86,87
 272 252 272 252 278 230 c 2,88,-1
 288 187 l 2,89,90
 293 166 293 166 294 147 c 0,91,92
 294 128 294 128 291 117 c 0,93,94
 287 107 287 107 278 99 c 0,95,96
 270 92 270 92 259 91 c 0,97,98
 248 91 248 91 238 97 c 0,99,100
 227 103 227 103 222 112 c 0,101,102
 216 121 216 121 215 138 c 256,103,104
 214 155 214 155 218 170 c 0,105,106
 219 175 219 175 228 204 c 0,107,108
 238 232 238 232 242 255 c 2,109,-1
 252 302 l 1,110,111
 226 278 226 278 214 266 c 2,112,-1
 183 234 l 2,113,114
 167 218 167 218 155 209 c 0,115,116
 142 199 142 199 132 194 c 256,117,118
 122 189 122 189 111 189 c 256,119,120
 100 189 100 189 90 197 c 256,121,122
 80 205 80 205 77 222 c 256,123,124
 74 239 74 239 84 251 c 0,125,126
 95 263 95 263 101 266 c 0,127,128
 107 270 107 270 155 287 c 2,129,-1
 239 313 l 1,0,1
EndSplineSet
EndChar
StartChar: plus
Encoding: 43 43 14
Width: 720
Flags: W
LayerCount: 2
Back
Fore
SplineSet
335 331 m 1,0,-1
 335 616 l 1,1,-1
 378 616 l 1,2,-1
 378 331 l 1,3,-1
 664 331 l 1,4,-1
 664 288 l 1,5,-1
 378 288 l 1,6,-1
 378 3 l 1,7,-1
 335 3 l 1,8,-1
 335 288 l 1,9,-1
 50 288 l 1,10,-1
 50 331 l 1,11,-1
 335 331 l 1,0,-1
EndSplineSet
EndChar
StartChar: comma
Encoding: 44 44 15
Width: 512
Flags: W
LayerCount: 2
Back
Fore
SplineSet
205 -153 m 1,0,-1
 205 -133 l 1,1,2
 213 -127 213 -127 224 -121 c 0,3,4
 235 -113 235 -113 251 -99 c 0,5,6
 268 -84 268 -84 276 -68 c 0,7,8
 285 -52 285 -52 287 -35 c 0,9,10
 289 -19 289 -19 283 -9 c 2,11,-1
 276 4 l 1,12,13
 261 -3 261 -3 253 -6 c 256,14,15
 245 -9 245 -9 229 -10 c 0,16,17
 214 -11 214 -11 200 -1 c 0,18,19
 191 5 191 5 185 17 c 0,20,21
 179 30 179 30 180 48 c 0,22,23
 181 62 181 62 187 75 c 0,24,25
 194 87 194 87 207 95 c 0,26,27
 219 102 219 102 235 103 c 0,28,29
 255 105 255 105 272 97 c 256,30,31
 289 89 289 89 301 74 c 256,32,33
 313 59 313 59 320 39 c 0,34,35
 327 20 327 20 327 -5 c 0,36,37
 327 -33 327 -33 318 -55 c 256,38,39
 309 -77 309 -77 292 -95 c 256,40,41
 275 -113 275 -113 261 -123 c 256,42,43
 247 -133 247 -133 231 -140 c 2,44,-1
 205 -153 l 1,0,-1
EndSplineSet
EndChar
StartChar: slash
Encoding: 47 47 18
Width: 645
Flags: W
LayerCount: 2
Back
Fore
SplineSet
55 -63 m 1,0,-1
 563 700 l 2,1,2
 573 714 573 714 581 719 c 0,3,4
 589 723 589 723 601 719 c 0,5,6
 612 715 612 715 607 707 c 2,7,-1
 599 687 l 1,8,-1
 84 -84 l 2,9,10
 76 -94 76 -94 67 -98 c 0,11,12
 57 -103 57 -103 49 -93 c 0,13,14
 40 -84 40 -84 47 -75 c 2,15,-1
 55 -63 l 1,0,-1
EndSplineSet
EndChar
StartChar: zero
Encoding: 48 48 19
Width: 512
Flags: W
LayerCount: 2
Back
Fore
SplineSet
258 678 m 0,0,1
 297 678 297 678 344 639 c 0,2,3
 390 600 390 600 415 517 c 256,4,5
 440 434 440 434 440 352 c 256,6,7
 440 270 440 270 416 191 c 0,8,9
 392 113 392 113 348 71 c 0,10,11
 304 28 304 28 258 29 c 0,12,13
 212 29 212 29 168 71 c 256,14,15
 124 113 124 113 100 191 c 256,16,17
 76 269 76 269 76 353 c 0,18,19
 76 435 76 435 100 517 c 0,20,21
 125 599 125 599 172 639 c 0,22,23
 219 677 219 677 258 678 c 0,0,1
257 635 m 0,24,25
 233 634 233 634 200 601 c 0,26,27
 166 569 166 569 150 494 c 256,28,29
 134 419 134 419 133 353 c 0,30,31
 133 286 133 286 150 215 c 0,32,33
 165 147 165 147 196 111 c 0,34,35
 226 75 226 75 257 74 c 0,36,37
 287 74 287 74 318 112 c 0,38,39
 348 147 348 147 364 217 c 256,40,41
 380 287 380 287 380 355 c 0,42,43
 380 418 380 418 363 493 c 0,44,45
 347 569 347 569 314 602 c 0,46,47
 280 635 280 635 257 635 c 0,24,25
EndSplineSet
EndChar
StartChar: one
Encoding: 49 49 20
Width: 512
Flags: W
LayerCount: 2
Back
Fore
SplineSet
265 19 m 0,0,1
 261 18 261 18 249 31 c 0,2,3
 237 45 237 45 230 59 c 0,4,5
 222 73 222 73 221 81 c 0,6,7
 219 88 219 88 221 100 c 2,8,-1
 231 143 l 2,9,10
 234 159 234 159 235 197 c 0,11,12
 237 235 237 235 237 256 c 256,13,14
 237 277 237 277 239 343 c 0,15,16
 239 415 239 415 238 462 c 256,17,18
 237 509 237 509 239 541 c 256,19,20
 241 573 241 573 233 576 c 256,21,22
 225 579 225 579 210 575 c 2,23,-1
 179 563 l 2,24,25
 153 555 153 555 151 561 c 0,26,27
 148 567 148 567 158 582 c 0,28,29
 169 597 169 597 204 631 c 2,30,-1
 245 669 l 2,31,32
 253 675 253 675 265 683 c 0,33,34
 277 690 277 690 283 686 c 0,35,36
 287 683 287 683 289 675 c 256,37,38
 291 667 291 667 291 638 c 256,39,40
 291 609 291 609 291 597 c 2,41,-1
 289 531 l 2,42,43
 289 525 289 525 289 487 c 2,44,-1
 288 338 l 1,45,-1
 289 277 l 1,46,-1
 289 181 l 2,47,48
 290 137 290 137 289 121 c 0,49,50
 289 114 289 114 285 81 c 256,51,52
 281 48 281 48 275 34 c 0,53,54
 269 19 269 19 265 19 c 0,0,1
EndSplineSet
EndChar
StartChar: two
Encoding: 50 50 21
Width: 512
Flags: W
LayerCount: 2
Back
Fore
SplineSet
124 95 m 0,0,1
 128 93 128 93 149 88 c 256,2,3
 170 83 170 83 228 90 c 256,4,5
 286 97 286 97 322 103 c 0,6,7
 358 110 358 110 366 110 c 0,8,9
 384 109 384 109 400 103 c 0,10,11
 415 97 415 97 430 82 c 0,12,13
 446 67 446 67 444 59 c 0,14,15
 441 52 441 52 417 49 c 0,16,17
 402 47 402 47 368 49 c 256,18,19
 334 51 334 51 274 47 c 256,20,21
 214 43 214 43 176 42 c 256,22,23
 138 41 138 41 113 33 c 0,24,25
 88 27 88 27 76 29 c 256,26,27
 64 31 64 31 51 49 c 0,28,29
 38 69 38 69 38 79 c 0,30,31
 38 84 38 84 42 91 c 2,32,-1
 60 113 l 2,33,34
 64 121 64 121 68 158 c 0,35,36
 71 195 71 195 82 224 c 0,37,38
 92 253 92 253 106 273 c 256,39,40
 120 293 120 293 138 308 c 256,41,42
 156 323 156 323 191 339 c 2,43,-1
 252 369 l 2,44,45
 294 391 294 391 312 413 c 0,46,47
 330 436 330 436 338 472 c 0,48,49
 347 509 347 509 344 543 c 0,50,51
 338 585 338 585 318 609 c 256,52,53
 298 633 298 633 271 643 c 0,54,55
 244 652 244 652 215 646 c 0,56,57
 173 637 173 637 154 613 c 0,58,59
 136 589 136 589 130 566 c 256,60,61
 124 543 124 543 124 525 c 2,62,-1
 130 467 l 2,63,64
 129 448 129 448 123 445 c 0,65,66
 117 443 117 443 103 455 c 0,67,68
 91 465 91 465 86 479 c 0,69,70
 81 491 81 491 78 518 c 0,71,72
 74 545 74 545 80 573 c 0,73,74
 86 605 86 605 106 631 c 0,75,76
 124 657 124 657 153 675 c 0,77,78
 181 691 181 691 215 697 c 0,79,80
 247 701 247 701 283 693 c 0,81,82
 318 685 318 685 343 665 c 0,83,84
 367 644 367 644 386 610 c 0,85,86
 404 575 404 575 406 534 c 0,87,88
 407 493 407 493 397 456 c 0,89,90
 384 412 384 412 364 387 c 256,91,92
 344 362 344 362 316 345 c 0,93,94
 288 329 288 329 254 314 c 256,95,96
 220 299 220 299 202 290 c 256,97,98
 184 281 184 281 164 257 c 0,99,100
 143 234 143 234 134 212 c 0,101,102
 126 191 126 191 118 158 c 256,103,104
 110 125 110 125 115 112 c 256,105,106
 120 99 120 99 124 95 c 0,0,1
EndSplineSet
EndChar
StartChar: three
Encoding: 51 51 22
Width: 512
Flags: W
LayerCount: 2
Back
Fore
SplineSet
334 631 m 1,0,1
 307 627 307 627 294 625 c 2,2,-1
 243 618 l 2,3,4
 205 613 205 613 180 604 c 256,5,6
 155 595 155 595 148 597 c 0,7,8
 138 597 138 597 120 608 c 0,9,10
 102 618 102 618 92 629 c 0,11,12
 82 641 82 641 84 647 c 0,13,14
 85 653 85 653 115 654 c 0,15,16
 144 654 144 654 170 657 c 2,17,-1
 257 667 l 2,18,19
 306 669 306 669 330 683 c 0,20,21
 356 695 356 695 361 695 c 0,22,23
 370 695 370 695 381 687 c 256,24,25
 392 679 392 679 407 661 c 0,26,27
 423 642 423 642 422 635 c 0,28,29
 420 630 420 630 399 619 c 0,30,31
 378 607 378 607 365 589 c 2,32,-1
 325 527 l 1,33,-1
 274 447 l 1,34,35
 312 443 312 443 334 435 c 0,36,37
 355 428 355 428 376 409 c 0,38,39
 398 390 398 390 409 370 c 256,40,41
 420 350 420 350 426 322 c 256,42,43
 432 294 432 294 434 262 c 0,44,45
 435 230 435 230 426 193 c 0,46,47
 420 163 420 163 405 133 c 0,48,49
 390 102 390 102 368 80 c 256,50,51
 346 58 346 58 320 47 c 0,52,53
 294 35 294 35 257 36 c 0,54,55
 225 36 225 36 196 46 c 0,56,57
 168 56 168 56 148 75 c 0,58,59
 128 93 128 93 116 117 c 256,60,61
 104 141 104 141 101 161 c 256,62,63
 98 181 98 181 98 215 c 256,64,65
 98 249 98 249 105 265 c 0,66,67
 112 279 112 279 120 280 c 0,68,69
 128 280 128 280 134 265 c 0,70,71
 138 256 138 256 136 229 c 0,72,73
 134 201 134 201 144 171 c 0,74,75
 154 135 154 135 176 117 c 0,76,77
 197 99 197 99 230 92 c 0,78,79
 270 84 270 84 296 95 c 0,80,81
 324 107 324 107 342 133 c 256,82,83
 360 159 360 159 368 186 c 256,84,85
 376 213 376 213 376 261 c 0,86,87
 374 305 374 305 364 332 c 256,88,89
 354 359 354 359 330 378 c 0,90,91
 307 397 307 397 286 401 c 0,92,93
 264 405 264 405 250 396 c 2,94,-1
 230 384 l 2,95,96
 218 381 218 381 202 397 c 0,97,98
 188 413 188 413 184 432 c 256,99,100
 180 451 180 451 182 457 c 0,101,102
 184 458 184 458 206 464 c 0,103,104
 228 471 228 471 245 495 c 2,105,-1
 334 631 l 1,0,1
EndSplineSet
EndChar
StartChar: four
Encoding: 52 52 23
Width: 512
Flags: W
LayerCount: 2
Back
Fore
SplineSet
310 205 m 1,0,1
 298 204 298 204 288 204 c 0,2,3
 278 205 278 205 275 205 c 0,4,5
 267 204 267 204 213 196 c 2,6,-1
 163 189 l 2,7,8
 146 186 146 186 120 180 c 0,9,10
 95 173 95 173 83 178 c 0,11,12
 72 183 72 183 68 207 c 256,13,14
 64 231 64 231 65 239 c 0,15,16
 65 244 65 244 67 247 c 0,17,18
 69 251 69 251 85 263 c 0,19,20
 101 276 101 276 110 296 c 0,21,22
 120 317 120 317 157 387 c 2,23,-1
 193 460 l 1,24,-1
 247 567 l 2,25,26
 275 622 275 622 285 641 c 0,27,28
 295 661 295 661 310 675 c 0,29,30
 324 690 324 690 334 689 c 0,31,32
 346 687 346 687 351 676 c 0,33,34
 357 664 357 664 357 653 c 0,35,36
 357 641 357 641 359 597 c 0,37,38
 361 572 361 572 359 474 c 2,39,-1
 360 321 l 1,40,-1
 360 266 l 1,41,-1
 360 257 l 1,42,43
 384 262 384 262 400 267 c 0,44,45
 417 272 417 272 425 271 c 0,46,47
 433 269 433 269 448 259 c 256,48,49
 463 249 463 249 474 232 c 0,50,51
 484 215 484 215 483 211 c 0,52,53
 480 203 480 203 457 205 c 256,54,55
 434 207 434 207 403 206 c 2,56,-1
 361 205 l 1,57,58
 360 181 360 181 360 155 c 0,59,60
 361 129 361 129 361 119 c 0,61,62
 360 99 360 99 358 73 c 256,63,64
 356 47 356 47 351 31 c 0,65,66
 346 13 346 13 340 12 c 0,67,68
 333 11 333 11 321 31 c 0,69,70
 309 45 309 45 307 52 c 0,71,72
 303 59 303 59 299 73 c 0,73,74
 293 87 293 87 293 92 c 0,75,76
 292 98 292 98 303 131 c 0,77,78
 306 143 306 143 309 196 c 2,79,-1
 310 205 l 1,0,1
310 251 m 1,80,81
 308 311 308 311 309 343 c 2,82,-1
 311 481 l 2,83,84
 310 519 310 519 314 556 c 0,85,86
 319 593 319 593 315 592 c 256,87,88
 311 591 311 591 297 566 c 256,89,90
 283 541 283 541 257 481 c 0,91,92
 231 420 231 420 196 359 c 0,93,94
 161 299 161 299 152 280 c 256,95,96
 143 261 143 261 137 252 c 0,97,98
 132 242 132 242 135 238 c 0,99,100
 139 234 139 234 148 233 c 0,101,102
 159 231 159 231 184 235 c 256,103,104
 209 239 209 239 259 245 c 2,105,-1
 310 251 l 1,80,81
EndSplineSet
EndChar
StartChar: five
Encoding: 53 53 24
Width: 512
Flags: W
LayerCount: 2
Back
Fore
SplineSet
156 421 m 1,0,1
 185 435 185 435 205 443 c 256,2,3
 225 451 225 451 252 455 c 256,4,5
 279 459 279 459 305 455 c 0,6,7
 341 448 341 448 367 428 c 256,8,9
 393 408 393 408 407 385 c 256,10,11
 421 362 421 362 429 326 c 256,12,13
 437 290 437 290 439 249 c 0,14,15
 441 207 441 207 427 164 c 0,16,17
 415 125 415 125 392 95 c 256,18,19
 369 65 369 65 341 53 c 0,20,21
 312 39 312 39 281 36 c 0,22,23
 241 31 241 31 202 39 c 0,24,25
 163 46 163 46 138 63 c 256,26,27
 113 80 113 80 96 104 c 256,28,29
 79 128 79 128 74 146 c 0,30,31
 69 165 69 165 66 193 c 256,32,33
 63 221 63 221 68 233 c 256,34,35
 73 245 73 245 82 246 c 0,36,37
 90 247 90 247 99 232 c 0,38,39
 103 225 103 225 109 195 c 0,40,41
 116 165 116 165 129 144 c 0,42,43
 143 123 143 123 159 111 c 0,44,45
 177 99 177 99 205 92 c 256,46,47
 233 85 233 85 262 87 c 0,48,49
 297 89 297 89 322 105 c 256,50,51
 347 121 347 121 365 159 c 256,52,53
 383 197 383 197 385 243 c 256,54,55
 387 289 387 289 373 329 c 256,56,57
 359 369 359 369 335 386 c 256,58,59
 311 403 311 403 269 403 c 0,60,61
 223 404 223 404 201 393 c 2,62,-1
 153 372 l 2,63,64
 148 367 148 367 141 359 c 0,65,66
 135 351 135 351 128 350 c 256,67,68
 121 349 121 349 109 357 c 0,69,70
 101 363 101 363 91 374 c 256,71,72
 81 385 81 385 80 391 c 0,73,74
 80 397 80 397 88 408 c 0,75,76
 97 421 97 421 101 429 c 0,77,78
 105 438 105 438 107 461 c 0,79,80
 109 485 109 485 112 525 c 0,81,82
 115 566 115 566 116 589 c 0,83,84
 117 611 117 611 117 626 c 0,85,86
 115 643 115 643 113 649 c 256,87,88
 111 655 111 655 103 674 c 256,89,90
 95 693 95 693 101 697 c 0,91,92
 105 701 105 701 113 701 c 0,93,94
 119 701 119 701 131 695 c 0,95,96
 142 689 142 689 157 679 c 0,97,98
 171 671 171 671 172 667 c 2,99,-1
 179 640 l 1,100,101
 199 641 199 641 210 643 c 2,102,-1
 258 651 l 2,103,104
 293 657 293 657 305 661 c 2,105,-1
 355 683 l 2,106,107
 365 684 365 684 380 678 c 256,108,109
 395 672 395 672 400 663 c 0,110,111
 405 653 405 653 405 648 c 0,112,113
 403 638 403 638 381 632 c 0,114,115
 360 625 360 625 327 617 c 0,116,117
 295 609 295 609 275 604 c 0,118,119
 255 598 255 598 240 595 c 0,120,121
 226 592 226 592 213 594 c 0,122,123
 201 595 201 595 193 601 c 2,124,-1
 171 618 l 2,125,126
 167 617 167 617 167 598 c 256,127,128
 167 579 167 579 163 551 c 0,129,130
 160 522 160 522 157 434 c 2,131,-1
 156 421 l 1,0,1
EndSplineSet
EndChar
StartChar: six
Encoding: 54 54 25
Width: 512
Flags: W
LayerCount: 2
Back
Fore
SplineSet
132 353 m 1,0,1
 154 381 154 381 171 400 c 0,2,3
 188 418 188 418 214 430 c 0,4,5
 240 443 240 443 279 439 c 0,6,7
 309 436 309 436 337 423 c 0,8,9
 366 409 366 409 388 385 c 256,10,11
 410 361 410 361 423 326 c 256,12,13
 436 291 436 291 438 256 c 0,14,15
 439 221 439 221 432 184 c 0,16,17
 424 146 424 146 412 119 c 0,18,19
 399 91 399 91 375 70 c 0,20,21
 350 48 350 48 312 37 c 0,22,23
 274 27 274 27 234 38 c 0,24,25
 203 46 203 46 179 65 c 0,26,27
 155 85 155 85 139 108 c 256,28,29
 123 131 123 131 109 170 c 0,30,31
 96 209 96 209 89 264 c 256,32,33
 82 319 82 319 86 391 c 0,34,35
 90 452 90 452 101 501 c 256,36,37
 112 550 112 550 130 587 c 0,38,39
 148 625 148 625 172 645 c 0,40,41
 198 665 198 665 226 674 c 0,42,43
 256 682 256 682 285 679 c 0,44,45
 314 675 314 675 339 660 c 256,46,47
 364 645 364 645 381 621 c 256,48,49
 398 597 398 597 400 567 c 256,50,51
 402 537 402 537 396 515 c 0,52,53
 392 501 392 501 381 491 c 0,54,55
 371 483 371 483 364 485 c 0,56,57
 359 487 359 487 360 513 c 0,58,59
 360 539 360 539 355 558 c 0,60,61
 348 580 348 580 334 598 c 0,62,63
 320 617 320 617 294 625 c 0,64,65
 268 634 268 634 236 622 c 0,66,67
 207 611 207 611 187 583 c 256,68,69
 167 555 167 555 154 510 c 0,70,71
 141 464 141 464 138 410 c 256,72,73
 135 356 135 356 132 353 c 1,0,1
160 244 m 0,74,75
 160 209 160 209 169 176 c 0,76,77
 177 142 177 142 195 118 c 0,78,79
 212 95 212 95 243 83 c 0,80,81
 274 73 274 73 302 81 c 0,82,83
 335 91 335 91 350 115 c 0,84,85
 365 140 365 140 373 173 c 256,86,87
 381 206 381 206 381 240 c 0,88,89
 382 274 382 274 374 299 c 0,90,91
 366 330 366 330 345 355 c 0,92,93
 324 379 324 379 298 389 c 0,94,95
 273 399 273 399 242 388 c 0,96,97
 220 381 220 381 200 361 c 0,98,99
 178 341 178 341 168 313 c 256,100,101
 158 285 158 285 160 244 c 0,74,75
EndSplineSet
EndChar
StartChar: seven
Encoding: 55 55 26
Width: 512
Flags: W
LayerCount: 2
Back
Fore
SplineSet
481 623 m 2,0,-1
 460 601 l 2,1,2
 442 581 442 581 426 559 c 256,3,4
 410 537 410 537 394 510 c 256,5,6
 378 483 378 483 359 447 c 256,7,8
 340 411 340 411 324 377 c 0,9,10
 309 343 309 343 297 304 c 0,11,12
 285 266 285 266 279 231 c 0,13,14
 274 195 274 195 271 157 c 0,15,16
 268 120 268 120 268 91 c 0,17,18
 268 63 268 63 264 48 c 256,19,20
 260 33 260 33 254 31 c 256,21,22
 248 29 248 29 233 46 c 0,23,24
 214 69 214 69 205 94 c 256,25,26
 196 119 196 119 196 131 c 0,27,28
 196 140 196 140 206 163 c 0,29,30
 215 185 215 185 218 196 c 256,31,32
 221 207 221 207 230 254 c 0,33,34
 238 301 238 301 249 333 c 0,35,36
 260 367 260 367 278 407 c 256,37,38
 296 447 296 447 311 476 c 256,39,40
 326 505 326 505 344 532 c 0,41,42
 362 560 362 560 372 577 c 256,43,44
 382 594 382 594 377 601 c 0,45,46
 372 609 372 609 344 607 c 0,47,48
 327 605 327 605 295 599 c 0,49,50
 262 593 262 593 231 590 c 0,51,52
 199 587 199 587 177 582 c 0,53,54
 156 576 156 576 148 577 c 0,55,56
 136 579 136 579 126 589 c 256,57,58
 116 599 116 599 106 613 c 256,59,60
 96 627 96 627 96 635 c 0,61,62
 96 641 96 641 97 643 c 0,63,64
 99 645 99 645 102 647 c 0,65,66
 106 647 106 647 116 645 c 0,67,68
 125 643 125 643 146 643 c 2,69,-1
 180 640 l 2,70,71
 199 639 199 639 228 643 c 2,72,-1
 310 652 l 2,73,74
 354 655 354 655 381 669 c 0,75,76
 409 683 409 683 414 683 c 0,77,78
 423 683 423 683 442 669 c 0,79,80
 460 655 460 655 471 642 c 0,81,82
 482 628 482 628 481 623 c 2,0,-1
EndSplineSet
EndChar
StartChar: eight
Encoding: 56 56 27
Width: 512
Flags: W
LayerCount: 2
Back
Fore
SplineSet
328 399 m 1,0,1
 334 396 334 396 339 393 c 0,2,3
 344 391 344 391 367 377 c 0,4,5
 391 363 391 363 416 317 c 0,6,7
 441 272 441 272 441 221 c 0,8,9
 442 170 442 170 416 125 c 0,10,11
 392 81 392 81 348 55 c 0,12,13
 306 29 306 29 256 29 c 0,14,15
 207 29 207 29 164 55 c 256,16,17
 121 81 121 81 96 125 c 0,18,19
 72 169 72 169 72 221 c 256,20,21
 72 273 72 273 98 320 c 256,22,23
 124 367 124 367 164 388 c 2,24,-1
 181 397 l 1,25,26
 174 401 174 401 158 411 c 256,27,28
 142 421 142 421 122 455 c 0,29,30
 103 489 103 489 104 530 c 0,31,32
 104 570 104 570 124 605 c 0,33,34
 144 641 144 641 178 661 c 256,35,36
 212 681 212 681 253 681 c 256,37,38
 294 681 294 681 328 661 c 256,39,40
 362 641 362 641 382 605 c 0,41,42
 402 570 402 570 402 530 c 0,43,44
 402 489 402 489 382 454 c 0,45,46
 363 419 363 419 336 404 c 2,47,-1
 328 399 l 1,0,1
253 629 m 0,48,49
 230 629 230 629 208 617 c 0,50,51
 184 604 184 604 172 581 c 0,52,53
 158 557 158 557 159 531 c 0,54,55
 159 505 159 505 172 482 c 0,56,57
 184 459 184 459 206 446 c 256,58,59
 228 433 228 433 253 433 c 256,60,61
 278 433 278 433 300 446 c 256,62,63
 322 459 322 459 334 482 c 256,64,65
 346 505 346 505 347 531 c 0,66,67
 347 557 347 557 334 581 c 0,68,69
 321 604 321 604 298 617 c 0,70,71
 275 629 275 629 253 629 c 0,48,49
258 371 m 256,72,73
 227 371 227 371 196 353 c 0,74,75
 164 335 164 335 147 301 c 256,76,77
 130 267 130 267 130 229 c 256,78,79
 130 191 130 191 147 156 c 256,80,81
 164 121 164 121 194 101 c 0,82,83
 224 82 224 82 258 82 c 0,84,85
 292 81 292 81 322 101 c 0,86,87
 350 121 350 121 368 156 c 256,88,89
 386 191 386 191 386 230 c 0,90,91
 386 267 386 267 368 301 c 256,92,93
 350 335 350 335 320 353 c 0,94,95
 289 371 289 371 258 371 c 256,72,73
EndSplineSet
EndChar
StartChar: nine
Encoding: 57 57 28
Width: 512
Flags: W
LayerCount: 2
Back
Fore
SplineSet
438 389 m 1,0,1
 437 335 437 335 436 301 c 0,2,3
 435 268 435 268 429 239 c 0,4,5
 424 209 424 209 413 175 c 0,6,7
 403 141 403 141 388 117 c 256,8,9
 373 93 373 93 349 71 c 0,10,11
 324 49 324 49 296 39 c 0,12,13
 269 29 269 29 247 29 c 0,14,15
 223 29 223 29 197 38 c 256,16,17
 171 47 171 47 151 64 c 256,18,19
 131 81 131 81 122 99 c 256,20,21
 113 117 113 117 105 146 c 256,22,23
 97 175 97 175 101 195 c 0,24,25
 107 215 107 215 118 214 c 0,26,27
 124 213 124 213 131 203 c 0,28,29
 139 192 139 192 147 163 c 0,30,31
 156 133 156 133 170 118 c 0,32,33
 185 102 185 102 207 93 c 0,34,35
 231 84 231 84 253 86 c 0,36,37
 282 88 282 88 307 107 c 0,38,39
 332 125 332 125 346 152 c 0,40,41
 359 178 359 178 368 220 c 0,42,43
 377 263 377 263 378 284 c 2,44,-1
 381 327 l 1,45,46
 345 285 345 285 320 271 c 0,47,48
 296 259 296 259 259 256 c 0,49,50
 236 254 236 254 212 257 c 0,51,52
 189 261 189 261 163 274 c 0,53,54
 139 287 139 287 119 313 c 0,55,56
 100 339 100 339 91 365 c 256,57,58
 82 391 82 391 80 425 c 0,59,60
 77 460 77 460 80 490 c 0,61,62
 85 549 85 549 108 593 c 256,63,64
 131 637 131 637 163 658 c 256,65,66
 195 679 195 679 235 683 c 0,67,68
 281 685 281 685 316 667 c 256,69,70
 351 649 351 649 373 623 c 0,71,72
 395 595 395 595 409 559 c 0,73,74
 422 523 422 523 427 485 c 0,75,76
 433 447 433 447 438 389 c 1,0,1
139 401 m 0,77,78
 147 363 147 363 168 341 c 0,79,80
 189 318 189 318 230 309 c 256,81,82
 271 300 271 300 307 322 c 0,83,84
 330 335 330 335 347 363 c 0,85,86
 363 391 363 391 369 427 c 256,87,88
 375 463 375 463 362 517 c 0,89,90
 350 563 350 563 331 587 c 0,91,92
 311 612 311 612 282 625 c 256,93,94
 253 638 253 638 224 632 c 0,95,96
 199 626 199 626 178 605 c 0,97,98
 158 585 158 585 146 547 c 0,99,100
 135 509 135 509 135 465 c 256,101,102
 135 421 135 421 139 401 c 0,77,78
EndSplineSet
EndChar
StartChar: colon
Encoding: 58 58 29
Width: 511
Flags: W
LayerCount: 2
Back
Fore
SplineSet
242 49 m 0,0,1
 256 49 256 49 270 41 c 0,2,3
 284 34 284 34 292 20 c 256,4,5
 300 6 300 6 300 -9 c 0,6,7
 300 -23 300 -23 292 -37 c 0,8,9
 285 -49 285 -49 272 -57 c 0,10,11
 260 -65 260 -65 244 -65 c 256,12,13
 228 -65 228 -65 214 -57 c 0,14,15
 202 -49 202 -49 194 -36 c 0,16,17
 187 -23 187 -23 187 -10 c 256,18,19
 187 3 187 3 192 15 c 0,20,21
 196 25 196 25 202 33 c 0,22,23
 210 41 210 41 220 45 c 0,24,25
 232 49 232 49 242 49 c 0,0,1
243 309 m 0,26,27
 257 308 257 308 271 301 c 0,28,29
 284 293 284 293 292 279 c 256,30,31
 300 265 300 265 301 250 c 0,32,33
 301 235 301 235 294 222 c 0,34,35
 286 209 286 209 273 201 c 0,36,37
 260 194 260 194 245 195 c 0,38,39
 230 195 230 195 217 202 c 256,40,41
 204 209 204 209 196 222 c 0,42,43
 190 234 190 234 189 247 c 0,44,45
 189 259 189 259 192 267 c 0,46,47
 194 281 194 281 202 290 c 256,48,49
 210 299 210 299 221 304 c 256,50,51
 232 309 232 309 243 309 c 0,26,27
EndSplineSet
EndChar
StartChar: semicolon
Encoding: 59 59 30
Width: 512
Flags: W
LayerCount: 2
Back
Fore
SplineSet
210 -151 m 1,0,-1
 202 -134 l 1,1,2
 212 -129 212 -129 223 -122 c 0,3,4
 234 -116 234 -116 247 -104 c 0,5,6
 260 -93 260 -93 271 -71 c 256,7,8
 282 -49 282 -49 280 -38 c 2,9,-1
 276 -6 l 1,10,11
 264 -13 264 -13 256 -16 c 0,12,13
 247 -19 247 -19 230 -19 c 0,14,15
 212 -19 212 -19 199 -3 c 0,16,17
 186 14 186 14 186 33 c 0,18,19
 186 51 186 51 194 65 c 0,20,21
 200 75 200 75 215 84 c 256,22,23
 230 93 230 93 247 92 c 0,24,25
 272 91 272 91 289 74 c 256,26,27
 306 57 306 57 313 37 c 0,28,29
 320 15 320 15 320 -11 c 0,30,31
 318 -39 318 -39 311 -60 c 0,32,33
 303 -82 303 -82 290 -97 c 0,34,35
 278 -111 278 -111 260 -124 c 0,36,37
 243 -137 243 -137 234 -141 c 2,38,-1
 210 -151 l 1,0,-1
247 309 m 0,39,40
 260 309 260 309 274 302 c 256,41,42
 288 295 288 295 296 281 c 256,43,44
 304 267 304 267 304 252 c 256,45,46
 304 237 304 237 296 223 c 256,47,48
 288 209 288 209 275 202 c 256,49,50
 262 195 262 195 247 195 c 0,51,52
 230 194 230 194 218 202 c 0,53,54
 204 209 204 209 198 223 c 0,55,56
 190 237 190 237 190 252 c 256,57,58
 190 267 190 267 198 281 c 0,59,60
 205 294 205 294 219 302 c 0,61,62
 232 309 232 309 247 309 c 0,39,40
EndSplineSet
EndChar
StartChar: less
Encoding: 60 60 31
Width: 781
Flags: W
LayerCount: 2
Back
Fore
SplineSet
51 335 m 1,0,-1
 726 648 l 1,1,-1
 726 597 l 1,2,-1
 105 310 l 1,3,-1
 726 23 l 1,4,-1
 726 -25 l 1,5,-1
 51 281 l 1,6,-1
 51 335 l 1,0,-1
EndSplineSet
EndChar
StartChar: greater
Encoding: 62 62 33
Width: 789
Flags: W
LayerCount: 2
Back
Fore
SplineSet
727 335 m 1,0,-1
 727 281 l 1,1,-1
 52 -27 l 1,2,-1
 52 23 l 1,3,-1
 672 309 l 1,4,-1
 52 595 l 1,5,-1
 52 647 l 1,6,-1
 727 335 l 1,0,-1
EndSplineSet
EndChar
StartChar: question
Encoding: 63 63 34
Width: 512
Flags: W
LayerCount: 2
Back
Fore
SplineSet
246 41 m 0,0,1
 240 41 240 41 236 56 c 0,2,3
 230 71 230 71 234 101 c 2,4,-1
 238 142 l 2,5,6
 240 157 240 157 248 180 c 256,7,8
 256 203 256 203 265 224 c 0,9,10
 274 244 274 244 286 265 c 2,11,-1
 314 308 l 2,12,13
 326 329 326 329 335 351 c 0,14,15
 345 375 345 375 352 401 c 0,16,17
 358 429 358 429 358 456 c 0,18,19
 356 483 356 483 347 506 c 256,20,21
 338 529 338 529 324 545 c 256,22,23
 310 561 310 561 286 568 c 0,24,25
 262 576 262 576 238 576 c 0,26,27
 227 575 227 575 208 573 c 0,28,29
 188 569 188 569 169 556 c 256,30,31
 150 543 150 543 142 515 c 0,32,33
 135 486 135 486 143 471 c 0,34,35
 148 461 148 461 162 453 c 0,36,37
 176 447 176 447 178 441 c 0,38,39
 180 437 180 437 167 421 c 256,40,41
 154 405 154 405 135 399 c 0,42,43
 115 393 115 393 103 397 c 0,44,45
 90 403 90 403 88 410 c 0,46,47
 86 412 86 412 86 433 c 2,48,-1
 78 476 l 2,49,50
 76 489 76 489 80 508 c 0,51,52
 84 522 84 522 94 543 c 0,53,54
 104 565 104 565 132 586 c 256,55,56
 160 607 160 607 193 614 c 256,57,58
 226 621 226 621 254 622 c 0,59,60
 281 622 281 622 314 613 c 256,61,62
 347 604 347 604 372 578 c 0,63,64
 398 553 398 553 410 527 c 0,65,66
 423 501 423 501 422 461 c 0,67,68
 422 441 422 441 417 418 c 256,69,70
 412 395 412 395 403 372 c 256,71,72
 394 349 394 349 382 329 c 0,73,74
 371 311 371 311 347 279 c 0,75,76
 322 247 322 247 310 226 c 0,77,78
 297 205 297 205 286 180 c 0,79,80
 276 155 276 155 270 131 c 2,81,-1
 264 95 l 2,82,83
 260 73 260 73 260 65 c 0,84,85
 260 55 260 55 256 47 c 256,86,87
 252 39 252 39 246 41 c 0,0,1
250 -38 m 0,88,89
 265 -38 265 -38 278 -45 c 0,90,91
 290 -51 290 -51 298 -65 c 256,92,93
 306 -79 306 -79 306 -94 c 256,94,95
 306 -109 306 -109 298 -121 c 0,96,97
 291 -135 291 -135 278 -142 c 0,98,99
 266 -149 266 -149 250 -149 c 0,100,101
 236 -149 236 -149 222 -142 c 0,102,103
 209 -135 209 -135 202 -122 c 0,104,105
 194 -109 194 -109 194 -93 c 0,106,107
 194 -79 194 -79 202 -65 c 0,108,109
 210 -52 210 -52 222 -45 c 0,110,111
 236 -39 236 -39 250 -38 c 0,88,89
EndSplineSet
EndChar
StartChar: at
Encoding: 64 64 35
Width: 1000
Flags: W
LayerCount: 2
Back
Fore
SplineSet
682 533 m 1,0,-1
 701 567 l 1,1,-1
 765 567 l 1,2,3
 752 527 752 527 741 492 c 0,4,5
 731 457 731 457 724 429 c 2,6,-1
 669 211 l 2,7,8
 656 163 656 163 656 145 c 0,9,10
 657 127 657 127 666 119 c 0,11,12
 676 110 676 110 699 111 c 0,13,14
 729 113 729 113 757 131 c 0,15,16
 784 149 784 149 811 185 c 0,17,18
 837 221 837 221 848 239 c 0,19,20
 859 258 859 258 871 290 c 0,21,22
 885 323 885 323 890 349 c 0,23,24
 895 376 895 376 895 422 c 0,25,26
 896 467 896 467 877 521 c 0,27,28
 861 561 861 561 824 607 c 256,29,30
 787 653 787 653 745 673 c 0,31,32
 701 693 701 693 675 701 c 0,33,34
 647 709 647 709 622 713 c 0,35,36
 596 717 596 717 563 718 c 0,37,38
 527 719 527 719 496 717 c 256,39,40
 465 715 465 715 435 709 c 256,41,42
 405 703 405 703 371 691 c 0,43,44
 337 678 337 678 301 654 c 256,45,46
 265 630 265 630 233 600 c 0,47,48
 201 571 201 571 173 528 c 256,49,50
 145 485 145 485 131 453 c 256,51,52
 117 421 117 421 109 383 c 256,53,54
 101 345 101 345 100 305 c 0,55,56
 98 264 98 264 104 228 c 0,57,58
 109 193 109 193 129 143 c 0,59,60
 147 95 147 95 185 51 c 0,61,62
 222 7 222 7 268 -21 c 0,63,64
 313 -49 313 -49 352 -64 c 256,65,66
 391 -79 391 -79 431 -84 c 0,67,68
 473 -89 473 -89 511 -89 c 0,69,70
 561 -89 561 -89 600 -82 c 0,71,72
 639 -76 639 -76 673 -66 c 256,73,74
 707 -56 707 -56 737 -39 c 0,75,76
 767 -23 767 -23 810 7 c 0,77,78
 853 38 853 38 865 51 c 2,79,-1
 890 81 l 1,80,-1
 948 81 l 1,81,82
 920 45 920 45 899 22 c 0,83,84
 877 -1 877 -1 837 -31 c 256,85,86
 797 -61 797 -61 759 -80 c 0,87,88
 719 -100 719 -100 659 -117 c 0,89,90
 598 -133 598 -133 529 -135 c 0,91,92
 492 -135 492 -135 437 -130 c 0,93,94
 383 -124 383 -124 347 -112 c 0,95,96
 310 -99 310 -99 279 -84 c 256,97,98
 248 -69 248 -69 223 -51 c 0,99,100
 199 -32 199 -32 169 -3 c 0,101,102
 138 25 138 25 119 57 c 0,103,104
 99 88 99 88 89 115 c 0,105,106
 77 141 77 141 68 177 c 256,107,108
 59 213 59 213 55 249 c 0,109,110
 52 285 52 285 53 315 c 0,111,112
 54 354 54 354 64 395 c 0,113,114
 73 436 73 436 97 486 c 256,115,116
 121 536 121 536 160 583 c 0,117,118
 198 631 198 631 236 661 c 0,119,120
 275 691 275 691 300 705 c 0,121,122
 325 717 325 717 353 728 c 256,123,124
 381 739 381 739 412 747 c 0,125,126
 443 754 443 754 482 758 c 0,127,128
 521 761 521 761 545 761 c 0,129,130
 585 761 585 761 631 752 c 256,131,132
 677 743 677 743 710 731 c 256,133,134
 743 719 743 719 781 695 c 0,135,136
 819 672 819 672 840 651 c 0,137,138
 861 629 861 629 883 599 c 256,139,140
 905 569 905 569 916 540 c 256,141,142
 927 511 927 511 933 478 c 0,143,144
 941 445 941 445 941 409 c 0,145,146
 940 375 940 375 931 328 c 0,147,148
 921 281 921 281 901 239 c 256,149,150
 881 197 881 197 856 166 c 0,151,152
 831 136 831 136 801 111 c 0,153,154
 771 85 771 85 740 71 c 0,155,156
 709 55 709 55 682 54 c 0,157,158
 657 52 657 52 635 62 c 0,159,160
 613 71 613 71 607 86 c 2,161,-1
 593 119 l 1,162,163
 568 98 568 98 535 76 c 0,164,165
 501 54 501 54 445 54 c 0,166,167
 408 53 408 53 369 70 c 0,168,169
 329 87 329 87 308 107 c 256,170,171
 287 127 287 127 271 155 c 256,172,173
 255 183 255 183 250 208 c 0,174,175
 245 232 245 232 245 261 c 0,176,177
 246 303 246 303 256 339 c 0,178,179
 265 375 265 375 276 400 c 0,180,181
 287 424 287 424 297 443 c 0,182,183
 307 461 307 461 336 495 c 0,184,185
 365 530 365 530 400 553 c 0,186,187
 436 575 436 575 473 587 c 0,188,189
 509 598 509 598 551 597 c 0,190,191
 580 597 580 597 599 590 c 0,192,193
 619 584 619 584 637 574 c 0,194,195
 655 565 655 565 660 559 c 2,196,-1
 682 533 l 1,0,-1
657 455 m 0,197,198
 655 475 655 475 644 499 c 256,199,200
 633 523 633 523 608 543 c 256,201,202
 583 563 583 563 540 565 c 0,203,204
 503 565 503 565 467 547 c 256,205,206
 431 529 431 529 402 501 c 256,207,208
 373 473 373 473 352 437 c 256,209,210
 331 401 331 401 320 361 c 256,211,212
 309 321 309 321 307 273 c 0,213,214
 305 223 305 223 315 191 c 0,215,216
 324 161 324 161 343 137 c 0,217,218
 363 113 363 113 393 99 c 0,219,220
 425 85 425 85 463 93 c 0,221,222
 497 99 497 99 523 121 c 0,223,224
 550 143 550 143 568 169 c 0,225,226
 587 195 587 195 598 221 c 256,227,228
 609 247 609 247 615 268 c 256,229,230
 621 289 621 289 636 343 c 0,231,232
 650 397 650 397 653 421 c 0,233,234
 657 445 657 445 657 455 c 0,197,198
EndSplineSet
EndChar
StartChar: A
Encoding: 65 65 36
Width: 546
Flags: W
LayerCount: 2
Back
Fore
SplineSet
349 319 m 1,0,1
 329 310 329 310 318 306 c 0,2,3
 306 303 306 303 269 298 c 256,4,5
 232 293 232 293 226 293 c 0,6,7
 197 290 197 290 177 293 c 2,8,-1
 153 295 l 1,9,10
 140 250 140 250 123 189 c 0,11,12
 107 129 107 129 99 105 c 256,13,14
 91 81 91 81 80 55 c 256,15,16
 69 29 69 29 61 29 c 0,17,18
 55 29 55 29 46 41 c 0,19,20
 38 53 38 53 33 84 c 256,21,22
 28 115 28 115 28 128 c 0,23,24
 27 141 27 141 33 157 c 0,25,26
 35 161 35 161 51 183 c 0,27,28
 66 206 66 206 76 229 c 0,29,30
 87 253 87 253 113 338 c 256,31,32
 139 423 139 423 155 475 c 0,33,34
 171 528 171 528 177 548 c 0,35,36
 184 569 184 569 201 613 c 0,37,38
 217 659 217 659 228 672 c 0,39,40
 238 685 238 685 247 687 c 0,41,42
 255 688 255 688 271 669 c 0,43,44
 281 655 281 655 293 622 c 256,45,46
 305 589 305 589 321 546 c 2,47,-1
 367 421 l 2,48,49
 407 312 407 312 416 286 c 0,50,51
 426 260 426 260 441 226 c 0,52,53
 455 193 455 193 467 177 c 2,54,-1
 491 145 l 2,55,56
 499 133 499 133 501 122 c 0,57,58
 504 110 504 110 499 85 c 0,59,60
 495 63 495 63 489 46 c 256,61,62
 483 29 483 29 478 26 c 0,63,64
 472 23 472 23 457 41 c 0,65,66
 445 55 445 55 436 82 c 2,67,-1
 414 143 l 1,68,-1
 383 232 l 1,69,-1
 349 319 l 1,0,1
344 333 m 1,70,71
 327 379 327 379 320 403 c 2,72,-1
 285 513 l 2,73,74
 275 543 275 543 269 558 c 0,75,76
 264 574 264 574 257 595 c 0,77,78
 249 615 249 615 246 616 c 256,79,80
 243 617 243 617 237 597 c 0,81,82
 230 577 230 577 222 546 c 2,83,-1
 202 471 l 2,84,85
 179 388 179 388 179 385 c 2,86,-1
 162 329 l 1,87,88
 198 333 198 333 222 337 c 0,89,90
 246 342 246 342 268 351 c 256,91,92
 290 360 290 360 301 360 c 0,93,94
 311 359 311 359 323 351 c 2,95,-1
 344 333 l 1,70,71
EndSplineSet
EndChar
StartChar: B
Encoding: 66 66 37
Width: 521
Flags: W
LayerCount: 2
Back
Fore
SplineSet
123 83 m 1,0,1
 127 151 127 151 128 178 c 256,2,3
 129 205 129 205 130 255 c 0,4,5
 131 303 131 303 133 389 c 256,6,7
 135 475 135 475 134 491 c 2,8,-1
 131 593 l 1,9,10
 101 586 101 586 89 588 c 256,11,12
 77 590 77 590 57 599 c 0,13,14
 38 609 38 609 32 621 c 0,15,16
 27 633 27 633 29 639 c 256,17,18
 31 645 31 645 53 645 c 2,19,-1
 143 652 l 1,20,-1
 227 657 l 1,21,-1
 299 661 l 2,22,23
 341 662 341 662 370 655 c 0,24,25
 399 649 399 649 417 635 c 0,26,27
 435 620 435 620 447 594 c 0,28,29
 459 567 459 567 461 530 c 256,30,31
 463 493 463 493 457 465 c 0,32,33
 451 442 451 442 440 422 c 0,34,35
 429 401 429 401 421 395 c 2,36,-1
 401 377 l 1,37,38
 423 365 423 365 440 350 c 256,39,40
 457 335 457 335 469 307 c 256,41,42
 481 279 481 279 483 244 c 256,43,44
 485 209 485 209 478 179 c 0,45,46
 470 150 470 150 453 127 c 0,47,48
 435 103 435 103 407 86 c 0,49,50
 380 69 380 69 347 60 c 0,51,52
 313 51 313 51 258 45 c 256,53,54
 203 39 203 39 171 38 c 2,55,-1
 89 35 l 2,56,57
 59 33 59 33 44 38 c 256,58,59
 29 43 29 43 28 53 c 0,60,61
 27 61 27 61 41 71 c 0,62,63
 45 75 45 75 77 79 c 2,64,-1
 123 83 l 1,0,1
186 388 m 1,65,66
 247 391 247 391 277 395 c 256,67,68
 307 399 307 399 331 406 c 256,69,70
 355 413 355 413 373 428 c 0,71,72
 390 443 390 443 400 475 c 0,73,74
 411 507 411 507 408 537 c 256,75,76
 405 567 405 567 390 584 c 256,77,78
 375 601 375 601 353 606 c 0,79,80
 330 610 330 610 287 607 c 2,81,-1
 217 603 l 1,82,-1
 186 598 l 1,83,84
 185 479 185 479 185 439 c 2,85,-1
 186 388 l 1,65,66
177 86 m 1,86,87
 213 87 213 87 236 89 c 256,88,89
 259 91 259 91 300 99 c 256,90,91
 341 107 341 107 369 121 c 256,92,93
 397 135 397 135 412 158 c 256,94,95
 427 181 427 181 431 217 c 0,96,97
 435 252 435 252 421 284 c 0,98,99
 409 311 409 311 387 327 c 256,100,101
 365 343 365 343 347 346 c 0,102,103
 328 349 328 349 302 347 c 0,104,105
 273 345 273 345 244 342 c 2,106,-1
 185 337 l 1,107,108
 186 287 186 287 186 273 c 0,109,110
 185 259 185 259 181 171 c 2,111,-1
 177 86 l 1,86,87
EndSplineSet
EndChar
StartChar: C
Encoding: 67 67 38
Width: 488
Flags: W
LayerCount: 2
Back
Fore
SplineSet
425 639 m 2,0,1
 431 646 431 646 438 644 c 0,2,3
 446 641 446 641 447 630 c 0,4,5
 449 619 449 619 446 593 c 2,6,-1
 444 547 l 1,7,-1
 439 509 l 2,8,9
 437 487 437 487 432 475 c 0,10,11
 427 464 427 464 420 463 c 0,12,13
 413 461 413 461 401 491 c 0,14,15
 391 514 391 514 378 533 c 0,16,17
 365 553 365 553 347 574 c 0,18,19
 327 596 327 596 303 609 c 0,20,21
 279 621 279 621 248 623 c 0,22,23
 213 624 213 624 186 610 c 0,24,25
 159 595 159 595 141 568 c 0,26,27
 124 541 124 541 111 499 c 0,28,29
 97 457 97 457 93 415 c 256,30,31
 89 373 89 373 93 311 c 0,32,33
 96 250 96 250 105 215 c 0,34,35
 113 180 113 180 127 155 c 0,36,37
 141 131 141 131 161 116 c 256,38,39
 181 101 181 101 211 93 c 0,40,41
 241 83 241 83 269 87 c 0,42,43
 299 89 299 89 321 103 c 256,44,45
 343 117 343 117 357 135 c 256,46,47
 371 153 371 153 382 176 c 256,48,49
 393 199 393 199 401 224 c 256,50,51
 409 249 409 249 414 267 c 0,52,53
 418 285 418 285 427 291 c 0,54,55
 435 297 435 297 443 290 c 0,56,57
 452 284 452 284 447 258 c 2,58,-1
 437 209 l 2,59,60
 429 179 429 179 413 146 c 0,61,62
 398 113 398 113 380 93 c 0,63,64
 361 73 361 73 331 57 c 256,65,66
 301 41 301 41 273 38 c 0,67,68
 237 33 237 33 196 44 c 256,69,70
 155 55 155 55 127 75 c 256,71,72
 99 95 99 95 80 125 c 256,73,74
 61 155 61 155 49 195 c 0,75,76
 38 233 38 233 33 287 c 0,77,78
 27 340 27 340 28 379 c 0,79,80
 29 417 29 417 35 460 c 0,81,82
 42 503 42 503 59 544 c 0,83,84
 77 585 77 585 110 620 c 0,85,86
 143 656 143 656 178 664 c 0,87,88
 213 671 213 671 235 671 c 0,89,90
 267 671 267 671 299 661 c 256,91,92
 331 651 331 651 354 635 c 2,93,-1
 386 611 l 2,94,95
 395 605 395 605 400 605 c 0,96,97
 407 606 407 606 415 620 c 2,98,-1
 425 639 l 2,0,1
EndSplineSet
EndChar
StartChar: D
Encoding: 68 68 39
Width: 512
Flags: W
LayerCount: 2
Back
Fore
SplineSet
93 579 m 1,0,1
 83 579 83 579 76 581 c 256,2,3
 69 583 69 583 55 593 c 0,4,5
 40 601 40 601 32 614 c 0,6,7
 24 626 24 626 28 635 c 0,8,9
 30 639 30 639 50 639 c 256,10,11
 70 639 70 639 98 643 c 0,12,13
 126 648 126 648 182 654 c 256,14,15
 238 660 238 660 250 661 c 0,16,17
 284 663 284 663 322 657 c 0,18,19
 362 652 362 652 392 634 c 0,20,21
 423 616 423 616 442 588 c 0,22,23
 460 559 460 559 470 516 c 256,24,25
 480 473 480 473 482 414 c 0,26,27
 483 356 483 356 482 318 c 0,28,29
 480 262 480 262 470 215 c 0,30,31
 461 167 461 167 439 135 c 0,32,33
 418 102 418 102 395 85 c 0,34,35
 372 69 372 69 344 58 c 256,36,37
 316 47 316 47 285 43 c 0,38,39
 253 39 253 39 212 38 c 0,40,41
 172 36 172 36 146 38 c 0,42,43
 116 40 116 40 92 46 c 0,44,45
 69 52 69 52 55 59 c 0,46,47
 40 65 40 65 37 75 c 0,48,49
 33 83 33 83 38 91 c 0,50,51
 38 93 38 93 74 91 c 2,52,-1
 96 89 l 1,53,54
 98 165 98 165 98 212 c 256,55,56
 98 259 98 259 98 296 c 2,57,-1
 96 429 l 1,58,-1
 96 513 l 1,59,-1
 93 579 l 1,0,1
148 89 m 1,60,61
 172 88 172 88 191 89 c 0,62,63
 210 89 210 89 250 94 c 256,64,65
 290 99 290 99 320 111 c 0,66,67
 352 123 352 123 373 147 c 0,68,69
 395 170 395 170 408 209 c 0,70,71
 420 249 420 249 424 280 c 256,72,73
 428 311 428 311 428 339 c 0,74,75
 427 379 427 379 422 440 c 0,76,77
 416 500 416 500 402 532 c 0,78,79
 388 565 388 565 364 581 c 256,80,81
 340 597 340 597 307 602 c 256,82,83
 274 607 274 607 242 605 c 256,84,85
 210 603 210 603 182 595 c 2,86,-1
 146 586 l 1,87,88
 148 536 148 536 148 511 c 2,89,-1
 151 428 l 2,90,91
 154 347 154 347 154 318 c 2,92,-1
 151 220 l 1,93,-1
 148 89 l 1,60,61
EndSplineSet
EndChar
StartChar: E
Encoding: 69 69 40
Width: 509
Flags: W
LayerCount: 2
Back
Fore
SplineSet
135 593 m 1,0,1
 134 514 134 514 134 499 c 2,2,-1
 132 401 l 1,3,4
 172 399 172 399 182 399 c 0,5,6
 193 400 193 400 250 403 c 0,7,8
 308 406 308 406 324 408 c 256,9,10
 340 410 340 410 360 415 c 0,11,12
 381 420 381 420 390 420 c 0,13,14
 406 419 406 419 413 415 c 256,15,16
 420 411 420 411 435 392 c 0,17,18
 451 374 451 374 450 367 c 0,19,20
 448 361 448 361 441 358 c 256,21,22
 434 355 434 355 426 357 c 0,23,24
 421 357 421 357 396 359 c 0,25,26
 372 362 372 362 348 362 c 0,27,28
 347 361 347 361 280 357 c 2,29,-1
 218 354 l 1,30,-1
 192 353 l 2,31,32
 172 351 172 351 162 350 c 256,33,34
 152 349 152 349 150 350 c 2,35,-1
 132 359 l 1,36,37
 132 305 132 305 130 267 c 0,38,39
 130 228 130 228 128 182 c 0,40,41
 126 137 126 137 125 125 c 256,42,43
 124 113 124 113 128 106 c 256,44,45
 132 99 132 99 174 109 c 0,46,47
 188 111 188 111 238 115 c 2,48,-1
 310 123 l 2,49,50
 358 127 358 127 376 130 c 256,51,52
 394 133 394 133 402 133 c 0,53,54
 414 131 414 131 424 125 c 0,55,56
 433 119 433 119 453 101 c 0,57,58
 474 83 474 83 470 75 c 0,59,60
 468 71 468 71 463 68 c 256,61,62
 458 65 458 65 450 65 c 0,63,64
 441 64 441 64 431 65 c 0,65,66
 428 65 428 65 412 66 c 256,67,68
 396 67 396 67 381 67 c 0,69,70
 359 67 359 67 318 65 c 256,71,72
 277 63 277 63 238 62 c 0,73,74
 200 61 200 61 181 59 c 256,75,76
 162 57 162 57 148 54 c 0,77,78
 135 50 135 50 118 43 c 0,79,80
 100 37 100 37 92 39 c 0,81,82
 82 41 82 41 69 54 c 256,83,84
 56 67 56 67 53 80 c 256,85,86
 50 93 50 93 53 103 c 2,87,-1
 61 121 l 2,88,89
 70 138 70 138 72 167 c 2,90,-1
 74 258 l 1,91,-1
 80 355 l 1,92,-1
 82 510 l 2,93,94
 83 555 83 555 82 565 c 2,95,-1
 80 584 l 1,96,97
 68 587 68 587 57 591 c 256,98,99
 46 595 46 595 36 610 c 0,100,101
 25 625 25 625 27 631 c 0,102,103
 28 637 28 637 48 639 c 0,104,105
 58 641 58 641 83 640 c 256,106,107
 108 639 108 639 160 642 c 0,108,109
 211 645 211 645 238 647 c 0,110,111
 266 649 266 649 306 653 c 0,112,113
 347 658 347 658 370 663 c 0,114,115
 392 669 392 669 400 669 c 0,116,117
 411 667 411 667 426 661 c 0,118,119
 442 653 442 653 455 642 c 256,120,121
 468 631 468 631 468 625 c 256,122,123
 468 619 468 619 462 615 c 256,124,125
 456 611 456 611 440 612 c 0,126,127
 425 613 425 613 400 613 c 0,128,129
 377 612 377 612 329 610 c 0,130,131
 280 608 280 608 261 607 c 0,132,133
 242 605 242 605 181 599 c 2,134,-1
 135 593 l 1,0,1
EndSplineSet
EndChar
StartChar: F
Encoding: 70 70 41
Width: 497
Flags: W
LayerCount: 2
Back
Fore
SplineSet
154 409 m 1,0,1
 188 411 188 411 204 413 c 2,2,-1
 275 423 l 2,3,4
 304 426 304 426 324 434 c 256,5,6
 344 442 344 442 345 443 c 0,7,8
 356 443 356 443 373 435 c 256,9,10
 390 427 390 427 404 415 c 0,11,12
 418 401 418 401 418 397 c 0,13,14
 416 391 416 391 402 387 c 256,15,16
 388 383 388 383 336 379 c 2,17,-1
 275 372 l 1,18,-1
 205 367 l 1,19,-1
 155 361 l 1,20,21
 154 286 154 286 155 231 c 0,22,23
 156 177 156 177 156 173 c 256,24,25
 156 169 156 169 156 149 c 0,26,27
 156 119 156 119 155 104 c 256,28,29
 154 89 154 89 148 59 c 0,30,31
 141 29 141 29 134 29 c 0,32,33
 126 28 126 28 116 39 c 0,34,35
 106 47 106 47 97 64 c 256,36,37
 88 81 88 81 84 93 c 0,38,39
 81 105 81 105 84 129 c 2,40,-1
 92 169 l 2,41,42
 96 197 96 197 98 240 c 2,43,-1
 101 379 l 2,44,45
 104 496 104 496 104 507 c 2,46,-1
 96 589 l 1,47,48
 82 581 82 581 75 582 c 256,49,50
 68 583 68 583 53 593 c 0,51,52
 38 604 38 604 33 615 c 0,53,54
 28 627 28 627 32 633 c 0,55,56
 34 638 34 638 56 636 c 0,57,58
 76 633 76 633 104 635 c 0,59,60
 178 641 178 641 194 643 c 2,61,-1
 260 650 l 1,62,-1
 328 657 l 2,63,64
 358 661 358 661 378 667 c 0,65,66
 397 674 397 674 404 674 c 0,67,68
 417 673 417 673 431 664 c 0,69,70
 444 654 444 654 456 639 c 0,71,72
 467 623 467 623 463 616 c 0,73,74
 460 609 460 609 436 609 c 2,75,-1
 384 614 l 2,76,77
 370 615 370 615 334 611 c 0,78,79
 297 607 297 607 252 605 c 0,80,81
 207 602 207 602 192 601 c 2,82,-1
 157 597 l 1,83,84
 164 589 164 589 168 584 c 256,85,86
 172 579 172 579 174 571 c 256,87,88
 176 563 176 563 170 543 c 0,89,90
 165 521 165 521 162 483 c 2,91,-1
 156 437 l 1,92,-1
 154 409 l 1,0,1
EndSplineSet
EndChar
StartChar: G
Encoding: 71 71 42
Width: 573
Flags: W
LayerCount: 2
Back
Fore
SplineSet
393 323 m 1,0,1
 375 319 375 319 355 311 c 0,2,3
 335 304 335 304 327 306 c 0,4,5
 319 307 319 307 307 317 c 0,6,7
 297 325 297 325 288 337 c 0,8,9
 279 347 279 347 283 353 c 0,10,11
 285 357 285 357 300 358 c 2,12,-1
 327 358 l 2,13,14
 337 358 337 358 381 367 c 2,15,-1
 443 379 l 2,16,17
 477 387 477 387 490 385 c 0,18,19
 501 384 501 384 510 379 c 0,20,21
 519 375 519 375 530 361 c 256,22,23
 541 347 541 347 539 342 c 256,24,25
 537 337 537 337 517 337 c 2,26,-1
 485 337 l 1,27,-1
 448 331 l 1,28,29
 447 293 447 293 447 275 c 2,30,-1
 447 219 l 2,31,32
 447 180 447 180 451 164 c 2,33,-1
 463 111 l 2,34,35
 462 101 462 101 458 88 c 0,36,37
 455 75 455 75 447 53 c 0,38,39
 440 31 440 31 430 31 c 0,40,41
 420 30 420 30 411 48 c 0,42,43
 403 65 403 65 402 91 c 2,44,-1
 397 191 l 1,45,46
 387 146 387 146 375 118 c 0,47,48
 363 89 363 89 338 68 c 256,49,50
 313 47 313 47 277 41 c 256,51,52
 241 35 241 35 204 45 c 256,53,54
 167 55 167 55 133 77 c 256,55,56
 99 99 99 99 77 131 c 256,57,58
 55 163 55 163 43 209 c 256,59,60
 31 255 31 255 29 293 c 0,61,62
 26 331 26 331 27 372 c 0,63,64
 27 422 27 422 33 463 c 0,65,66
 39 503 39 503 57 545 c 256,67,68
 75 587 75 587 108 622 c 256,69,70
 141 657 141 657 175 665 c 256,71,72
 209 673 209 673 233 673 c 0,73,74
 253 673 253 673 281 669 c 0,75,76
 308 665 308 665 331 645 c 0,77,78
 353 625 353 625 361 625 c 0,79,80
 367 625 367 625 373 627 c 2,81,-1
 387 642 l 2,82,83
 400 653 400 653 408 649 c 0,84,85
 415 646 415 646 419 633 c 0,86,87
 421 620 421 620 417 581 c 2,88,-1
 412 545 l 2,89,90
 410 537 410 537 405 521 c 256,91,92
 400 505 400 505 393 501 c 0,93,94
 387 495 387 495 378 499 c 0,95,96
 371 502 371 502 365 523 c 256,97,98
 359 544 359 544 348 563 c 0,99,100
 336 582 336 582 321 595 c 0,101,102
 305 608 305 608 283 617 c 256,103,104
 261 626 261 626 244 627 c 0,105,106
 212 629 212 629 183 613 c 0,107,108
 155 597 155 597 137 570 c 256,109,110
 119 543 119 543 105 503 c 0,111,112
 92 463 92 463 87 420 c 0,113,114
 83 376 83 376 84 333 c 0,115,116
 85 281 85 281 95 242 c 256,117,118
 105 203 105 203 122 173 c 256,119,120
 139 143 139 143 164 124 c 0,121,122
 188 105 188 105 219 99 c 0,123,124
 249 93 249 93 274 99 c 0,125,126
 303 105 303 105 320 123 c 256,127,128
 337 141 337 141 354 181 c 256,129,130
 371 221 371 221 378 255 c 2,131,-1
 393 323 l 1,0,1
EndSplineSet
EndChar
StartChar: H
Encoding: 72 72 43
Width: 494
Flags: W
LayerCount: 2
Back
Fore
SplineSet
367 366 m 1,0,1
 359 367 359 367 352 367 c 0,2,3
 346 367 346 367 338 368 c 0,4,5
 316 369 316 369 287 367 c 256,6,7
 258 365 258 365 232 363 c 256,8,9
 206 361 206 361 189 358 c 256,10,11
 172 355 172 355 154 349 c 256,12,13
 136 343 136 343 134 345 c 2,14,-1
 106 359 l 1,15,16
 104 317 104 317 104 266 c 0,17,18
 103 215 103 215 104 179 c 0,19,20
 104 163 104 163 104 137 c 0,21,22
 104 112 104 112 104 101 c 0,23,24
 104 85 104 85 100 57 c 256,25,26
 96 29 96 29 89 26 c 256,27,28
 82 23 82 23 72 29 c 0,29,30
 60 34 60 34 52 45 c 0,31,32
 44 57 44 57 36 71 c 0,33,34
 28 86 28 86 27 96 c 0,35,36
 27 105 27 105 37 135 c 0,37,38
 44 155 44 155 47 193 c 256,39,40
 50 231 50 231 51 321 c 0,41,42
 52 410 52 410 52 469 c 0,43,44
 54 527 54 527 52 555 c 0,45,46
 50 587 50 587 46 609 c 256,47,48
 42 631 42 631 34 645 c 256,49,50
 26 659 26 659 26 666 c 256,51,52
 26 673 26 673 30 678 c 256,53,54
 34 683 34 683 54 680 c 0,55,56
 72 677 72 677 86 672 c 256,57,58
 100 667 100 667 110 659 c 0,59,60
 120 649 120 649 122 642 c 0,61,62
 123 638 123 638 115 616 c 0,63,64
 106 594 106 594 108 557 c 2,65,-1
 106 477 l 1,66,-1
 106 399 l 1,67,68
 124 399 124 399 136 401 c 0,69,70
 148 401 148 401 201 408 c 256,71,72
 254 415 254 415 273 417 c 0,73,74
 292 420 292 420 316 426 c 256,75,76
 340 432 340 432 344 429 c 2,77,-1
 369 417 l 1,78,79
 368 499 368 499 369 540 c 0,80,81
 369 581 369 581 369 596 c 0,82,83
 368 619 368 619 366 628 c 0,84,85
 362 637 362 637 354 651 c 0,86,87
 344 665 344 665 346 672 c 256,88,89
 348 679 348 679 358 682 c 256,90,91
 368 685 368 685 386 678 c 0,92,93
 388 677 388 677 408 669 c 256,94,95
 428 661 428 661 439 651 c 0,96,97
 450 643 450 643 451 634 c 256,98,99
 452 625 452 625 442 605 c 0,100,101
 433 589 433 589 430 569 c 0,102,103
 426 549 426 549 423 507 c 0,104,105
 420 467 420 467 422 364 c 0,106,107
 422 282 422 282 424 233 c 2,108,-1
 428 120 l 2,109,110
 430 65 430 65 430 45 c 0,111,112
 432 24 432 24 426 21 c 0,113,114
 420 19 420 19 406 26 c 0,115,116
 384 37 384 37 370 59 c 0,117,118
 356 80 356 80 354 91 c 256,119,120
 352 102 352 102 360 139 c 0,121,122
 364 157 364 157 365 186 c 0,123,124
 366 216 366 216 367 301 c 2,125,-1
 367 366 l 1,0,1
EndSplineSet
EndChar
StartChar: I
Encoding: 73 73 44
Width: 188
Flags: W
LayerCount: 2
Back
Fore
SplineSet
49 670 m 1,0,-1
 62 681 l 1,1,-1
 92 675 l 1,2,-1
 117 665 l 1,3,-1
 146 645 l 1,4,-1
 154 630 l 1,5,-1
 144 604 l 1,6,-1
 136 563 l 1,7,-1
 133 519 l 2,8,9
 130 479 130 479 130 327 c 2,10,-1
 130 183 l 2,11,12
 130 159 130 159 130 151 c 2,13,-1
 128 105 l 2,14,15
 128 71 128 71 122 46 c 256,16,17
 116 21 116 21 105 22 c 0,18,19
 98 22 98 22 79 55 c 0,20,21
 60 87 60 87 54 102 c 0,22,23
 49 116 49 116 50 129 c 0,24,25
 50 135 50 135 56 153 c 0,26,27
 62 172 62 172 67 213 c 0,28,29
 73 253 73 253 74 346 c 0,30,31
 75 389 75 389 74 449 c 0,32,33
 74 508 74 508 75 531 c 2,34,-1
 76 587 l 1,35,-1
 68 627 l 1,36,-1
 56 649 l 1,37,-1
 49 670 l 1,0,-1
EndSplineSet
EndChar
StartChar: J
Encoding: 74 74 45
Width: 409
Flags: W
LayerCount: 2
Back
Fore
SplineSet
268 677 m 0,0,1
 269 682 269 682 280 686 c 0,2,3
 290 689 290 689 310 682 c 0,4,5
 326 676 326 676 342 669 c 0,6,7
 359 662 359 662 366 655 c 0,8,9
 372 648 372 648 372 643 c 0,10,11
 373 639 373 639 364 612 c 0,12,13
 361 605 361 605 359 588 c 2,14,-1
 354 549 l 2,15,16
 352 531 352 531 352 481 c 2,17,-1
 349 307 l 2,18,19
 348 213 348 213 346 183 c 256,20,21
 344 153 344 153 333 124 c 256,22,23
 322 95 322 95 300 75 c 256,24,25
 278 55 278 55 236 43 c 0,26,27
 194 33 194 33 151 40 c 0,28,29
 118 45 118 45 94 61 c 0,30,31
 70 76 70 76 56 98 c 0,32,33
 44 119 44 119 40 153 c 2,34,-1
 35 221 l 2,35,36
 28 267 28 267 34 287 c 256,37,38
 40 307 40 307 50 305 c 0,39,40
 55 305 55 305 61 295 c 0,41,42
 68 287 68 287 69 265 c 2,43,-1
 74 211 l 2,44,45
 77 163 77 163 87 139 c 0,46,47
 96 115 96 115 122 101 c 256,48,49
 148 87 148 87 192 91 c 0,50,51
 216 92 216 92 240 101 c 0,52,53
 264 111 264 111 278 139 c 0,54,55
 292 168 292 168 294 209 c 0,56,57
 294 225 294 225 294 269 c 0,58,59
 293 313 293 313 293 357 c 0,60,61
 294 400 294 400 294 476 c 0,62,63
 295 551 295 551 294 583 c 0,64,65
 292 614 292 614 288 625 c 0,66,67
 284 637 284 637 276 656 c 0,68,69
 268 676 268 676 268 677 c 0,0,1
EndSplineSet
EndChar
StartChar: K
Encoding: 75 75 46
Width: 553
Flags: W
LayerCount: 2
Back
Fore
SplineSet
106 395 m 1,0,1
 141 423 141 423 158 438 c 2,2,-1
 225 497 l 2,3,4
 263 529 263 529 275 543 c 0,5,6
 288 556 288 556 309 581 c 0,7,8
 329 605 329 605 338 618 c 256,9,10
 347 631 347 631 353 651 c 256,11,12
 359 671 359 671 362 674 c 256,13,14
 365 677 365 677 369 679 c 256,15,16
 373 681 373 681 381 675 c 0,17,18
 387 671 387 671 394 660 c 0,19,20
 400 649 400 649 411 623 c 0,21,22
 421 598 421 598 418 585 c 0,23,24
 415 573 415 573 409 568 c 256,25,26
 403 563 403 563 385 557 c 0,27,28
 367 549 367 549 345 530 c 256,29,30
 323 511 323 511 301 493 c 256,31,32
 279 475 279 475 275 471 c 2,33,-1
 249 447 l 1,34,35
 268 399 268 399 279 372 c 0,36,37
 290 346 290 346 322 275 c 0,38,39
 354 205 354 205 372 172 c 256,40,41
 390 139 390 139 408 123 c 0,42,43
 425 107 425 107 448 97 c 256,44,45
 471 87 471 87 495 79 c 0,46,47
 520 71 520 71 521 65 c 0,48,49
 521 58 521 58 511 51 c 0,50,51
 504 45 504 45 487 46 c 0,52,53
 471 46 471 46 442 43 c 0,54,55
 413 39 413 39 393 41 c 0,56,57
 368 43 368 43 355 53 c 0,58,59
 342 62 342 62 331 86 c 0,60,61
 319 110 319 110 304 161 c 256,62,63
 289 212 289 212 278 242 c 0,64,65
 268 271 268 271 247 328 c 2,66,-1
 213 421 l 1,67,68
 173 392 173 392 167 387 c 2,69,-1
 105 345 l 1,70,71
 105 319 105 319 105 306 c 2,72,-1
 105 285 l 1,73,-1
 103 161 l 1,74,-1
 104 133 l 2,75,76
 104 110 104 110 103 92 c 0,77,78
 101 84 101 84 98 57 c 0,79,80
 94 30 94 30 89 26 c 0,81,82
 83 23 83 23 78 21 c 0,83,84
 73 21 73 21 61 39 c 0,85,86
 43 65 43 65 37 77 c 256,87,88
 31 89 31 89 30 100 c 256,89,90
 29 111 29 111 39 138 c 0,91,92
 48 166 48 166 51 192 c 0,93,94
 53 217 53 217 53 273 c 0,95,96
 53 328 53 328 53 391 c 256,97,98
 53 454 53 454 54 485 c 256,99,100
 55 516 55 516 55 529 c 2,101,-1
 52 570 l 1,102,-1
 51 599 l 2,103,104
 49 617 49 617 45 627 c 256,105,106
 41 637 41 637 33 650 c 256,107,108
 25 663 25 663 26 669 c 0,109,110
 28 675 28 675 39 679 c 0,111,112
 48 681 48 681 72 672 c 256,113,114
 96 663 96 663 103 659 c 0,115,116
 111 655 111 655 117 647 c 0,117,118
 125 639 125 639 126 633 c 256,119,120
 127 627 127 627 117 601 c 0,121,122
 109 584 109 584 109 557 c 0,123,124
 109 531 109 531 109 514 c 2,125,-1
 107 466 l 1,126,-1
 107 419 l 1,127,-1
 106 395 l 1,0,1
EndSplineSet
EndChar
StartChar: L
Encoding: 76 76 47
Width: 471
Flags: W
LayerCount: 2
Back
Fore
SplineSet
30 670 m 0,0,1
 31 675 31 675 41 679 c 256,2,3
 51 683 51 683 73 675 c 0,4,5
 99 665 99 665 109 660 c 0,6,7
 119 656 119 656 125 649 c 0,8,9
 131 641 131 641 132 634 c 256,10,11
 133 627 133 627 125 605 c 0,12,13
 115 584 115 584 111 552 c 0,14,15
 107 521 107 521 107 429 c 2,16,-1
 106 299 l 2,17,18
 105 205 105 205 103 172 c 256,19,20
 101 139 101 139 103 125 c 0,21,22
 104 107 104 107 111 99 c 0,23,24
 118 92 118 92 145 93 c 0,25,26
 171 95 171 95 213 103 c 0,27,28
 257 113 257 113 277 116 c 256,29,30
 297 119 297 119 316 120 c 256,31,32
 335 121 335 121 354 120 c 0,33,34
 375 119 375 119 385 115 c 0,35,36
 395 112 395 112 414 95 c 0,37,38
 434 78 434 78 433 70 c 0,39,40
 433 63 433 63 427 57 c 0,41,42
 421 53 421 53 403 55 c 0,43,44
 381 57 381 57 343 59 c 0,45,46
 304 61 304 61 283 60 c 0,47,48
 269 59 269 59 198 51 c 256,49,50
 127 43 127 43 101 38 c 256,51,52
 75 33 75 33 58 36 c 256,53,54
 41 39 41 39 34 50 c 256,55,56
 27 61 27 61 33 84 c 2,57,-1
 43 118 l 2,58,59
 47 135 47 135 47 160 c 0,60,61
 48 185 48 185 50 250 c 0,62,63
 53 315 53 315 53 369 c 2,64,-1
 53 481 l 2,65,66
 55 559 55 559 53 581 c 0,67,68
 51 610 51 610 48 621 c 0,69,70
 45 633 45 633 37 651 c 0,71,72
 30 669 30 669 30 670 c 0,0,1
EndSplineSet
EndChar
StartChar: M
Encoding: 77 77 48
Width: 614
Flags: W
LayerCount: 2
Back
Fore
SplineSet
127 571 m 1,0,1
 122 515 122 515 121 488 c 0,2,3
 119 461 119 461 117 398 c 256,4,5
 115 335 115 335 113 297 c 2,6,-1
 106 199 l 2,7,8
 103 159 103 159 101 119 c 256,9,10
 99 79 99 79 96 55 c 256,11,12
 93 31 93 31 85 27 c 0,13,14
 76 23 76 23 55 47 c 0,15,16
 43 59 43 59 35 78 c 0,17,18
 26 97 26 97 27 112 c 0,19,20
 27 119 27 119 36 143 c 256,21,22
 45 167 45 167 50 195 c 256,23,24
 55 223 55 223 57 259 c 2,25,-1
 63 341 l 1,26,-1
 69 447 l 1,27,-1
 75 539 l 2,28,29
 80 609 80 609 80 631 c 0,30,31
 79 653 79 653 89 668 c 0,32,33
 99 682 99 682 115 680 c 0,34,35
 127 678 127 678 140 655 c 0,36,37
 152 631 152 631 167 587 c 0,38,39
 183 543 183 543 197 505 c 2,40,-1
 231 412 l 2,41,42
 239 390 239 390 260 329 c 0,43,44
 281 267 281 267 291 232 c 256,45,46
 301 197 301 197 309 197 c 0,47,48
 315 197 315 197 333 251 c 256,49,50
 351 305 351 305 362 337 c 2,51,-1
 395 441 l 2,52,53
 414 503 414 503 425 535 c 0,54,55
 437 567 437 567 455 614 c 0,56,57
 472 661 472 661 485 673 c 0,58,59
 498 684 498 684 509 682 c 0,60,61
 519 679 519 679 527 663 c 256,62,63
 535 647 535 647 536 627 c 256,64,65
 537 607 537 607 542 509 c 2,66,-1
 545 429 l 2,67,68
 545 421 545 421 552 324 c 256,69,70
 559 227 559 227 561 199 c 0,71,72
 564 170 564 170 573 145 c 0,73,74
 581 121 581 121 581 112 c 0,75,76
 582 103 582 103 577 88 c 0,77,78
 571 69 571 69 557 47 c 256,79,80
 543 25 543 25 537 25 c 0,81,82
 526 25 526 25 521 49 c 0,83,84
 515 73 515 73 514 116 c 2,85,-1
 505 205 l 1,86,-1
 499 315 l 2,87,88
 489 444 489 444 491 511 c 0,89,90
 494 577 494 577 490 573 c 0,91,92
 486 570 486 570 475 537 c 0,93,94
 465 504 465 504 446 445 c 2,95,-1
 414 347 l 2,96,97
 413 343 413 343 382 256 c 0,98,99
 352 168 352 168 343 141 c 0,100,101
 335 113 335 113 326 92 c 256,102,103
 317 71 317 71 309 71 c 0,104,105
 300 71 300 71 291 89 c 0,106,107
 281 106 281 106 271 137 c 0,108,109
 261 169 261 169 250 203 c 0,110,111
 239 236 239 236 203 347 c 256,112,113
 167 458 167 458 147 513 c 0,114,115
 127 569 127 569 127 571 c 1,0,1
EndSplineSet
EndChar
StartChar: N
Encoding: 78 78 49
Width: 509
Flags: W
LayerCount: 2
Back
Fore
SplineSet
113 573 m 1,0,1
 116 491 116 491 116 459 c 0,2,3
 115 427 115 427 113 356 c 0,4,5
 111 284 111 284 109 214 c 0,6,7
 108 143 108 143 105 116 c 0,8,9
 103 88 103 88 99 67 c 0,10,11
 95 47 95 47 90 37 c 0,12,13
 85 26 85 26 81 23 c 0,14,15
 76 21 76 21 62 41 c 0,16,17
 43 67 43 67 36 97 c 0,18,19
 28 125 28 125 29 135 c 0,20,21
 29 141 29 141 39 163 c 256,22,23
 49 185 49 185 52 201 c 0,24,25
 55 216 55 216 54 253 c 0,26,27
 54 291 54 291 58 361 c 0,28,29
 60 403 60 403 60 471 c 0,30,31
 61 539 61 539 63 581 c 0,32,33
 66 625 66 625 66 641 c 0,34,35
 67 657 67 657 75 669 c 0,36,37
 84 680 84 680 98 679 c 0,38,39
 109 678 109 678 126 654 c 256,40,41
 143 630 143 630 177 565 c 2,42,-1
 235 454 l 2,43,44
 302 325 302 325 310 313 c 2,45,-1
 359 227 l 1,46,-1
 395 159 l 1,47,48
 393 258 393 258 392 334 c 0,49,50
 391 409 391 409 391 467 c 256,51,52
 391 525 391 525 391 532 c 0,53,54
 390 570 390 570 387 599 c 0,55,56
 385 627 385 627 381 638 c 2,57,-1
 369 666 l 2,58,59
 369 670 369 670 369 673 c 0,60,61
 370 675 370 675 375 679 c 256,62,63
 380 683 380 683 397 680 c 0,64,65
 412 677 412 677 433 669 c 0,66,67
 453 661 453 661 462 651 c 256,68,69
 471 641 471 641 472 637 c 2,70,-1
 474 629 l 2,71,72
 474 625 474 625 473 619 c 0,73,74
 471 617 471 617 465 600 c 256,75,76
 459 583 459 583 455 563 c 256,77,78
 451 543 451 543 449 501 c 0,79,80
 447 460 447 460 446 439 c 0,81,82
 445 419 445 419 445 336 c 0,83,84
 445 254 445 254 444 187 c 0,85,86
 443 119 443 119 444 90 c 256,87,88
 445 61 445 61 436 43 c 256,89,90
 427 25 427 25 418 24 c 0,91,92
 408 23 408 23 392 54 c 2,93,-1
 364 105 l 2,94,95
 355 121 355 121 316 197 c 0,96,97
 277 272 277 272 225 369 c 2,98,-1
 167 473 l 1,99,-1
 113 573 l 1,0,1
EndSplineSet
EndChar
StartChar: O
Encoding: 79 79 50
Width: 484
Flags: W
LayerCount: 2
Back
Fore
SplineSet
237 671 m 0,0,1
 282 673 282 673 318 650 c 0,2,3
 355 627 355 627 378 591 c 0,4,5
 402 555 402 555 423 496 c 256,6,7
 444 437 444 437 444 355 c 256,8,9
 444 273 444 273 417 198 c 0,10,11
 389 123 389 123 340 81 c 0,12,13
 291 40 291 40 237 41 c 0,14,15
 182 41 182 41 134 82 c 0,16,17
 84 123 84 123 57 197 c 0,18,19
 30 272 30 272 30 355 c 0,20,21
 30 437 30 437 58 515 c 0,22,23
 86 594 86 594 136 631 c 0,24,25
 186 667 186 667 237 671 c 0,0,1
237 633 m 256,26,27
 206 633 206 633 168 600 c 256,28,29
 130 567 130 567 110 499 c 0,30,31
 90 430 90 430 89 360 c 0,32,33
 89 291 89 291 110 224 c 0,34,35
 122 180 122 180 144 147 c 0,36,37
 166 113 166 113 191 99 c 0,38,39
 217 85 217 85 246 85 c 0,40,41
 274 85 274 85 310 122 c 0,42,43
 345 157 345 157 365 223 c 0,44,45
 384 288 384 288 384 358 c 0,46,47
 384 425 384 425 364 496 c 256,48,49
 344 567 344 567 306 600 c 256,50,51
 268 633 268 633 237 633 c 256,26,27
EndSplineSet
EndChar
StartChar: P
Encoding: 80 80 51
Width: 464
Flags: W
LayerCount: 2
Back
Fore
SplineSet
139 301 m 1,0,1
 139 201 139 201 142 158 c 256,2,3
 145 115 145 115 145 103 c 2,4,-1
 140 50 l 2,5,6
 138 25 138 25 133 21 c 256,7,8
 128 17 128 17 121 15 c 0,9,10
 115 13 115 13 99 33 c 0,11,12
 81 54 81 54 75 67 c 0,13,14
 67 81 67 81 66 93 c 256,15,16
 65 105 65 105 71 135 c 0,17,18
 78 166 78 166 80 191 c 0,19,20
 81 217 81 217 81 361 c 2,21,-1
 81 434 l 1,22,-1
 78 525 l 1,23,-1
 77 588 l 1,24,25
 65 593 65 593 55 598 c 256,26,27
 45 603 45 603 33 619 c 0,28,29
 21 634 21 634 24 641 c 0,30,31
 27 647 27 647 53 648 c 256,32,33
 79 649 79 649 129 653 c 256,34,35
 179 657 179 657 213 659 c 0,36,37
 248 659 248 659 283 657 c 0,38,39
 317 656 317 656 335 650 c 0,40,41
 353 645 353 645 372 629 c 0,42,43
 391 614 391 614 406 585 c 0,44,45
 421 557 421 557 425 525 c 256,46,47
 429 493 429 493 423 453 c 0,48,49
 415 411 415 411 399 386 c 256,50,51
 383 361 383 361 357 341 c 0,52,53
 331 323 331 323 302 313 c 0,54,55
 273 305 273 305 233 301 c 256,56,57
 193 297 193 297 179 299 c 2,58,-1
 139 301 l 1,0,1
138 347 m 1,59,60
 168 347 168 347 193 347 c 0,61,62
 217 348 217 348 252 356 c 0,63,64
 287 363 287 363 311 383 c 256,65,66
 335 403 335 403 349 435 c 0,67,68
 363 465 363 465 360 506 c 0,69,70
 358 530 358 530 348 553 c 0,71,72
 339 575 339 575 317 592 c 256,73,74
 295 609 295 609 254 613 c 0,75,76
 215 615 215 615 181 607 c 2,77,-1
 138 598 l 1,78,79
 137 545 137 545 137 519 c 2,80,-1
 139 441 l 1,81,-1
 138 347 l 1,59,60
EndSplineSet
EndChar
StartChar: Q
Encoding: 81 81 52
Width: 512
Flags: W
LayerCount: 2
Back
Fore
SplineSet
292 55 m 1,0,1
 276 50 276 50 263 47 c 0,2,3
 250 43 250 43 216 43 c 0,4,5
 183 42 183 42 132 85 c 0,6,7
 84 125 84 125 56 194 c 256,8,9
 28 263 28 263 28 353 c 0,10,11
 28 439 28 439 56 515 c 0,12,13
 84 590 84 590 132 631 c 0,14,15
 181 671 181 671 238 674 c 0,16,17
 288 675 288 675 322 652 c 256,18,19
 356 629 356 629 378 596 c 256,20,21
 400 563 400 563 415 527 c 256,22,23
 430 491 430 491 437 445 c 256,24,25
 444 399 444 399 446 345 c 0,26,27
 446 292 446 292 436 243 c 0,28,29
 428 205 428 205 408 162 c 0,30,31
 389 119 389 119 372 102 c 2,32,-1
 342 71 l 1,33,34
 344 37 344 37 344 15 c 0,35,36
 343 -7 343 -7 345 -21 c 256,37,38
 347 -35 347 -35 362 -48 c 0,39,40
 376 -61 376 -61 392 -57 c 0,41,42
 403 -55 403 -55 413 -41 c 0,43,44
 424 -27 424 -27 431 7 c 256,45,46
 438 41 438 41 448 41 c 0,47,48
 457 41 457 41 464 35 c 0,49,50
 470 29 470 29 470 9 c 0,51,52
 470 -21 470 -21 462 -42 c 256,53,54
 454 -63 454 -63 440 -76 c 0,55,56
 428 -89 428 -89 409 -97 c 256,57,58
 390 -105 390 -105 368 -101 c 0,59,60
 340 -98 340 -98 324 -81 c 256,61,62
 308 -64 308 -64 302 -42 c 0,63,64
 296 -19 296 -19 296 -9 c 2,65,-1
 292 55 l 1,0,1
150 133 m 1,66,67
 154 163 154 163 159 180 c 0,68,69
 164 196 164 196 172 208 c 256,70,71
 180 220 180 220 194 230 c 0,72,73
 208 241 208 241 222 244 c 0,74,75
 243 249 243 249 276 234 c 0,76,77
 310 219 310 219 319 190 c 2,78,-1
 340 135 l 1,79,80
 358 182 358 182 371 225 c 0,81,82
 384 269 384 269 383 355 c 0,83,84
 382 437 382 437 364 497 c 0,85,86
 346 558 346 558 312 593 c 0,87,88
 278 629 278 629 241 630 c 256,89,90
 204 631 204 631 166 593 c 0,91,92
 129 558 129 558 109 495 c 0,93,94
 89 433 89 433 88 360 c 0,95,96
 86 259 86 259 108 220 c 2,97,-1
 150 133 l 1,66,67
182 107 m 1,98,99
 193 96 193 96 213 83 c 0,100,101
 232 70 232 70 260 83 c 2,102,-1
 291 95 l 1,103,104
 290 109 290 109 282 153 c 0,105,106
 275 197 275 197 237 196 c 0,107,108
 200 195 200 195 197 165 c 1,109,-1
 182 107 l 1,98,99
EndSplineSet
EndChar
StartChar: R
Encoding: 82 82 53
Width: 570
Flags: W
LayerCount: 2
Back
Fore
SplineSet
323 357 m 1,0,1
 338 345 338 345 350 334 c 0,2,3
 363 323 363 323 371 303 c 0,4,5
 381 282 381 282 381 260 c 0,6,7
 381 237 381 237 379 209 c 0,8,9
 377 183 377 183 371 157 c 0,10,11
 365 129 365 129 369 115 c 256,12,13
 373 101 373 101 386 93 c 256,14,15
 399 85 399 85 427 86 c 0,16,17
 458 87 458 87 473 98 c 0,18,19
 487 108 487 108 497 132 c 256,20,21
 507 156 507 156 509 187 c 0,22,23
 510 218 510 218 515 235 c 0,24,25
 521 251 521 251 527 251 c 0,26,27
 533 249 533 249 539 239 c 0,28,29
 545 228 545 228 543 199 c 2,30,-1
 541 147 l 2,31,32
 538 115 538 115 528 92 c 0,33,34
 517 68 517 68 501 55 c 0,35,36
 484 43 484 43 462 38 c 0,37,38
 441 34 441 34 408 38 c 0,39,40
 375 41 375 41 357 51 c 256,41,42
 339 61 339 61 331 75 c 256,43,44
 323 89 323 89 321 109 c 256,45,46
 319 129 319 129 324 170 c 256,47,48
 329 211 329 211 331 240 c 0,49,50
 331 268 331 268 320 291 c 0,51,52
 307 316 307 316 291 323 c 2,53,-1
 251 342 l 1,54,55
 213 339 213 339 205 339 c 2,56,-1
 171 337 l 1,57,58
 170 293 170 293 169 247 c 0,59,60
 167 201 167 201 168 165 c 0,61,62
 169 130 169 130 169 117 c 0,63,64
 169 105 169 105 167 87 c 0,65,66
 166 75 166 75 163 51 c 0,67,68
 159 27 159 27 153 23 c 0,69,70
 148 19 148 19 142 17 c 0,71,72
 136 16 136 16 121 37 c 0,73,74
 108 55 108 55 104 64 c 0,75,76
 100 74 100 74 100 82 c 0,77,78
 99 90 99 90 107 119 c 0,79,80
 110 137 110 137 111 177 c 0,81,82
 113 217 113 217 113 239 c 2,83,-1
 115 451 l 2,84,85
 115 477 115 477 115 488 c 2,86,-1
 113 515 l 2,87,88
 112 563 112 563 111 567 c 2,89,-1
 107 595 l 1,90,91
 83 589 83 589 70 591 c 256,92,93
 57 593 57 593 46 603 c 256,94,95
 35 613 35 613 29 623 c 256,96,97
 23 633 23 633 24 637 c 0,98,99
 25 639 25 639 28 642 c 256,100,101
 31 645 31 645 49 644 c 256,102,103
 67 643 67 643 93 646 c 256,104,105
 119 649 119 649 153 651 c 2,106,-1
 239 657 l 2,107,108
 286 661 286 661 307 661 c 0,109,110
 347 661 347 661 376 653 c 256,111,112
 405 645 405 645 427 625 c 256,113,114
 449 605 449 605 458 571 c 256,115,116
 467 537 467 537 464 501 c 0,117,118
 461 469 461 469 449 445 c 0,119,120
 437 422 437 422 412 400 c 0,121,122
 387 377 387 377 367 371 c 2,123,-1
 323 357 l 1,0,1
171 391 m 1,124,125
 203 391 203 391 227 393 c 0,126,127
 249 395 249 395 280 401 c 0,128,129
 310 407 310 407 335 418 c 0,130,131
 359 429 359 429 377 451 c 256,132,133
 395 473 395 473 400 505 c 0,134,135
 405 538 405 538 396 561 c 0,136,137
 385 587 385 587 366 598 c 256,138,139
 347 609 347 609 305 609 c 0,140,141
 239 609 239 609 225 608 c 2,142,-1
 167 603 l 1,143,144
 173 577 173 577 174 563 c 0,145,146
 175 550 175 550 173 513 c 0,147,148
 171 475 171 475 171 433 c 2,149,-1
 171 391 l 1,124,125
EndSplineSet
EndChar
StartChar: S
Encoding: 83 83 54
Width: 436
Flags: W
LayerCount: 2
Back
Fore
SplineSet
251 92 m 0,0,1
 292 97 292 97 314 121 c 0,2,3
 336 143 336 143 342 182 c 256,4,5
 348 221 348 221 340 247 c 0,6,7
 332 274 332 274 308 295 c 0,8,9
 285 317 285 317 258 329 c 0,10,11
 230 341 230 341 186 359 c 0,12,13
 142 376 142 376 116 391 c 0,14,15
 89 406 89 406 69 427 c 0,16,17
 50 447 50 447 39 481 c 0,18,19
 28 514 28 514 44 561 c 0,20,21
 55 595 55 595 80 620 c 0,22,23
 106 645 106 645 132 655 c 0,24,25
 159 665 159 665 190 667 c 0,26,27
 222 669 222 669 246 663 c 256,28,29
 270 657 270 657 289 649 c 0,30,31
 308 640 308 640 322 627 c 0,32,33
 336 613 336 613 340 616 c 0,34,35
 344 617 344 617 348 626 c 2,36,-1
 355 647 l 2,37,38
 363 661 363 661 373 659 c 0,39,40
 383 658 383 658 389 643 c 0,41,42
 392 632 392 632 391 612 c 256,43,44
 390 592 390 592 391 561 c 256,45,46
 392 530 392 530 388 513 c 0,47,48
 384 495 384 495 378 492 c 0,49,50
 371 489 371 489 358 503 c 0,51,52
 355 505 355 505 340 539 c 0,53,54
 325 571 325 571 291 594 c 0,55,56
 256 617 256 617 222 621 c 0,57,58
 183 625 183 625 152 609 c 256,59,60
 121 593 121 593 104 563 c 0,61,62
 88 533 88 533 96 500 c 0,63,64
 103 473 103 473 126 452 c 0,65,66
 150 432 150 432 199 411 c 0,67,68
 248 391 248 391 280 375 c 0,69,70
 312 360 312 360 342 337 c 0,71,72
 373 315 373 315 387 287 c 0,73,74
 401 260 401 260 403 222 c 0,75,76
 406 183 406 183 396 150 c 0,77,78
 387 119 387 119 368 95 c 256,79,80
 349 71 349 71 319 57 c 0,81,82
 290 43 290 43 250 41 c 0,83,84
 203 39 203 39 168 51 c 0,85,86
 132 65 132 65 110 82 c 0,87,88
 88 100 88 100 72 120 c 0,89,90
 56 139 56 139 50 151 c 256,91,92
 44 163 44 163 39 177 c 256,93,94
 34 191 34 191 36 201 c 0,95,96
 37 211 37 211 44 213 c 0,97,98
 52 215 52 215 62 207 c 0,99,100
 66 203 66 203 78 183 c 0,101,102
 89 163 89 163 112 143 c 0,103,104
 135 125 135 125 158 111 c 0,105,106
 182 99 182 99 208 94 c 0,107,108
 235 89 235 89 251 92 c 0,0,1
EndSplineSet
EndChar
StartChar: T
Encoding: 84 84 55
Width: 511
Flags: W
LayerCount: 2
Back
Fore
SplineSet
212 601 m 1,0,1
 189 598 189 598 173 596 c 0,2,3
 157 593 157 593 131 589 c 256,4,5
 105 585 105 585 91 587 c 0,6,7
 75 589 75 589 59 600 c 0,8,9
 42 611 42 611 34 623 c 256,10,11
 26 635 26 635 27 641 c 0,12,13
 27 649 27 649 60 647 c 2,14,-1
 106 645 l 2,15,16
 133 644 133 644 209 649 c 0,17,18
 284 653 284 653 315 655 c 0,19,20
 347 657 347 657 373 662 c 0,21,22
 399 668 399 668 409 667 c 0,23,24
 418 665 418 665 433 659 c 256,25,26
 448 653 448 653 461 642 c 0,27,28
 473 631 473 631 471 623 c 256,29,30
 469 615 469 615 447 611 c 0,31,32
 435 609 435 609 411 609 c 256,33,34
 387 609 387 609 351 606 c 256,35,36
 315 603 315 603 307 604 c 2,37,-1
 264 604 l 1,38,39
 277 589 277 589 285 578 c 0,40,41
 291 567 291 567 293 557 c 0,42,43
 293 547 293 547 286 517 c 0,44,45
 281 501 281 501 278 471 c 0,46,47
 274 443 274 443 273 414 c 256,48,49
 272 385 272 385 273 320 c 0,50,51
 273 255 273 255 271 203 c 256,52,53
 269 151 269 151 270 127 c 0,54,55
 270 102 270 102 270 99 c 0,56,57
 269 83 269 83 265 63 c 0,58,59
 261 42 261 42 256 37 c 0,60,61
 250 33 250 33 245 33 c 0,62,63
 240 32 240 32 231 46 c 0,64,65
 221 58 221 58 214 69 c 256,66,67
 207 80 207 80 201 92 c 256,68,69
 195 104 195 104 195 114 c 256,70,71
 195 124 195 124 203 150 c 0,72,73
 207 165 207 165 210 186 c 0,74,75
 214 207 214 207 217 256 c 0,76,77
 221 305 221 305 221 347 c 2,78,-1
 221 397 l 1,79,-1
 222 442 l 2,80,81
 222 463 222 463 222 481 c 0,82,83
 221 525 221 525 219 539 c 2,84,-1
 212 601 l 1,0,1
EndSplineSet
EndChar
StartChar: U
Encoding: 85 85 56
Width: 479
Flags: W
LayerCount: 2
Back
Fore
SplineSet
131 627 m 0,0,1
 130 625 130 625 129 620 c 256,2,3
 128 615 128 615 122 601 c 256,4,5
 116 587 116 587 112 563 c 0,6,7
 108 540 108 540 104 509 c 0,8,9
 101 477 101 477 101 417 c 0,10,11
 102 357 102 357 101 313 c 0,12,13
 101 270 101 270 102 253 c 0,14,15
 102 207 102 207 108 179 c 0,16,17
 114 152 114 152 129 132 c 256,18,19
 144 112 144 112 169 101 c 256,20,21
 194 90 194 90 232 89 c 0,22,23
 278 89 278 89 304 103 c 256,24,25
 330 117 330 117 346 145 c 0,26,27
 362 174 362 174 364 206 c 0,28,29
 366 239 366 239 366 265 c 256,30,31
 366 291 366 291 366 354 c 0,32,33
 367 416 367 416 366 456 c 0,34,35
 366 496 366 496 366 500 c 2,36,-1
 368 583 l 2,37,38
 367 611 367 611 363 620 c 256,39,40
 359 629 359 629 349 647 c 0,41,42
 339 664 339 664 342 670 c 0,43,44
 346 675 346 675 358 677 c 0,45,46
 371 679 371 679 384 674 c 0,47,48
 398 669 398 669 420 657 c 0,49,50
 442 647 442 647 444 639 c 0,51,52
 448 631 448 631 448 627 c 0,53,54
 447 623 447 623 445 617 c 256,55,56
 443 611 443 611 437 597 c 256,57,58
 431 583 431 583 428 571 c 0,59,60
 424 559 424 559 422 521 c 2,61,-1
 418 456 l 2,62,63
 418 445 418 445 418 397 c 256,64,65
 418 349 418 349 416 293 c 0,66,67
 415 236 415 236 414 209 c 0,68,69
 412 182 412 182 407 159 c 0,70,71
 402 137 402 137 388 114 c 0,72,73
 376 91 376 91 357 75 c 256,74,75
 338 59 338 59 320 51 c 256,76,77
 302 43 302 43 277 39 c 0,78,79
 252 34 252 34 220 37 c 0,80,81
 164 40 164 40 128 63 c 0,82,83
 90 87 90 87 74 121 c 256,84,85
 58 155 58 155 54 199 c 0,86,87
 48 243 48 243 50 317 c 2,88,-1
 50 387 l 2,89,90
 51 443 51 443 51 486 c 0,91,92
 50 529 50 529 51 557 c 256,93,94
 52 585 52 585 51 598 c 0,95,96
 49 617 49 617 44 629 c 2,97,-1
 32 649 l 2,98,99
 26 657 26 657 26 664 c 256,100,101
 26 671 26 671 30 675 c 0,102,103
 33 679 33 679 42 679 c 0,104,105
 55 679 55 679 72 674 c 0,106,107
 88 669 88 669 100 662 c 256,108,109
 112 655 112 655 120 647 c 0,110,111
 128 638 128 638 130 634 c 0,112,113
 131 630 131 630 131 627 c 0,0,1
EndSplineSet
EndChar
StartChar: V
Encoding: 86 86 57
Width: 501
Flags: W
LayerCount: 2
Back
Fore
SplineSet
471 624 m 256,0,1
 471 619 471 619 459 597 c 2,2,-1
 442 571 l 2,3,4
 434 557 434 557 426 521 c 0,5,6
 418 486 418 486 405 436 c 0,7,8
 391 385 391 385 372 314 c 0,9,10
 353 242 353 242 348 224 c 0,11,12
 343 205 343 205 329 167 c 0,13,14
 317 128 317 128 307 101 c 0,15,16
 297 75 297 75 290 58 c 0,17,18
 282 41 282 41 273 33 c 0,19,20
 263 25 263 25 253 25 c 256,21,22
 243 25 243 25 232 39 c 0,23,24
 225 49 225 49 217 71 c 2,25,-1
 195 133 l 2,26,27
 185 161 185 161 170 211 c 256,28,29
 155 261 155 261 148 284 c 256,30,31
 141 307 141 307 128 355 c 256,32,33
 115 403 115 403 111 425 c 2,34,-1
 100 469 l 1,35,-1
 81 548 l 2,36,37
 71 587 71 587 66 603 c 0,38,39
 61 618 61 618 53 628 c 2,40,-1
 33 651 l 2,41,42
 25 663 25 663 28 669 c 256,43,44
 31 675 31 675 39 677 c 0,45,46
 49 679 49 679 66 674 c 256,47,48
 83 669 83 669 106 660 c 256,49,50
 129 651 129 651 136 643 c 256,51,52
 143 635 143 635 144 624 c 0,53,54
 144 621 144 621 140 605 c 256,55,56
 136 589 136 589 137 576 c 0,57,58
 137 563 137 563 145 521 c 256,59,60
 153 479 153 479 159 456 c 0,61,62
 164 433 164 433 180 375 c 2,63,-1
 207 275 l 2,64,65
 225 205 225 205 237 146 c 0,66,67
 248 87 248 87 255 90 c 0,68,69
 259 92 259 92 274 147 c 2,70,-1
 301 240 l 2,71,72
 311 273 311 273 327 349 c 0,73,74
 344 425 344 425 358 481 c 0,75,76
 371 535 371 535 373 547 c 256,77,78
 375 559 375 559 379 579 c 0,79,80
 381 599 381 599 382 607 c 0,81,82
 382 627 382 627 374 643 c 0,83,84
 365 659 365 659 366 667 c 256,85,86
 367 675 367 675 379 679 c 0,87,88
 390 683 390 683 409 675 c 0,89,90
 425 667 425 667 437 660 c 0,91,92
 451 653 451 653 461 641 c 256,93,94
 471 629 471 629 471 624 c 256,0,1
EndSplineSet
EndChar
StartChar: W
Encoding: 87 87 58
Width: 663
Flags: W
LayerCount: 2
Back
Fore
SplineSet
335 439 m 1,0,1
 327 396 327 396 317 347 c 0,2,3
 307 299 307 299 295 250 c 0,4,5
 283 202 283 202 276 175 c 0,6,7
 269 147 269 147 258 112 c 0,8,9
 248 77 248 77 242 61 c 0,10,11
 237 45 237 45 228 37 c 0,12,13
 220 29 220 29 212 29 c 256,14,15
 204 29 204 29 193 49 c 0,16,17
 187 59 187 59 180 81 c 256,18,19
 173 103 173 103 164 135 c 0,20,21
 155 168 155 168 145 208 c 0,22,23
 135 247 135 247 125 291 c 256,24,25
 115 335 115 335 109 360 c 2,26,-1
 97 423 l 1,27,-1
 85 479 l 1,28,-1
 73 550 l 2,29,30
 67 581 67 581 61 601 c 0,31,32
 55 620 55 620 49 630 c 2,33,-1
 33 653 l 2,34,35
 26 665 26 665 29 671 c 0,36,37
 31 677 31 677 39 679 c 0,38,39
 47 682 47 682 67 677 c 2,40,-1
 99 667 l 2,41,42
 115 661 115 661 124 654 c 0,43,44
 133 646 133 646 133 635 c 0,45,46
 133 632 133 632 127 617 c 0,47,48
 122 602 122 602 123 585 c 0,49,50
 123 571 123 571 131 536 c 2,51,-1
 145 453 l 2,52,53
 147 439 147 439 159 373 c 0,54,55
 172 307 172 307 182 259 c 0,56,57
 193 211 193 211 201 163 c 256,58,59
 209 115 209 115 214 119 c 0,60,61
 217 121 217 121 229 173 c 2,62,-1
 249 261 l 2,63,64
 255 287 255 287 267 348 c 0,65,66
 279 410 279 410 288 467 c 0,67,68
 297 523 297 523 301 546 c 0,69,70
 306 569 306 569 308 588 c 0,71,72
 310 608 310 608 316 622 c 0,73,74
 322 635 322 635 337 638 c 0,75,76
 351 641 351 641 365 609 c 0,77,78
 369 599 369 599 370 582 c 256,79,80
 371 565 371 565 376 539 c 256,81,82
 381 513 381 513 387 467 c 256,83,84
 393 421 393 421 401 381 c 0,85,86
 407 340 407 340 420 283 c 0,87,88
 432 227 432 227 440 166 c 0,89,90
 447 106 447 106 453 111 c 0,91,92
 455 115 455 115 465 155 c 2,93,-1
 477 204 l 1,94,-1
 485 254 l 1,95,-1
 504 345 l 2,96,97
 505 351 505 351 522 443 c 2,98,-1
 537 519 l 2,99,100
 542 551 542 551 545 573 c 0,101,102
 549 597 549 597 551 611 c 0,103,104
 551 629 551 629 546 645 c 0,105,106
 540 661 540 661 542 667 c 0,107,108
 543 673 543 673 556 677 c 256,109,110
 569 681 569 681 594 667 c 0,111,112
 604 661 604 661 619 650 c 0,113,114
 633 639 633 639 633 621 c 0,115,116
 633 613 633 613 625 601 c 0,117,118
 618 589 618 589 612 577 c 0,119,120
 605 565 605 565 597 525 c 0,121,122
 589 486 589 486 578 438 c 0,123,124
 567 391 567 391 553 321 c 0,125,126
 537 252 537 252 531 227 c 0,127,128
 525 203 525 203 517 173 c 0,129,130
 509 142 509 142 498 109 c 0,131,132
 488 76 488 76 482 60 c 0,133,134
 477 43 477 43 468 35 c 256,135,136
 459 27 459 27 451 27 c 256,137,138
 443 27 443 27 434 41 c 0,139,140
 427 51 427 51 421 73 c 2,141,-1
 403 137 l 2,142,143
 395 165 395 165 382 215 c 0,144,145
 370 265 370 265 365 289 c 0,146,147
 359 313 359 313 347 376 c 2,148,-1
 335 439 l 1,0,1
EndSplineSet
EndChar
StartChar: X
Encoding: 88 88 59
Width: 505
Flags: W
LayerCount: 2
Back
Fore
SplineSet
254 323 m 1,0,1
 222 271 222 271 207 246 c 256,2,3
 192 221 192 221 168 184 c 0,4,5
 145 147 145 147 130 123 c 0,6,7
 116 99 116 99 109 91 c 256,8,9
 102 83 102 83 78 59 c 0,10,11
 54 34 54 34 42 35 c 0,12,13
 38 35 38 35 33 38 c 256,14,15
 28 41 28 41 30 69 c 0,16,17
 34 106 34 106 36 114 c 256,18,19
 38 122 38 122 42 129 c 0,20,21
 47 137 47 137 65 151 c 0,22,23
 84 165 84 165 98 182 c 256,24,25
 112 199 112 199 135 233 c 256,26,27
 158 267 158 267 180 302 c 2,28,-1
 226 373 l 1,29,30
 203 415 203 415 188 441 c 0,31,32
 174 466 174 466 139 518 c 0,33,34
 105 571 105 571 90 596 c 0,35,36
 74 621 74 621 54 637 c 0,37,38
 34 652 34 652 32 661 c 0,39,40
 28 669 28 669 32 675 c 0,41,42
 36 680 36 680 57 677 c 0,43,44
 96 671 96 671 108 668 c 0,45,46
 119 665 119 665 139 657 c 256,47,48
 159 649 159 649 162 640 c 0,49,50
 162 639 162 639 160 623 c 0,51,52
 158 606 158 606 164 590 c 0,53,54
 170 572 170 572 184 543 c 0,55,56
 199 513 199 513 222 475 c 2,57,-1
 256 415 l 1,58,59
 274 441 274 441 283 453 c 2,60,-1
 331 521 l 1,61,-1
 383 598 l 2,62,63
 414 642 414 642 420 651 c 0,64,65
 426 659 426 659 436 670 c 256,66,67
 446 681 446 681 455 679 c 0,68,69
 463 677 463 677 465 649 c 0,70,71
 467 620 467 620 463 600 c 256,72,73
 459 580 459 580 450 571 c 2,74,-1
 429 559 l 2,75,76
 416 552 416 552 396 525 c 2,77,-1
 358 475 l 1,78,-1
 318 423 l 1,79,-1
 282 373 l 1,80,81
 309 325 309 325 323 301 c 2,82,-1
 365 230 l 2,83,84
 383 199 383 199 400 168 c 0,85,86
 418 137 418 137 426 123 c 256,87,88
 434 109 434 109 436 105 c 256,89,90
 438 101 438 101 450 78 c 0,91,92
 460 55 460 55 457 45 c 0,93,94
 455 41 455 41 452 39 c 0,95,96
 450 38 450 38 447 38 c 0,97,98
 440 37 440 37 425 47 c 2,99,-1
 386 65 l 2,100,101
 369 73 369 73 362 83 c 0,102,103
 356 92 356 92 352 112 c 256,104,105
 348 132 348 132 345 144 c 0,106,107
 342 157 342 157 324 191 c 2,108,-1
 287 263 l 1,109,-1
 270 293 l 1,110,-1
 254 323 l 1,0,1
EndSplineSet
EndChar
StartChar: Y
Encoding: 89 89 60
Width: 472
Flags: W
LayerCount: 2
Back
Fore
SplineSet
196 316 m 1,0,1
 183 345 183 345 177 359 c 2,2,-1
 148 422 l 2,3,4
 133 455 133 455 119 493 c 2,5,-1
 101 536 l 2,6,7
 97 547 97 547 85 575 c 256,8,9
 73 603 73 603 61 619 c 2,10,-1
 35 653 l 2,11,12
 26 669 26 669 29 675 c 0,13,14
 33 679 33 679 51 678 c 0,15,16
 74 676 74 676 89 673 c 0,17,18
 103 669 103 669 119 660 c 256,19,20
 135 651 135 651 139 637 c 1,21,-1
 136 610 l 2,22,23
 135 598 135 598 148 564 c 2,24,-1
 163 515 l 1,25,-1
 189 445 l 2,26,27
 200 409 200 409 209 391 c 0,28,29
 217 371 217 371 226 371 c 0,30,31
 235 370 235 370 251 401 c 0,32,33
 261 421 261 421 278 455 c 0,34,35
 296 491 296 491 305 511 c 2,36,-1
 341 595 l 2,37,38
 351 617 351 617 353 627 c 2,39,-1
 351 653 l 2,40,41
 349 677 349 677 357 681 c 0,42,43
 366 685 366 685 381 678 c 0,44,45
 391 673 391 673 408 654 c 256,46,47
 425 635 425 635 432 624 c 0,48,49
 438 613 438 613 435 603 c 0,50,51
 434 598 434 598 418 584 c 0,52,53
 403 571 403 571 391 553 c 0,54,55
 381 537 381 537 357 496 c 0,56,57
 333 456 333 456 325 441 c 2,58,-1
 289 384 l 1,59,-1
 253 318 l 1,60,61
 251 293 251 293 250 279 c 0,62,63
 249 264 249 264 250 228 c 256,64,65
 251 192 251 192 251 167 c 0,66,67
 251 141 251 141 251 122 c 0,68,69
 249 104 249 104 248 80 c 0,70,71
 247 57 247 57 243 39 c 0,72,73
 240 21 240 21 232 17 c 0,74,75
 224 14 224 14 205 35 c 0,76,77
 192 49 192 49 181 73 c 0,78,79
 171 97 171 97 173 113 c 0,80,81
 173 117 173 117 182 137 c 256,82,83
 191 157 191 157 195 187 c 0,84,85
 200 217 200 217 199 241 c 2,86,-1
 196 316 l 1,0,1
EndSplineSet
EndChar
StartChar: Z
Encoding: 90 90 61
Width: 532
Flags: W
LayerCount: 2
Back
Fore
SplineSet
350 605 m 1,0,1
 340 605 340 605 336 605 c 2,2,-1
 304 603 l 1,3,-1
 261 600 l 1,4,-1
 213 595 l 2,5,6
 182 593 182 593 167 589 c 0,7,8
 152 587 152 587 130 577 c 256,9,10
 108 567 108 567 99 569 c 0,11,12
 88 569 88 569 72 579 c 0,13,14
 56 588 56 588 41 605 c 256,15,16
 26 622 26 622 30 629 c 0,17,18
 32 633 32 633 56 634 c 0,19,20
 80 634 80 634 111 636 c 256,21,22
 142 638 142 638 192 643 c 256,23,24
 242 648 242 648 244 649 c 2,25,-1
 286 651 l 1,26,-1
 331 655 l 2,27,28
 354 657 354 657 370 661 c 0,29,30
 384 665 384 665 389 665 c 0,31,32
 402 665 402 665 415 653 c 0,33,34
 429 641 429 641 432 626 c 0,35,36
 436 611 436 611 430 600 c 0,37,38
 428 597 428 597 411 581 c 0,39,40
 394 564 394 564 382 544 c 256,41,42
 370 524 370 524 350 489 c 2,43,-1
 307 409 l 1,44,-1
 244 296 l 2,45,46
 210 233 210 233 196 209 c 0,47,48
 182 186 182 186 160 149 c 2,49,-1
 133 105 l 1,50,51
 148 105 148 105 154 105 c 256,52,53
 160 105 160 105 191 107 c 256,54,55
 222 109 222 109 256 109 c 256,56,57
 290 109 290 109 292 109 c 0,58,59
 314 109 314 109 337 112 c 256,60,61
 360 115 360 115 384 121 c 0,62,63
 408 129 408 129 414 129 c 0,64,65
 426 129 426 129 438 125 c 0,66,67
 450 119 450 119 464 109 c 256,68,69
 478 99 478 99 486 87 c 0,70,71
 493 75 493 75 490 68 c 0,72,73
 488 61 488 61 463 61 c 0,74,75
 439 61 439 61 426 61 c 2,76,-1
 372 64 l 2,77,78
 356 64 356 64 300 61 c 2,79,-1
 234 59 l 1,80,-1
 179 55 l 2,81,82
 147 52 147 52 128 44 c 0,83,84
 108 36 108 36 104 37 c 0,85,86
 93 37 93 37 78 52 c 0,87,88
 64 67 64 67 58 86 c 0,89,90
 53 105 53 105 58 115 c 0,91,92
 60 117 60 117 76 129 c 0,93,94
 94 140 94 140 110 167 c 2,95,-1
 148 232 l 2,96,97
 168 266 168 266 198 320 c 2,98,-1
 258 431 l 2,99,100
 304 513 304 513 306 519 c 2,101,-1
 350 605 l 1,0,1
EndSplineSet
EndChar
StartChar: backslash
Encoding: 92 92 63
Width: 645
Flags: W
LayerCount: 2
Back
Fore
SplineSet
543 -84 m 2,0,1
 550 -99 550 -99 550 -107 c 0,2,3
 551 -115 551 -115 546 -119 c 256,4,5
 541 -123 541 -123 533 -119 c 256,6,7
 525 -115 525 -115 519 -103 c 2,8,-1
 87 691 l 2,9,10
 81 701 81 701 79 707 c 0,11,12
 78 713 78 713 82 717 c 0,13,14
 85 721 85 721 93 721 c 0,15,16
 101 719 101 719 105 713 c 2,17,-1
 543 -84 l 2,0,1
EndSplineSet
EndChar
StartChar: grave
Encoding: 96 96 67
Width: 512
Flags: W
LayerCount: 2
Back
Fore
SplineSet
234 397 m 2,0,-1
 233 423 l 1,1,-1
 230 481 l 1,2,-1
 226 569 l 2,3,4
 224 609 224 609 220 656 c 256,5,6
 216 703 216 703 216 711 c 256,7,8
 216 719 216 719 216 731 c 0,9,10
 216 750 216 750 224 760 c 256,11,12
 232 770 232 770 248 771 c 256,13,14
 264 772 264 772 272 761 c 0,15,16
 281 749 281 749 280 723 c 0,17,18
 279 707 279 707 276 670 c 0,19,20
 272 633 272 633 270 601 c 2,21,-1
 264 513 l 2,22,23
 263 505 263 505 259 447 c 2,24,-1
 256 402 l 2,25,26
 254 390 254 390 252 384 c 0,27,28
 250 379 250 379 246 378 c 0,29,30
 240 378 240 378 238 383 c 0,31,32
 234 389 234 389 234 397 c 2,0,-1
EndSplineSet
EndChar
StartChar: a
Encoding: 97 97 68
Width: 417
Flags: W
LayerCount: 2
Back
Fore
SplineSet
299 185 m 2,0,1
 302 155 302 155 302 136 c 0,2,3
 301 117 301 117 308 107 c 0,4,5
 315 98 315 98 327 99 c 0,6,7
 345 99 345 99 353 124 c 2,8,-1
 363 175 l 1,9,10
 371 189 371 189 382 189 c 0,11,12
 393 190 393 190 393 157 c 0,13,14
 393 125 393 125 389 105 c 0,15,16
 382 73 382 73 369 59 c 0,17,18
 355 47 355 47 332 44 c 256,19,20
 309 41 309 41 289 49 c 0,21,22
 269 58 269 58 269 64 c 2,23,-1
 259 87 l 1,24,25
 228 62 228 62 208 53 c 0,26,27
 188 43 188 43 150 41 c 0,28,29
 113 39 113 39 79 61 c 0,30,31
 46 83 46 83 37 119 c 0,32,33
 28 154 28 154 35 193 c 0,34,35
 43 231 43 231 61 253 c 0,36,37
 80 275 80 275 113 287 c 0,38,39
 147 299 147 299 192 303 c 2,40,-1
 239 308 l 1,41,42
 241 329 241 329 242 349 c 256,43,44
 243 369 243 369 238 388 c 0,45,46
 231 411 231 411 216 423 c 0,47,48
 201 436 201 436 178 439 c 0,49,50
 153 441 153 441 137 433 c 0,51,52
 122 423 122 423 113 406 c 2,53,-1
 97 377 l 1,54,55
 83 360 83 360 75 362 c 0,56,57
 66 365 66 365 63 384 c 0,58,59
 61 403 61 403 65 421 c 0,60,61
 69 437 69 437 79 452 c 256,62,63
 89 467 89 467 119 477 c 256,64,65
 149 487 149 487 185 485 c 0,66,67
 212 483 212 483 234 475 c 0,68,69
 257 466 257 466 271 447 c 0,70,71
 287 427 287 427 293 397 c 256,72,73
 299 367 299 367 299 341 c 2,74,-1
 299 185 l 2,0,1
245 139 m 1,75,76
 243 181 243 181 243 188 c 2,77,-1
 241 268 l 1,78,79
 199 261 199 261 169 255 c 256,80,81
 139 249 139 249 117 235 c 0,82,83
 95 220 95 220 85 187 c 256,84,85
 75 154 75 154 89 129 c 256,86,87
 103 104 103 104 127 94 c 256,88,89
 151 84 151 84 183 91 c 256,90,91
 215 98 215 98 227 116 c 2,92,-1
 245 139 l 1,75,76
EndSplineSet
EndChar
StartChar: b
Encoding: 98 98 69
Width: 397
Flags: W
LayerCount: 2
Back
Fore
SplineSet
101 435 m 1,0,1
 126 457 126 457 142 466 c 0,2,3
 157 475 157 475 178 479 c 0,4,5
 199 484 199 484 223 481 c 0,6,7
 239 479 239 479 262 469 c 0,8,9
 284 459 284 459 306 434 c 0,10,11
 328 408 328 408 339 367 c 0,12,13
 350 327 350 327 352 295 c 0,14,15
 355 263 355 263 355 235 c 0,16,17
 354 190 354 190 347 155 c 0,18,19
 339 121 339 121 321 96 c 0,20,21
 304 71 304 71 280 55 c 256,22,23
 256 39 256 39 217 37 c 0,24,25
 193 35 193 35 170 42 c 256,26,27
 147 49 147 49 138 58 c 2,28,-1
 99 93 l 1,29,30
 96 69 96 69 92 44 c 0,31,32
 89 19 89 19 79 21 c 0,33,34
 77 21 77 21 67 26 c 0,35,36
 58 30 58 30 50 49 c 0,37,38
 41 69 41 69 35 87 c 0,39,40
 28 106 28 106 29 119 c 0,41,42
 29 122 29 122 40 154 c 256,43,44
 51 186 51 186 51 245 c 2,45,-1
 53 375 l 2,46,47
 53 395 53 395 54 430 c 0,48,49
 54 465 54 465 54 481 c 0,50,51
 53 519 53 519 52 550 c 0,52,53
 50 581 50 581 47 601 c 0,54,55
 45 619 45 619 41 632 c 2,56,-1
 33 652 l 2,57,58
 29 663 29 663 29 671 c 0,59,60
 29 673 29 673 30 677 c 256,61,62
 31 681 31 681 45 683 c 0,63,64
 53 683 53 683 79 675 c 0,65,66
 105 668 105 668 114 656 c 0,67,68
 123 645 123 645 125 639 c 0,69,70
 126 633 126 633 125 626 c 0,71,72
 123 621 123 621 119 607 c 0,73,74
 115 591 115 591 111 568 c 256,75,76
 107 545 107 545 107 537 c 2,77,-1
 101 435 l 1,0,1
99 227 m 2,78,79
 99 191 99 191 101 175 c 0,80,81
 103 160 103 160 115 139 c 0,82,83
 127 117 127 117 141 105 c 256,84,85
 155 93 155 93 182 86 c 256,86,87
 209 79 209 79 227 83 c 0,88,89
 249 88 249 88 267 109 c 0,90,91
 286 131 286 131 295 168 c 0,92,93
 303 205 303 205 301 251 c 0,94,95
 300 277 300 277 295 307 c 0,96,97
 291 337 291 337 278 372 c 256,98,99
 265 407 265 407 243 421 c 0,100,101
 220 435 220 435 193 435 c 0,102,103
 166 436 166 436 143 417 c 0,104,105
 122 401 122 401 113 378 c 0,106,107
 105 354 105 354 101 326 c 0,108,109
 98 299 98 299 99 263 c 2,110,-1
 99 227 l 2,78,79
EndSplineSet
EndChar
StartChar: c
Encoding: 99 99 70
Width: 365
Flags: W
LayerCount: 2
Back
Fore
SplineSet
170 487 m 0,0,1
 191 489 191 489 214 484 c 256,2,3
 237 479 237 479 255 464 c 0,4,5
 274 449 274 449 284 431 c 0,6,7
 294 412 294 412 298 397 c 256,8,9
 302 382 302 382 299 361 c 0,10,11
 296 341 296 341 289 340 c 256,12,13
 282 339 282 339 271 359 c 2,14,-1
 256 389 l 2,15,16
 248 405 248 405 231 421 c 0,17,18
 214 439 214 439 185 439 c 256,19,20
 156 439 156 439 134 422 c 0,21,22
 116 407 116 407 104 377 c 0,23,24
 92 348 92 348 89 321 c 256,25,26
 86 294 86 294 86 259 c 0,27,28
 86 213 86 213 94 180 c 256,29,30
 102 147 102 147 120 126 c 0,31,32
 137 105 137 105 162 95 c 256,33,34
 187 85 187 85 212 91 c 0,35,36
 234 95 234 95 256 113 c 256,37,38
 278 131 278 131 286 152 c 2,39,-1
 302 195 l 2,40,41
 310 207 310 207 317 206 c 256,42,43
 324 205 324 205 327 188 c 0,44,45
 331 171 331 171 326 151 c 0,46,47
 319 129 319 129 310 113 c 256,48,49
 301 97 301 97 284 80 c 0,50,51
 266 64 266 64 240 51 c 0,52,53
 214 39 214 39 174 42 c 0,54,55
 130 45 130 45 104 65 c 256,56,57
 78 85 78 85 61 118 c 256,58,59
 44 151 44 151 37 193 c 256,60,61
 30 235 30 235 30 279 c 256,62,63
 30 323 30 323 38 355 c 0,64,65
 44 383 44 383 60 411 c 0,66,67
 76 440 76 440 94 455 c 0,68,69
 112 471 112 471 130 478 c 256,70,71
 148 485 148 485 170 487 c 0,0,1
EndSplineSet
EndChar
StartChar: d
Encoding: 100 100 71
Width: 387
Flags: W
LayerCount: 2
Back
Fore
SplineSet
282 426 m 1,0,1
 281 505 281 505 279 538 c 0,2,3
 276 571 276 571 273 599 c 0,4,5
 270 626 270 626 262 645 c 0,6,7
 254 663 254 663 256 670 c 0,8,9
 259 677 259 677 267 680 c 0,10,11
 274 683 274 683 292 673 c 0,12,13
 308 663 308 663 326 649 c 0,14,15
 344 636 344 636 345 626 c 0,16,17
 347 617 347 617 340 597 c 0,18,19
 333 579 333 579 332 564 c 0,20,21
 330 551 330 551 331 523 c 256,22,23
 332 495 332 495 332 426 c 2,24,-1
 332 329 l 2,25,26
 331 265 331 265 332 247 c 0,27,28
 332 213 332 213 336 182 c 0,29,30
 338 151 338 151 344 127 c 256,31,32
 350 103 350 103 350 95 c 0,33,34
 349 85 349 85 343 72 c 0,35,36
 338 59 338 59 328 44 c 256,37,38
 318 29 318 29 311 28 c 0,39,40
 303 27 303 27 292 45 c 0,41,42
 284 57 284 57 282 69 c 2,43,-1
 278 90 l 1,44,45
 257 70 257 70 243 61 c 0,46,47
 229 53 229 53 209 47 c 0,48,49
 189 42 189 42 165 44 c 0,50,51
 126 47 126 47 102 62 c 256,52,53
 78 77 78 77 60 101 c 256,54,55
 42 125 42 125 36 159 c 0,56,57
 28 193 28 193 28 237 c 0,58,59
 28 259 28 259 30 292 c 256,60,61
 32 325 32 325 43 365 c 256,62,63
 54 405 54 405 76 433 c 256,64,65
 98 461 98 461 119 470 c 0,66,67
 139 479 139 479 158 483 c 0,68,69
 177 486 177 486 199 483 c 0,70,71
 240 477 240 477 251 463 c 2,72,-1
 282 426 l 1,0,1
284 265 m 2,73,74
 284 295 284 295 281 324 c 256,75,76
 278 353 278 353 269 377 c 256,77,78
 260 401 260 401 236 419 c 256,79,80
 212 437 212 437 183 437 c 0,81,82
 156 437 156 437 135 423 c 256,83,84
 114 409 114 409 102 379 c 256,85,86
 90 349 90 349 86 311 c 0,87,88
 82 274 82 274 81 241 c 0,89,90
 80 207 80 207 88 177 c 0,91,92
 96 148 96 148 110 130 c 0,93,94
 124 113 124 113 145 101 c 0,95,96
 166 91 166 91 194 95 c 0,97,98
 220 97 220 97 238 112 c 256,99,100
 256 127 256 127 267 146 c 256,101,102
 278 165 278 165 281 183 c 256,103,104
 284 201 284 201 284 231 c 2,105,-1
 284 265 l 2,73,74
EndSplineSet
EndChar
StartChar: e
Encoding: 101 101 72
Width: 380
Flags: W
LayerCount: 2
Back
Fore
SplineSet
86 257 m 1,0,1
 86 232 86 232 88 209 c 0,2,3
 90 187 90 187 100 163 c 0,4,5
 110 138 110 138 124 121 c 0,6,7
 139 105 139 105 164 99 c 0,8,9
 187 94 187 94 212 101 c 256,10,11
 237 108 237 108 253 119 c 0,12,13
 270 130 270 130 280 146 c 0,14,15
 292 162 292 162 296 184 c 0,16,17
 300 205 300 205 305 215 c 256,18,19
 310 225 310 225 317 223 c 0,20,21
 324 222 324 222 328 211 c 256,22,23
 332 200 332 200 330 184 c 0,24,25
 327 157 327 157 319 134 c 0,26,27
 311 110 311 110 293 91 c 0,28,29
 276 71 276 71 247 57 c 0,30,31
 219 43 219 43 173 47 c 0,32,33
 130 49 130 49 100 69 c 256,34,35
 70 89 70 89 55 121 c 256,36,37
 40 153 40 153 35 196 c 0,38,39
 29 239 29 239 28 275 c 0,40,41
 28 310 28 310 37 353 c 0,42,43
 48 399 48 399 70 430 c 256,44,45
 92 461 92 461 125 476 c 256,46,47
 158 491 158 491 196 489 c 256,48,49
 234 487 234 487 263 469 c 0,50,51
 292 452 292 452 310 421 c 0,52,53
 328 391 328 391 334 355 c 0,54,55
 342 319 342 319 341 287 c 0,56,57
 340 269 340 269 335 263 c 256,58,59
 330 257 330 257 298 257 c 2,60,-1
 86 257 l 1,0,1
87 299 m 1,61,-1
 288 299 l 1,62,63
 286 321 286 321 284 339 c 0,64,65
 281 359 281 359 272 383 c 0,66,67
 262 407 262 407 247 421 c 0,68,69
 232 433 232 433 206 439 c 256,70,71
 180 445 180 445 153 435 c 256,72,73
 126 425 126 425 114 405 c 256,74,75
 102 385 102 385 96 363 c 0,76,77
 90 340 90 340 90 327 c 2,78,-1
 87 299 l 1,61,-1
EndSplineSet
EndChar
StartChar: f
Encoding: 102 102 73
Width: 378
Flags: W
LayerCount: 2
Back
Fore
SplineSet
151 423 m 1,0,1
 119 415 119 415 101 409 c 0,2,3
 83 401 83 401 76 403 c 0,4,5
 67 404 67 404 51 417 c 0,6,7
 36 431 36 431 30 441 c 256,8,9
 24 451 24 451 25 456 c 0,10,11
 27 461 27 461 45 463 c 2,12,-1
 117 468 l 1,13,-1
 153 471 l 1,14,15
 153 507 153 507 153 537 c 256,16,17
 153 567 153 567 158 593 c 256,18,19
 163 619 163 619 173 634 c 0,20,21
 183 648 183 648 194 655 c 0,22,23
 206 661 206 661 227 667 c 0,24,25
 249 672 249 672 279 664 c 0,26,27
 302 657 302 657 318 643 c 0,28,29
 333 630 333 630 337 613 c 0,30,31
 341 597 341 597 334 591 c 0,32,33
 327 587 327 587 308 601 c 0,34,35
 285 617 285 617 275 622 c 256,36,37
 265 627 265 627 247 623 c 0,38,39
 227 617 227 617 218 602 c 256,40,41
 209 587 209 587 207 570 c 0,42,43
 204 553 204 553 204 519 c 2,44,-1
 204 473 l 1,45,46
 229 475 229 475 241 477 c 256,47,48
 253 479 253 479 269 485 c 0,49,50
 285 489 285 489 291 489 c 0,51,52
 302 489 302 489 316 481 c 0,53,54
 329 473 329 473 338 461 c 0,55,56
 347 450 347 450 347 441 c 0,57,58
 345 429 345 429 303 431 c 256,59,60
 261 433 261 433 247 432 c 2,61,-1
 204 427 l 1,62,63
 205 347 205 347 205 286 c 256,64,65
 205 225 205 225 205 187 c 2,66,-1
 203 95 l 2,67,68
 202 70 202 70 201 60 c 0,69,70
 199 50 199 50 196 41 c 0,71,72
 193 31 193 31 189 28 c 256,73,74
 185 25 185 25 175 30 c 0,75,76
 163 35 163 35 152 56 c 256,77,78
 141 77 141 77 137 87 c 256,79,80
 133 97 133 97 133 106 c 256,81,82
 133 115 133 115 140 141 c 0,83,84
 144 156 144 156 147 182 c 0,85,86
 151 207 151 207 152 245 c 0,87,88
 152 258 152 258 152 303 c 2,89,-1
 151 423 l 1,0,1
EndSplineSet
EndChar
StartChar: g
Encoding: 103 103 74
Width: 461
Flags: W
LayerCount: 2
Back
Fore
SplineSet
108 69 m 1,0,1
 81 93 81 93 68 113 c 0,2,3
 54 133 54 133 56 163 c 0,4,5
 58 195 58 195 76 211 c 2,6,-1
 98 235 l 1,7,8
 88 263 88 263 83 291 c 256,9,10
 78 319 78 319 88 363 c 0,11,12
 97 401 97 401 116 427 c 256,13,14
 135 453 135 453 158 465 c 0,15,16
 182 477 182 477 214 477 c 0,17,18
 251 478 251 478 266 469 c 2,19,-1
 299 451 l 1,20,21
 303 482 303 482 311 505 c 0,22,23
 320 527 320 527 334 535 c 0,24,25
 348 542 348 542 364 542 c 0,26,27
 380 541 380 541 396 536 c 0,28,29
 410 531 410 531 421 517 c 0,30,31
 432 505 432 505 432 470 c 256,32,33
 432 435 432 435 424 434 c 0,34,35
 415 433 415 433 406 449 c 2,36,-1
 392 480 l 1,37,38
 374 495 374 495 355 483 c 0,39,40
 342 474 342 474 343 444 c 2,41,-1
 343 415 l 1,42,43
 352 397 352 397 360 374 c 0,44,45
 368 352 368 352 367 315 c 0,46,47
 366 283 366 283 356 250 c 256,48,49
 346 217 346 217 334 203 c 256,50,51
 322 189 322 189 300 170 c 0,52,53
 277 151 277 151 223 152 c 0,54,55
 182 153 182 153 166 166 c 2,56,-1
 124 195 l 1,57,58
 113 185 113 185 106 174 c 0,59,60
 100 163 100 163 108 142 c 256,61,62
 116 121 116 121 130 111 c 2,63,-1
 146 95 l 1,64,65
 194 95 194 95 225 95 c 0,66,67
 256 94 256 94 284 89 c 256,68,69
 312 84 312 84 334 73 c 0,70,71
 356 63 356 63 373 47 c 0,72,73
 390 32 390 32 401 9 c 0,74,75
 412 -15 412 -15 416 -41 c 0,76,77
 419 -67 419 -67 413 -93 c 0,78,79
 404 -132 404 -132 386 -149 c 0,80,81
 367 -165 367 -165 346 -175 c 0,82,83
 324 -185 324 -185 293 -192 c 256,84,85
 262 -199 262 -199 226 -199 c 0,86,87
 185 -201 185 -201 153 -194 c 256,88,89
 121 -187 121 -187 104 -175 c 0,90,91
 86 -163 86 -163 67 -144 c 256,92,93
 48 -125 48 -125 40 -96 c 256,94,95
 32 -67 32 -67 38 -31 c 0,96,97
 43 1 43 1 55 21 c 0,98,99
 68 39 68 39 72 43 c 2,100,-1
 108 69 l 1,0,1
186 48 m 0,101,102
 156 45 156 45 140 38 c 0,103,104
 125 31 125 31 108 12 c 0,105,106
 90 -7 90 -7 88 -37 c 0,107,108
 85 -66 85 -66 94 -88 c 0,109,110
 104 -115 104 -115 127 -131 c 256,111,112
 150 -147 150 -147 190 -150 c 0,113,114
 222 -153 222 -153 263 -147 c 0,115,116
 303 -141 303 -141 328 -125 c 0,117,118
 353 -108 353 -108 359 -73 c 0,119,120
 366 -37 366 -37 346 -5 c 0,121,122
 327 27 327 27 290 41 c 0,123,124
 252 55 252 55 186 48 c 0,101,102
134 262 m 0,125,126
 141 243 141 243 157 226 c 0,127,128
 174 209 174 209 199 201 c 0,129,130
 225 192 225 192 253 199 c 0,131,132
 278 206 278 206 296 226 c 0,133,134
 314 245 314 245 318 289 c 256,135,136
 322 333 322 333 308 368 c 0,137,138
 296 395 296 395 278 410 c 256,139,140
 260 425 260 425 231 430 c 256,141,142
 202 435 202 435 178 421 c 0,143,144
 157 409 157 409 141 378 c 0,145,146
 126 347 126 347 127 313 c 256,147,148
 128 279 128 279 134 262 c 0,125,126
EndSplineSet
EndChar
StartChar: h
Encoding: 104 104 75
Width: 376
Flags: W
LayerCount: 2
Back
Fore
SplineSet
98 187 m 2,0,1
 96 171 96 171 96 160 c 256,2,3
 96 149 96 149 96 129 c 0,4,5
 96 107 96 107 96 103 c 0,6,7
 96 85 96 85 93 70 c 0,8,9
 91 55 91 55 88 48 c 0,10,11
 86 40 86 40 83 37 c 256,12,13
 80 34 80 34 76 35 c 0,14,15
 74 35 74 35 70 36 c 0,16,17
 66 38 66 38 57 49 c 0,18,19
 48 61 48 61 45 66 c 256,20,21
 42 71 42 71 36 88 c 256,22,23
 30 105 30 105 29 111 c 0,24,25
 28 118 28 118 37 147 c 0,26,27
 42 163 42 163 46 202 c 256,28,29
 50 241 50 241 50 279 c 2,30,-1
 50 342 l 1,31,-1
 50 403 l 1,32,-1
 50 429 l 1,33,-1
 50 505 l 2,34,35
 50 539 50 539 50 545 c 2,36,-1
 51 571 l 2,37,38
 50 605 50 605 45 624 c 0,39,40
 39 644 39 644 32 656 c 0,41,42
 26 667 26 667 26 672 c 0,43,44
 27 675 27 675 30 677 c 0,45,46
 34 680 34 680 42 680 c 0,47,48
 54 679 54 679 69 671 c 0,49,50
 84 661 84 661 99 650 c 0,51,52
 115 639 115 639 120 629 c 256,53,54
 125 619 125 619 124 609 c 0,55,56
 124 607 124 607 118 593 c 0,57,58
 114 579 114 579 110 549 c 256,59,60
 106 519 106 519 104 502 c 256,61,62
 102 485 102 485 102 422 c 2,63,-1
 100 361 l 1,64,65
 114 395 114 395 123 412 c 0,66,67
 132 430 132 430 146 447 c 0,68,69
 160 463 160 463 173 471 c 256,70,71
 186 479 186 479 207 483 c 0,72,73
 244 490 244 490 272 478 c 256,74,75
 300 466 300 466 314 441 c 0,76,77
 327 415 327 415 330 382 c 0,78,79
 332 349 332 349 332 305 c 2,80,-1
 333 221 l 2,81,82
 333 178 333 178 333 160 c 0,83,84
 332 129 332 129 330 102 c 0,85,86
 329 76 329 76 325 57 c 0,87,88
 321 39 321 39 313 37 c 256,89,90
 305 35 305 35 292 50 c 0,91,92
 289 53 289 53 278 70 c 256,93,94
 267 87 267 87 264 95 c 0,95,96
 262 102 262 102 263 111 c 0,97,98
 263 113 263 113 274 139 c 0,99,100
 284 165 284 165 284 180 c 0,101,102
 285 195 285 195 285 208 c 2,103,-1
 285 278 l 1,104,-1
 280 353 l 2,105,106
 278 389 278 389 270 407 c 0,107,108
 262 426 262 426 242 435 c 256,109,110
 222 444 222 444 200 435 c 0,111,112
 180 427 180 427 160 400 c 256,113,114
 140 373 140 373 126 345 c 0,115,116
 114 317 114 317 107 289 c 0,117,118
 100 263 100 263 100 247 c 2,119,-1
 98 187 l 2,0,1
EndSplineSet
EndChar
StartChar: i
Encoding: 105 105 76
Width: 171
Flags: W
LayerCount: 2
Back
Fore
SplineSet
32 99 m 2,0,1
 32 103 32 103 35 123 c 2,2,-1
 46 166 l 2,3,4
 48 182 48 182 50 216 c 0,5,6
 52 251 52 251 54 284 c 256,7,8
 56 317 56 317 56 339 c 0,9,10
 55 345 55 345 53 377 c 0,11,12
 52 409 52 409 49 425 c 256,13,14
 46 441 46 441 40 455 c 2,15,-1
 28 479 l 1,16,-1
 29 497 l 1,17,-1
 50 496 l 1,18,-1
 85 483 l 1,19,-1
 114 463 l 1,20,-1
 127 445 l 2,21,22
 128 439 128 439 118 413 c 0,23,24
 113 399 113 399 111 382 c 0,25,26
 108 365 108 365 108 347 c 256,27,28
 108 329 108 329 108 285 c 2,29,-1
 108 184 l 2,30,31
 108 151 108 151 108 141 c 0,32,33
 108 130 108 130 106 98 c 0,34,35
 104 67 104 67 97 50 c 256,36,37
 90 33 90 33 82 32 c 256,38,39
 74 31 74 31 60 52 c 0,40,41
 54 61 54 61 44 80 c 2,42,-1
 32 99 l 2,0,1
84 665 m 1,43,-1
 105 659 l 1,44,-1
 120 644 l 1,45,-1
 126 623 l 1,46,-1
 120 601 l 1,47,-1
 105 586 l 1,48,-1
 84 581 l 1,49,-1
 64 586 l 1,50,-1
 44 623 l 1,51,-1
 64 659 l 1,52,-1
 84 665 l 1,43,-1
EndSplineSet
EndChar
StartChar: j
Encoding: 106 106 77
Width: 175
Flags: W
LayerCount: 2
Back
Fore
SplineSet
122 295 m 1,0,-1
 121 11 l 1,1,-1
 121 -49 l 2,2,3
 120 -101 120 -101 114 -125 c 256,4,5
 108 -149 108 -149 96 -163 c 0,6,7
 84 -178 84 -178 59 -190 c 0,8,9
 35 -201 35 -201 8 -200 c 0,10,11
 -29 -199 -29 -199 -52 -179 c 256,12,13
 -75 -159 -75 -159 -85 -138 c 0,14,15
 -96 -117 -96 -117 -100 -99 c 0,16,17
 -103 -81 -103 -81 -100 -74 c 0,18,19
 -96 -67 -96 -67 -83 -71 c 0,20,21
 -75 -75 -75 -75 -69 -95 c 0,22,23
 -62 -115 -62 -115 -48 -131 c 0,24,25
 -35 -147 -35 -147 -13 -151 c 0,26,27
 3 -155 3 -155 20 -149 c 0,28,29
 37 -144 37 -144 48 -131 c 0,30,31
 59 -119 59 -119 63 -94 c 256,32,33
 67 -69 67 -69 66 -29 c 256,34,35
 65 11 65 11 65 77 c 0,36,37
 66 143 66 143 66 182 c 0,38,39
 65 222 65 222 66 239 c 2,40,-1
 67 300 l 1,41,-1
 65 376 l 2,42,43
 64 408 64 408 61 421 c 0,44,45
 57 435 57 435 51 447 c 2,46,-1
 36 479 l 1,47,-1
 39 493 l 1,48,-1
 63 493 l 1,49,-1
 89 485 l 1,50,-1
 125 469 l 1,51,52
 139 457 139 457 139 449 c 256,53,54
 139 441 139 441 136 431 c 0,55,56
 127 411 127 411 125 404 c 256,57,58
 123 397 123 397 123 385 c 0,59,60
 122 373 122 373 122 343 c 2,61,-1
 122 295 l 1,0,-1
93 663 m 1,62,-1
 113 657 l 1,63,-1
 129 641 l 1,64,-1
 133 621 l 1,65,-1
 129 599 l 1,66,-1
 113 583 l 1,67,-1
 93 578 l 1,68,-1
 72 583 l 1,69,-1
 57 599 l 1,70,-1
 51 621 l 1,71,-1
 57 641 l 1,72,-1
 72 657 l 1,73,-1
 93 663 l 1,62,-1
EndSplineSet
EndChar
StartChar: k
Encoding: 107 107 78
Width: 480
Flags: W
LayerCount: 2
Back
Fore
SplineSet
173 299 m 1,0,1
 139 276 139 276 132 269 c 2,2,-1
 109 249 l 1,3,4
 109 186 109 186 108 152 c 256,5,6
 107 118 107 118 106 95 c 0,7,8
 104 71 104 71 97 49 c 0,9,10
 91 27 91 27 81 26 c 0,11,12
 72 25 72 25 61 40 c 0,13,14
 52 50 52 50 45 71 c 0,15,16
 37 91 37 91 36 102 c 0,17,18
 34 113 34 113 35 127 c 2,19,-1
 47 183 l 2,20,21
 49 201 49 201 50 239 c 256,22,23
 51 277 51 277 53 329 c 256,24,25
 55 381 55 381 56 427 c 0,26,27
 56 473 56 473 54 524 c 0,28,29
 53 555 53 555 50 577 c 0,30,31
 48 598 48 598 45 606 c 0,32,33
 42 615 42 615 32 637 c 0,34,35
 23 659 23 659 28 665 c 0,36,37
 34 671 34 671 41 671 c 0,38,39
 47 671 47 671 64 665 c 0,40,41
 80 658 80 658 86 655 c 0,42,43
 91 651 91 651 106 639 c 0,44,45
 121 628 121 628 123 622 c 0,46,47
 126 615 126 615 125 603 c 0,48,49
 124 595 124 595 119 574 c 0,50,51
 113 552 113 552 111 534 c 256,52,53
 109 516 109 516 109 487 c 2,54,-1
 109 423 l 2,55,56
 109 357 109 357 109 354 c 2,57,-1
 109 324 l 1,58,-1
 109 294 l 1,59,60
 143 330 143 330 162 352 c 0,61,62
 181 373 181 373 200 397 c 0,63,64
 219 420 219 420 229 435 c 256,65,66
 239 450 239 450 241 461 c 2,67,-1
 242 481 l 2,68,69
 243 489 243 489 246 495 c 0,70,71
 250 500 250 500 255 501 c 0,72,73
 261 501 261 501 269 497 c 0,74,75
 277 490 277 490 289 474 c 256,76,77
 301 458 301 458 307 445 c 0,78,79
 313 433 313 433 315 424 c 0,80,81
 315 415 315 415 311 409 c 0,82,83
 309 406 309 406 303 403 c 2,84,-1
 276 393 l 2,85,86
 265 387 265 387 249 372 c 256,87,88
 233 357 233 357 218 341 c 2,89,-1
 197 319 l 1,90,91
 219 287 219 287 239 259 c 0,92,93
 259 230 259 230 269 217 c 0,94,95
 279 203 279 203 309 167 c 256,96,97
 339 131 339 131 355 117 c 0,98,99
 370 104 370 104 391 95 c 2,100,-1
 435 77 l 2,101,102
 449 68 449 68 449 63 c 0,103,104
 448 59 448 59 436 51 c 0,105,106
 425 44 425 44 388 41 c 0,107,108
 351 39 351 39 343 40 c 0,109,110
 316 41 316 41 307 51 c 0,111,112
 297 59 297 59 288 82 c 256,113,114
 279 105 279 105 263 134 c 2,115,-1
 228 198 l 1,116,-1
 197 254 l 1,117,-1
 173 299 l 1,0,1
EndSplineSet
EndChar
StartChar: l
Encoding: 108 108 79
Width: 173
Flags: W
LayerCount: 2
Back
Fore
SplineSet
36 131 m 2,0,-1
 48 168 l 2,1,2
 52 183 52 183 54 207 c 0,3,4
 56 230 56 230 57 262 c 0,5,6
 58 295 58 295 58 383 c 2,7,-1
 56 487 l 1,8,-1
 54 559 l 1,9,-1
 51 599 l 1,10,-1
 44 627 l 1,11,-1
 34 645 l 1,12,-1
 30 671 l 1,13,-1
 46 675 l 1,14,-1
 64 669 l 1,15,-1
 88 660 l 1,16,-1
 110 648 l 1,17,-1
 124 636 l 1,18,-1
 126 621 l 1,19,-1
 118 601 l 1,20,-1
 112 567 l 1,21,-1
 110 530 l 1,22,-1
 110 485 l 1,23,-1
 110 393 l 2,24,25
 112 267 112 267 111 211 c 0,26,27
 110 168 110 168 109 138 c 0,28,29
 108 109 108 109 107 88 c 256,30,31
 106 67 106 67 100 49 c 0,32,33
 93 31 93 31 85 29 c 0,34,35
 78 27 78 27 62 51 c 0,36,37
 53 65 53 65 46 81 c 0,38,39
 38 97 38 97 36 109 c 0,40,41
 34 120 34 120 36 131 c 2,0,-1
EndSplineSet
EndChar
StartChar: m
Encoding: 109 109 80
Width: 579
Flags: W
LayerCount: 2
Back
Fore
SplineSet
297 401 m 1,0,1
 310 428 310 428 322 447 c 256,2,3
 334 466 334 466 353 478 c 0,4,5
 372 489 372 489 393 493 c 0,6,7
 419 495 419 495 443 487 c 0,8,9
 468 478 468 478 480 468 c 0,10,11
 493 457 493 457 507 437 c 0,12,13
 520 417 520 417 525 396 c 0,14,15
 530 374 530 374 531 327 c 0,16,17
 532 281 532 281 533 247 c 256,18,19
 534 213 534 213 533 167 c 0,20,21
 532 114 532 114 529 91 c 0,22,23
 526 67 526 67 520 49 c 0,24,25
 514 29 514 29 508 28 c 256,26,27
 502 27 502 27 488 47 c 0,28,29
 472 69 472 69 466 84 c 256,30,31
 460 99 460 99 462 111 c 2,32,-1
 471 133 l 2,33,34
 480 154 480 154 481 184 c 0,35,36
 482 213 482 213 484 246 c 256,37,38
 486 279 486 279 485 313 c 0,39,40
 484 355 484 355 474 383 c 0,41,42
 466 411 466 411 445 430 c 256,43,44
 424 449 424 449 398 447 c 0,45,46
 378 444 378 444 362 427 c 0,47,48
 345 410 345 410 331 370 c 0,49,50
 316 329 316 329 316 310 c 256,51,52
 316 291 316 291 316 279 c 2,53,-1
 315 164 l 2,54,55
 316 107 316 107 315 97 c 0,56,57
 313 73 313 73 306 51 c 0,58,59
 300 29 300 29 292 27 c 256,60,61
 284 25 284 25 269 48 c 0,62,63
 262 57 262 57 255 77 c 256,64,65
 248 97 248 97 247 105 c 0,66,67
 247 111 247 111 257 140 c 0,68,69
 263 159 263 159 265 202 c 0,70,71
 268 245 268 245 268 259 c 2,72,-1
 267 282 l 1,73,-1
 267 321 l 2,74,75
 266 345 266 345 261 376 c 256,76,77
 256 407 256 407 240 429 c 256,78,79
 224 451 224 451 195 451 c 256,80,81
 166 451 166 451 144 434 c 0,82,83
 126 419 126 419 116 395 c 0,84,85
 105 371 105 371 104 342 c 0,86,87
 102 332 102 332 103 314 c 0,88,89
 104 297 104 297 104 243 c 2,90,-1
 104 176 l 2,91,92
 104 159 104 159 104 130 c 0,93,94
 102 101 102 101 101 85 c 256,95,96
 100 69 100 69 93 49 c 256,97,98
 86 29 86 29 80 28 c 256,99,100
 74 27 74 27 62 46 c 0,101,102
 51 61 51 61 47 69 c 0,103,104
 43 78 43 78 39 89 c 0,105,106
 35 101 35 101 35 107 c 0,107,108
 34 113 34 113 48 152 c 0,109,110
 54 169 54 169 54 203 c 0,111,112
 54 236 54 236 56 281 c 0,113,114
 58 327 58 327 57 359 c 0,115,116
 54 396 54 396 48 420 c 0,117,118
 42 445 42 445 34 457 c 0,119,120
 27 471 27 471 27 480 c 0,121,122
 28 489 28 489 36 491 c 256,123,124
 44 493 44 493 56 485 c 0,125,126
 82 465 82 465 89 459 c 2,127,-1
 103 443 l 1,128,129
 119 461 119 461 138 475 c 0,130,131
 156 489 156 489 186 491 c 256,132,133
 216 493 216 493 247 478 c 256,134,135
 278 463 278 463 285 437 c 2,136,-1
 297 401 l 1,0,1
EndSplineSet
EndChar
StartChar: n
Encoding: 110 110 81
Width: 365
Flags: W
LayerCount: 2
Back
Fore
SplineSet
94 442 m 0,0,1
 114 461 114 461 137 475 c 0,2,3
 159 489 159 489 194 490 c 0,4,5
 222 491 222 491 248 477 c 0,6,7
 274 464 274 464 291 441 c 0,8,9
 308 417 308 417 313 388 c 256,10,11
 318 359 318 359 318 320 c 0,12,13
 317 281 317 281 318 236 c 0,14,15
 318 191 318 191 318 178 c 256,16,17
 318 165 318 165 317 133 c 0,18,19
 317 102 317 102 315 88 c 0,20,21
 314 73 314 73 307 52 c 0,22,23
 301 31 301 31 296 31 c 0,24,25
 290 30 290 30 281 39 c 0,26,27
 267 52 267 52 261 66 c 0,28,29
 255 81 255 81 253 91 c 0,30,31
 252 101 252 101 253 111 c 2,32,-1
 262 155 l 2,33,34
 265 168 265 168 267 205 c 2,35,-1
 269 243 l 1,36,-1
 271 305 l 2,37,38
 272 359 272 359 266 382 c 256,39,40
 260 405 260 405 241 427 c 0,41,42
 222 447 222 447 189 447 c 0,43,44
 170 447 170 447 151 435 c 0,45,46
 132 424 132 424 120 403 c 0,47,48
 107 381 107 381 105 350 c 0,49,50
 104 342 104 342 104 321 c 0,51,52
 105 299 105 299 105 277 c 2,53,-1
 106 181 l 2,54,55
 105 162 105 162 104 134 c 0,56,57
 104 107 104 107 102 90 c 0,58,59
 101 73 101 73 94 54 c 0,60,61
 88 35 88 35 82 34 c 256,62,63
 76 33 76 33 63 52 c 0,64,65
 53 66 53 66 48 76 c 256,66,67
 43 86 43 86 40 96 c 256,68,69
 37 106 37 106 38 117 c 2,70,-1
 50 160 l 2,71,72
 52 169 52 169 53 195 c 256,73,74
 54 221 54 221 54 233 c 2,75,-1
 54 293 l 2,76,77
 52 372 52 372 50 396 c 0,78,79
 48 419 48 419 37 440 c 256,80,81
 26 461 26 461 26 473 c 256,82,83
 26 485 26 485 32 487 c 0,84,85
 38 490 38 490 50 483 c 0,86,87
 66 473 66 473 80 457 c 0,88,89
 93 441 93 441 94 442 c 0,0,1
EndSplineSet
EndChar
StartChar: o
Encoding: 111 111 82
Width: 387
Flags: W
LayerCount: 2
Back
Fore
SplineSet
188 493 m 256,0,1
 224 493 224 493 263 466 c 256,2,3
 302 439 302 439 324 384 c 256,4,5
 346 329 346 329 347 271 c 0,6,7
 347 213 347 213 326 157 c 0,8,9
 304 103 304 103 267 73 c 256,10,11
 230 43 230 43 189 43 c 256,12,13
 148 43 148 43 110 73 c 0,14,15
 74 103 74 103 52 157 c 0,16,17
 32 211 32 211 32 272 c 0,18,19
 32 331 32 331 53 385 c 256,20,21
 74 439 74 439 113 466 c 256,22,23
 152 493 152 493 188 493 c 256,0,1
186 447 m 256,24,25
 162 447 162 447 136 426 c 256,26,27
 110 405 110 405 94 361 c 0,28,29
 80 317 80 317 79 273 c 0,30,31
 79 228 79 228 94 181 c 0,32,33
 108 137 108 137 133 113 c 256,34,35
 158 89 158 89 185 88 c 0,36,37
 212 88 212 88 239 113 c 0,38,39
 264 137 264 137 279 182 c 256,40,41
 294 227 294 227 294 274 c 0,42,43
 293 318 293 318 278 361 c 0,44,45
 264 405 264 405 237 426 c 256,46,47
 210 447 210 447 186 447 c 256,24,25
EndSplineSet
EndChar
StartChar: p
Encoding: 112 112 83
Width: 383
Flags: W
LayerCount: 2
Back
Fore
SplineSet
94 95 m 1,0,1
 92 -1 92 -1 94 -39 c 0,2,3
 95 -77 95 -77 96 -97 c 0,4,5
 96 -117 96 -117 94 -145 c 0,6,7
 91 -168 91 -168 84 -183 c 0,8,9
 77 -197 77 -197 70 -199 c 0,10,11
 64 -200 64 -200 52 -182 c 0,12,13
 41 -166 41 -166 34 -147 c 0,14,15
 26 -129 26 -129 26 -120 c 256,16,17
 26 -111 26 -111 30 -93 c 0,18,19
 36 -73 36 -73 38 -55 c 0,20,21
 42 -37 42 -37 42 3 c 0,22,23
 42 24 42 24 42 149 c 256,24,25
 42 274 42 274 42 298 c 0,26,27
 42 323 42 323 42 345 c 0,28,29
 43 369 43 369 42 379 c 0,30,31
 42 392 42 392 38 422 c 0,32,33
 34 451 34 451 30 464 c 256,34,35
 26 477 26 477 26 483 c 256,36,37
 26 489 26 489 29 493 c 256,38,39
 32 497 32 497 45 495 c 0,40,41
 58 491 58 491 74 475 c 2,42,-1
 94 456 l 1,43,44
 124 471 124 471 143 479 c 0,45,46
 163 486 163 486 188 487 c 0,47,48
 212 489 212 489 234 482 c 0,49,50
 254 475 254 475 275 458 c 256,51,52
 296 441 296 441 310 411 c 0,53,54
 325 380 325 380 332 335 c 0,55,56
 338 290 338 290 338 247 c 0,57,58
 336 201 336 201 324 157 c 256,59,60
 312 113 312 113 290 87 c 256,61,62
 268 61 268 61 241 51 c 256,63,64
 214 41 214 41 190 43 c 0,65,66
 150 45 150 45 137 59 c 2,67,-1
 94 95 l 1,0,1
94 389 m 1,68,-1
 94 286 l 1,69,-1
 94 161 l 1,70,71
 109 135 109 135 124 119 c 0,72,73
 138 103 138 103 166 94 c 0,74,75
 193 85 193 85 218 95 c 0,76,77
 248 106 248 106 262 137 c 0,78,79
 276 169 276 169 280 212 c 256,80,81
 284 255 284 255 284 279 c 0,82,83
 284 304 284 304 279 337 c 0,84,85
 274 369 274 369 260 394 c 0,86,87
 247 419 247 419 224 430 c 0,88,89
 202 442 202 442 178 441 c 0,90,91
 152 441 152 441 131 428 c 256,92,93
 110 415 110 415 103 403 c 2,94,-1
 94 389 l 1,68,-1
EndSplineSet
EndChar
StartChar: q
Encoding: 113 113 84
Width: 389
Flags: W
LayerCount: 2
Back
Fore
SplineSet
277 97 m 1,0,1
 252 69 252 69 232 57 c 0,2,3
 213 45 213 45 186 44 c 0,4,5
 160 42 160 42 133 52 c 0,6,7
 105 63 105 63 82 89 c 0,8,9
 58 115 58 115 46 157 c 0,10,11
 35 200 35 200 34 242 c 0,12,13
 32 284 32 284 36 315 c 0,14,15
 38 335 38 335 44 363 c 0,16,17
 50 390 50 390 62 415 c 0,18,19
 75 441 75 441 97 458 c 256,20,21
 119 475 119 475 140 481 c 0,22,23
 162 488 162 488 188 486 c 0,24,25
 220 483 220 483 234 475 c 2,26,-1
 277 450 l 1,27,28
 278 467 278 467 277 483 c 0,29,30
 277 499 277 499 283 503 c 0,31,32
 290 508 290 508 306 501 c 0,33,34
 316 495 316 495 324 487 c 0,35,36
 332 477 332 477 344 459 c 0,37,38
 355 441 355 441 355 433 c 0,39,40
 354 429 354 429 345 411 c 256,41,42
 336 393 336 393 332 362 c 0,43,44
 330 332 330 332 329 304 c 2,45,-1
 329 255 l 1,46,-1
 328 1 l 2,47,48
 328 -34 328 -34 328 -76 c 0,49,50
 329 -118 329 -118 328 -133 c 0,51,52
 328 -159 328 -159 320 -179 c 0,53,54
 313 -198 313 -198 305 -199 c 0,55,56
 297 -199 297 -199 286 -187 c 0,57,58
 274 -175 274 -175 267 -159 c 0,59,60
 260 -144 260 -144 258 -137 c 0,61,62
 256 -131 256 -131 264 -105 c 0,63,64
 267 -91 267 -91 270 -60 c 0,65,66
 274 -29 274 -29 274 -13 c 2,67,-1
 277 97 l 1,0,1
277 395 m 1,68,69
 270 402 270 402 263 410 c 256,70,71
 256 418 256 418 237 428 c 0,72,73
 218 437 218 437 192 438 c 0,74,75
 168 438 168 438 146 427 c 0,76,77
 123 415 123 415 110 392 c 0,78,79
 96 369 96 369 91 338 c 256,80,81
 86 307 86 307 86 281 c 0,82,83
 86 254 86 254 89 221 c 0,84,85
 93 173 93 173 108 143 c 0,86,87
 122 114 122 114 152 101 c 0,88,89
 181 87 181 87 214 99 c 0,90,91
 246 109 246 109 255 127 c 2,92,-1
 277 161 l 1,93,-1
 277 287 l 1,94,-1
 277 395 l 1,68,69
EndSplineSet
EndChar
StartChar: r
Encoding: 114 114 85
Width: 326
Flags: W
LayerCount: 2
Back
Fore
SplineSet
103 451 m 1,0,1
 123 465 123 465 141 474 c 256,2,3
 159 483 159 483 185 485 c 0,4,5
 209 485 209 485 237 473 c 0,6,7
 265 460 265 460 278 440 c 0,8,9
 290 419 290 419 291 395 c 0,10,11
 291 370 291 370 286 347 c 0,12,13
 281 327 281 327 271 319 c 0,14,15
 261 309 261 309 254 312 c 256,16,17
 247 315 247 315 247 333 c 2,18,-1
 252 374 l 2,19,20
 253 399 253 399 236 419 c 0,21,22
 219 438 219 438 191 438 c 0,23,24
 175 437 175 437 154 427 c 256,25,26
 133 417 133 417 128 406 c 2,27,-1
 111 380 l 1,28,29
 111 365 111 365 111 343 c 256,30,31
 111 321 111 321 111 297 c 256,32,33
 111 273 111 273 111 263 c 2,34,-1
 111 173 l 2,35,36
 111 148 111 148 111 125 c 0,37,38
 110 103 110 103 108 86 c 0,39,40
 106 70 106 70 100 52 c 0,41,42
 93 34 93 34 87 33 c 0,43,44
 81 31 81 31 69 47 c 0,45,46
 63 55 63 55 55 70 c 256,47,48
 47 85 47 85 45 91 c 0,49,50
 44 98 44 98 46 109 c 2,51,-1
 55 150 l 2,52,53
 59 167 59 167 60 197 c 2,54,-1
 61 244 l 2,55,56
 63 311 63 311 64 332 c 0,57,58
 64 352 64 352 61 385 c 0,59,60
 58 422 58 422 51 447 c 2,61,-1
 36 490 l 2,62,63
 33 503 33 503 37 508 c 256,64,65
 41 513 41 513 49 511 c 0,66,67
 55 510 55 510 69 497 c 0,68,69
 83 483 83 483 89 474 c 2,70,-1
 103 451 l 1,0,1
EndSplineSet
EndChar
StartChar: s
Encoding: 115 115 86
Width: 331
Flags: W
LayerCount: 2
Back
Fore
SplineSet
230 459 m 0,0,1
 234 470 234 470 243 482 c 0,2,3
 252 493 252 493 261 493 c 0,4,5
 270 492 270 492 273 456 c 0,6,7
 274 429 274 429 273 401 c 256,8,9
 272 373 272 373 273 352 c 0,10,11
 275 332 275 332 268 327 c 0,12,13
 260 323 260 323 253 327 c 0,14,15
 246 329 246 329 241 348 c 256,16,17
 236 367 236 367 229 386 c 0,18,19
 221 405 221 405 209 419 c 0,20,21
 198 433 198 433 172 442 c 256,22,23
 146 451 146 451 122 437 c 256,24,25
 98 423 98 423 90 394 c 0,26,27
 81 365 81 365 90 346 c 0,28,29
 97 327 97 327 116 317 c 0,30,31
 135 306 135 306 171 296 c 0,32,33
 208 286 208 286 231 275 c 0,34,35
 254 263 254 263 272 242 c 0,36,37
 291 221 291 221 294 181 c 0,38,39
 298 141 298 141 285 112 c 0,40,41
 274 89 274 89 256 73 c 0,42,43
 237 57 237 57 214 50 c 0,44,45
 191 44 191 44 164 45 c 0,46,47
 129 47 129 47 104 58 c 0,48,49
 80 69 80 69 66 85 c 0,50,51
 52 99 52 99 46 117 c 0,52,53
 39 134 39 134 34 155 c 0,54,55
 30 175 30 175 32 185 c 256,56,57
 34 195 34 195 40 197 c 0,58,59
 46 200 46 200 56 190 c 0,60,61
 60 185 60 185 66 171 c 0,62,63
 71 156 71 156 83 137 c 0,64,65
 95 119 95 119 113 106 c 0,66,67
 132 93 132 93 166 93 c 0,68,69
 190 92 190 92 210 102 c 0,70,71
 230 111 230 111 239 132 c 256,72,73
 248 153 248 153 242 181 c 0,74,75
 235 205 235 205 221 220 c 0,76,77
 206 235 206 235 184 245 c 2,78,-1
 114 268 l 2,79,80
 78 279 78 279 63 295 c 0,81,82
 47 311 47 311 40 341 c 0,83,84
 32 371 32 371 46 410 c 0,85,86
 52 429 52 429 65 447 c 256,87,88
 78 465 78 465 99 476 c 256,89,90
 120 487 120 487 147 488 c 0,91,92
 178 488 178 488 203 472 c 256,93,94
 228 456 228 456 230 459 c 0,0,1
EndSplineSet
EndChar
StartChar: t
Encoding: 116 116 87
Width: 354
Flags: W
LayerCount: 2
Back
Fore
SplineSet
186 429 m 1,0,1
 184 409 184 409 184 399 c 2,2,-1
 184 345 l 1,3,-1
 181 253 l 1,4,-1
 181 187 l 2,5,6
 178 146 178 146 185 128 c 0,7,8
 191 109 191 109 208 103 c 0,9,10
 226 97 226 97 242 105 c 0,11,12
 254 112 254 112 262 132 c 0,13,14
 271 151 271 151 274 171 c 0,15,16
 278 189 278 189 280 222 c 0,17,18
 284 254 284 254 290 255 c 256,19,20
 296 256 296 256 304 241 c 0,21,22
 312 227 312 227 311 199 c 2,23,-1
 311 149 l 2,24,25
 310 124 310 124 304 103 c 0,26,27
 298 81 298 81 283 65 c 256,28,29
 268 49 268 49 234 47 c 0,30,31
 220 45 220 45 204 48 c 0,32,33
 187 51 187 51 169 63 c 0,34,35
 150 75 150 75 142 91 c 256,36,37
 134 107 134 107 132 135 c 0,38,39
 128 164 128 164 128 195 c 0,40,41
 128 225 128 225 130 275 c 0,42,43
 132 311 132 311 132 325 c 2,44,-1
 132 398 l 1,45,-1
 132 422 l 1,46,47
 110 415 110 415 93 411 c 256,48,49
 76 407 76 407 63 410 c 0,50,51
 52 413 52 413 38 424 c 0,52,53
 26 435 26 435 26 442 c 256,54,55
 26 449 26 449 27 452 c 0,56,57
 30 457 30 457 50 456 c 0,58,59
 71 455 71 455 87 459 c 2,60,-1
 130 468 l 1,61,-1
 129 517 l 2,62,63
 128 557 128 557 124 571 c 2,64,-1
 114 591 l 2,65,66
 106 608 106 608 110 613 c 0,67,68
 114 617 114 617 122 617 c 0,69,70
 126 617 126 617 130 616 c 256,71,72
 134 615 134 615 164 602 c 0,73,74
 194 590 194 590 197 581 c 0,75,76
 200 573 200 573 200 564 c 0,77,78
 198 555 198 555 195 543 c 0,79,80
 191 530 191 530 190 525 c 2,81,-1
 190 508 l 1,82,-1
 188 475 l 1,83,84
 225 481 225 481 241 487 c 0,85,86
 256 494 256 494 261 495 c 0,87,88
 271 495 271 495 285 489 c 0,89,90
 298 481 298 481 310 473 c 0,91,92
 320 463 320 463 319 456 c 256,93,94
 318 449 318 449 302 444 c 0,95,96
 288 439 288 439 260 439 c 256,97,98
 232 439 232 439 224 437 c 2,99,-1
 186 429 l 1,0,1
EndSplineSet
EndChar
StartChar: u
Encoding: 117 117 88
Width: 385
Flags: W
LayerCount: 2
Back
Fore
SplineSet
278 77 m 0,0,1
 259 63 259 63 246 57 c 0,2,3
 232 51 232 51 208 46 c 0,4,5
 183 41 183 41 160 44 c 0,6,7
 128 47 128 47 106 61 c 0,8,9
 85 75 85 75 74 93 c 0,10,11
 62 111 62 111 57 139 c 0,12,13
 52 166 52 166 52 205 c 2,14,-1
 52 273 l 1,15,-1
 50 351 l 2,16,17
 50 373 50 373 50 398 c 256,18,19
 50 423 50 423 48 435 c 0,20,21
 46 449 46 449 42 459 c 2,22,-1
 32 475 l 2,23,24
 24 491 24 491 28 495 c 0,25,26
 32 501 32 501 40 501 c 0,27,28
 47 502 47 502 58 497 c 0,29,30
 70 491 70 491 84 486 c 0,31,32
 97 481 97 481 103 474 c 0,33,34
 108 467 108 467 109 459 c 0,35,36
 109 452 109 452 106 439 c 0,37,38
 102 425 102 425 101 409 c 256,39,40
 100 393 100 393 99 375 c 0,41,42
 98 353 98 353 99 303 c 0,43,44
 100 252 100 252 98 217 c 0,45,46
 98 181 98 181 100 165 c 0,47,48
 104 137 104 137 118 117 c 0,49,50
 133 97 133 97 163 90 c 0,51,52
 188 83 188 83 215 92 c 256,53,54
 242 101 242 101 257 117 c 256,55,56
 272 133 272 133 277 153 c 256,57,58
 282 173 282 173 285 225 c 0,59,60
 287 277 287 277 287 292 c 2,61,-1
 286 327 l 1,62,-1
 286 389 l 2,63,64
 286 393 286 393 284 417 c 256,65,66
 282 441 282 441 279 447 c 0,67,68
 277 453 277 453 268 471 c 0,69,70
 260 489 260 489 264 493 c 0,71,72
 269 497 269 497 276 498 c 0,73,74
 283 498 283 498 297 492 c 0,75,76
 312 486 312 486 317 483 c 0,77,78
 323 479 323 479 334 472 c 0,79,80
 346 465 346 465 348 459 c 0,81,82
 350 454 350 454 350 445 c 0,83,84
 348 439 348 439 344 423 c 256,85,86
 340 407 340 407 338 393 c 256,87,88
 336 379 336 379 335 369 c 0,89,90
 335 357 335 357 336 327 c 2,91,-1
 336 273 l 1,92,-1
 336 182 l 2,93,94
 336 166 336 166 335 136 c 0,95,96
 335 107 335 107 333 91 c 256,97,98
 331 75 331 75 325 55 c 0,99,100
 319 37 319 37 313 35 c 0,101,102
 289 25 289 25 286 53 c 0,103,104
 284 81 284 81 278 77 c 0,0,1
EndSplineSet
EndChar
StartChar: v
Encoding: 118 118 89
Width: 442
Flags: W
LayerCount: 2
Back
Fore
SplineSet
401 432 m 0,0,1
 401 427 401 427 397 417 c 2,2,-1
 375 388 l 2,3,4
 370 381 370 381 367 370 c 256,5,6
 364 359 364 359 346 303 c 256,7,8
 328 247 328 247 328 246 c 2,9,-1
 308 192 l 2,10,11
 288 137 288 137 284 125 c 0,12,13
 278 113 278 113 268 91 c 0,14,15
 258 70 258 70 252 58 c 0,16,17
 246 47 246 47 238 41 c 0,18,19
 230 37 230 37 223 37 c 0,20,21
 213 37 213 37 204 45 c 0,22,23
 195 54 195 54 186 75 c 0,24,25
 178 95 178 95 168 117 c 0,26,27
 160 138 160 138 150 162 c 0,28,29
 141 186 141 186 131 215 c 0,30,31
 120 243 120 243 114 263 c 0,32,33
 108 282 108 282 100 307 c 0,34,35
 92 331 92 331 84 360 c 0,36,37
 75 388 75 388 71 403 c 0,38,39
 66 417 66 417 62 428 c 0,40,41
 57 439 57 439 48 451 c 2,42,-1
 32 471 l 2,43,44
 26 477 26 477 26 484 c 256,45,46
 26 491 26 491 33 494 c 0,47,48
 40 498 40 498 58 493 c 2,49,-1
 86 486 l 2,50,51
 96 483 96 483 109 478 c 256,52,53
 122 473 122 473 130 464 c 256,54,55
 138 455 138 455 138 450 c 256,56,57
 138 445 138 445 135 432 c 256,58,59
 132 419 132 419 134 403 c 0,60,61
 136 388 136 388 139 375 c 0,62,63
 142 361 142 361 153 325 c 0,64,65
 164 290 164 290 172 261 c 2,66,-1
 186 203 l 1,67,-1
 206 133 l 2,68,69
 218 79 218 79 223 81 c 0,70,71
 226 82 226 82 237 119 c 2,72,-1
 256 182 l 2,73,74
 262 199 262 199 273 244 c 256,75,76
 284 289 284 289 294 324 c 0,77,78
 303 360 303 360 307 376 c 0,79,80
 310 393 310 393 314 414 c 0,81,82
 317 435 317 435 317 443 c 2,83,-1
 312 479 l 2,84,85
 312 495 312 495 320 499 c 0,86,87
 328 504 328 504 348 493 c 0,88,89
 361 486 361 486 372 478 c 0,90,91
 382 469 382 469 391 456 c 256,92,93
 400 443 400 443 401 432 c 0,0,1
EndSplineSet
EndChar
StartChar: w
Encoding: 119 119 90
Width: 575
Flags: W
LayerCount: 2
Back
Fore
SplineSet
292 318 m 1,0,1
 282 287 282 287 274 257 c 0,2,3
 265 227 265 227 248 177 c 0,4,5
 232 127 232 127 220 99 c 0,6,7
 209 72 209 72 201 57 c 0,8,9
 193 43 193 43 185 37 c 256,10,11
 177 31 177 31 171 32 c 0,12,13
 164 33 164 33 158 43 c 256,14,15
 152 53 152 53 147 65 c 256,16,17
 142 77 142 77 132 112 c 0,18,19
 122 146 122 146 116 166 c 0,20,21
 111 185 111 185 103 220 c 0,22,23
 94 255 94 255 88 279 c 0,24,25
 82 304 82 304 80 311 c 256,26,27
 78 318 78 318 72 350 c 0,28,29
 66 381 66 381 62 403 c 256,30,31
 58 425 58 425 53 439 c 0,32,33
 49 452 49 452 45 459 c 2,34,-1
 32 475 l 2,35,36
 28 482 28 482 30 488 c 256,37,38
 32 494 32 494 39 498 c 0,39,40
 46 501 46 501 67 495 c 0,41,42
 94 485 94 485 104 480 c 0,43,44
 114 476 114 476 123 467 c 256,45,46
 132 458 132 458 132 448 c 2,47,-1
 123 419 l 2,48,49
 120 410 120 410 124 391 c 2,50,-1
 134 324 l 2,51,52
 136 304 136 304 142 267 c 0,53,54
 148 229 148 229 152 205 c 256,55,56
 156 181 156 181 165 137 c 256,57,58
 174 93 174 93 179 97 c 0,59,60
 182 98 182 98 188 121 c 2,61,-1
 209 183 l 2,62,63
 214 200 214 200 227 256 c 0,64,65
 240 311 240 311 244 326 c 0,66,67
 247 340 247 340 253 369 c 0,68,69
 260 399 260 399 263 418 c 256,70,71
 266 437 266 437 273 446 c 256,72,73
 280 455 280 455 295 458 c 256,74,75
 310 461 310 461 324 437 c 0,76,77
 327 430 327 430 331 413 c 2,78,-1
 340 375 l 2,79,80
 340 373 340 373 344 341 c 0,81,82
 349 311 349 311 357 271 c 0,83,84
 364 233 364 233 375 195 c 0,85,86
 385 157 385 157 391 123 c 0,87,88
 396 88 396 88 400 93 c 0,89,90
 402 95 402 95 406 115 c 2,91,-1
 416 164 l 2,92,93
 418 178 418 178 429 224 c 0,94,95
 439 271 439 271 446 305 c 0,96,97
 452 339 452 339 457 369 c 0,98,99
 462 400 462 400 464 421 c 0,100,101
 466 445 466 445 461 462 c 256,102,103
 456 479 456 479 458 487 c 0,104,105
 459 494 459 494 464 496 c 0,106,107
 470 499 470 499 480 495 c 0,108,109
 496 487 496 487 509 481 c 0,110,111
 521 473 521 473 530 460 c 0,112,113
 540 447 540 447 538 435 c 0,114,115
 538 431 538 431 527 414 c 256,116,117
 516 397 516 397 510 366 c 2,118,-1
 496 302 l 1,119,-1
 484 247 l 1,120,-1
 464 175 l 1,121,-1
 450 123 l 2,122,123
 446 105 446 105 436 82 c 0,124,125
 426 58 426 58 417 43 c 0,126,127
 408 29 408 29 400 29 c 256,128,129
 392 29 392 29 383 39 c 256,130,131
 374 49 374 49 366 75 c 2,132,-1
 339 149 l 2,133,134
 332 167 332 167 321 211 c 0,135,136
 310 254 310 254 300 286 c 0,137,138
 291 317 291 317 292 318 c 1,0,1
EndSplineSet
EndChar
StartChar: x
Encoding: 120 120 91
Width: 471
Flags: W
LayerCount: 2
Back
Fore
SplineSet
235 247 m 1,0,1
 220 229 220 229 210 217 c 0,2,3
 200 204 200 204 192 193 c 2,4,-1
 156 143 l 1,5,-1
 112 91 l 2,6,7
 88 59 88 59 67 45 c 256,8,9
 46 31 46 31 39 38 c 256,10,11
 32 45 32 45 34 65 c 0,12,13
 35 84 35 84 40 99 c 0,14,15
 44 115 44 115 52 120 c 2,16,-1
 71 127 l 2,17,18
 80 130 80 130 92 141 c 0,19,20
 104 153 104 153 133 189 c 0,21,22
 162 227 162 227 166 231 c 2,23,-1
 208 281 l 1,24,25
 201 289 201 289 195 297 c 0,26,27
 190 305 190 305 185 311 c 0,28,29
 181 316 181 316 142 363 c 2,30,-1
 124 386 l 2,31,32
 102 412 102 412 87 425 c 0,33,34
 72 439 72 439 53 451 c 256,35,36
 34 463 34 463 32 470 c 256,37,38
 30 477 30 477 32 482 c 256,39,40
 34 487 34 487 48 488 c 256,41,42
 62 489 62 489 78 486 c 2,43,-1
 115 479 l 2,44,45
 137 477 137 477 142 472 c 0,46,47
 148 467 148 467 150 461 c 2,48,-1
 154 432 l 2,49,50
 156 421 156 421 168 405 c 2,51,-1
 194 371 l 1,52,-1
 218 337 l 1,53,-1
 235 313 l 1,54,55
 260 343 260 343 274 359 c 2,56,-1
 329 427 l 2,57,58
 356 459 356 459 368 475 c 0,59,60
 378 491 378 491 386 499 c 256,61,62
 394 507 394 507 400 507 c 0,63,64
 406 505 406 505 410 487 c 0,65,66
 414 468 414 468 416 455 c 0,67,68
 418 441 418 441 416 431 c 0,69,70
 414 419 414 419 407 413 c 2,71,-1
 382 405 l 2,72,73
 372 401 372 401 357 386 c 256,74,75
 342 371 342 371 329 357 c 2,76,-1
 302 327 l 1,77,-1
 272 294 l 1,78,-1
 261 281 l 1,79,80
 290 248 290 248 304 231 c 2,81,-1
 350 169 l 2,82,83
 368 147 368 147 382 130 c 0,84,85
 396 114 396 114 411 97 c 0,86,87
 426 79 426 79 433 63 c 0,88,89
 439 47 439 47 436 42 c 0,90,91
 432 36 432 36 408 42 c 0,92,93
 383 48 383 48 367 55 c 0,94,95
 351 63 351 63 344 72 c 0,96,97
 336 82 336 82 332 97 c 0,98,99
 328 111 328 111 325 117 c 0,100,101
 322 124 322 124 300 158 c 0,102,103
 278 191 278 191 269 203 c 0,104,105
 261 214 261 214 252 227 c 2,106,-1
 235 247 l 1,0,1
EndSplineSet
EndChar
StartChar: y
Encoding: 121 121 92
Width: 502
Flags: W
LayerCount: 2
Back
Fore
SplineSet
251 32 m 1,0,1
 223 81 223 81 211 106 c 0,2,3
 199 130 199 130 169 196 c 0,4,5
 141 262 141 262 131 284 c 0,6,7
 122 305 122 305 112 332 c 0,8,9
 101 358 101 358 93 383 c 0,10,11
 84 408 84 408 77 423 c 0,12,13
 71 438 71 438 61 445 c 2,14,-1
 36 461 l 2,15,16
 25 472 25 472 28 478 c 0,17,18
 31 485 31 485 40 487 c 0,19,20
 49 490 49 490 63 490 c 0,21,22
 81 489 81 489 98 485 c 256,23,24
 115 481 115 481 131 473 c 256,25,26
 147 465 147 465 149 457 c 0,27,28
 150 453 150 453 147 436 c 0,29,30
 145 419 145 419 149 398 c 0,31,32
 153 379 153 379 160 357 c 0,33,34
 167 334 167 334 184 292 c 2,35,-1
 211 225 l 2,36,37
 223 193 223 193 232 169 c 256,38,39
 241 145 241 145 249 128 c 0,40,41
 259 112 259 112 266 112 c 0,42,43
 273 111 273 111 285 140 c 0,44,45
 294 165 294 165 299 179 c 0,46,47
 305 193 305 193 320 239 c 0,48,49
 335 286 335 286 339 297 c 2,50,-1
 358 351 l 1,51,-1
 373 395 l 2,52,53
 383 425 383 425 384 435 c 0,54,55
 385 450 385 450 381 467 c 256,56,57
 377 484 377 484 379 488 c 0,58,59
 381 491 381 491 389 495 c 0,60,61
 397 498 397 498 416 488 c 0,62,63
 436 477 436 477 453 459 c 256,64,65
 470 441 470 441 469 429 c 0,66,67
 468 422 468 422 463 416 c 2,68,-1
 451 406 l 2,69,70
 443 399 443 399 434 383 c 0,71,72
 426 368 426 368 414 342 c 0,73,74
 403 317 403 317 388 281 c 256,75,76
 373 245 373 245 347 168 c 256,77,78
 321 91 321 91 299 15 c 0,79,80
 279 -61 279 -61 267 -88 c 256,81,82
 255 -115 255 -115 238 -141 c 0,83,84
 221 -166 221 -166 201 -183 c 0,85,86
 181 -199 181 -199 139 -200 c 0,87,88
 112 -201 112 -201 88 -189 c 0,89,90
 63 -177 63 -177 53 -159 c 256,91,92
 43 -141 43 -141 37 -118 c 0,93,94
 30 -96 30 -96 35 -82 c 0,95,96
 41 -68 41 -68 47 -68 c 0,97,98
 53 -67 53 -67 61 -80 c 2,99,-1
 77 -117 l 2,100,101
 87 -138 87 -138 101 -147 c 0,102,103
 115 -157 115 -157 137 -154 c 0,104,105
 158 -152 158 -152 174 -140 c 0,106,107
 189 -127 189 -127 206 -96 c 256,108,109
 223 -65 223 -65 229 -41 c 2,110,-1
 251 32 l 1,0,1
EndSplineSet
EndChar
StartChar: z
Encoding: 122 122 93
Width: 378
Flags: W
LayerCount: 2
Back
Fore
SplineSet
104 92 m 1,0,1
 134 95 134 95 162 97 c 0,2,3
 190 100 190 100 202 101 c 2,4,-1
 238 107 l 2,5,6
 258 109 258 109 272 114 c 0,7,8
 287 119 287 119 291 119 c 0,9,10
 299 118 299 118 306 112 c 0,11,12
 314 105 314 105 324 92 c 0,13,14
 336 79 336 79 339 71 c 0,15,16
 343 65 343 65 342 60 c 0,17,18
 340 55 340 55 324 55 c 0,19,20
 316 55 316 55 299 57 c 0,21,22
 281 59 281 59 262 59 c 0,23,24
 250 59 250 59 215 58 c 0,25,26
 181 57 181 57 173 55 c 0,27,28
 165 55 165 55 137 49 c 0,29,30
 110 45 110 45 96 39 c 256,31,32
 82 33 82 33 79 33 c 0,33,34
 68 33 68 33 60 41 c 256,35,36
 52 49 52 49 44 68 c 256,37,38
 36 87 36 87 38 92 c 0,39,40
 38 94 38 94 50 103 c 0,41,42
 62 111 62 111 70 127 c 0,43,44
 78 142 78 142 98 179 c 2,45,-1
 140 257 l 2,46,47
 162 298 162 298 184 338 c 0,48,49
 206 377 206 377 219 397 c 256,50,51
 232 417 232 417 228 423 c 256,52,53
 224 429 224 429 214 432 c 0,54,55
 205 434 205 434 182 429 c 2,56,-1
 136 422 l 2,57,58
 118 419 118 419 103 412 c 256,59,60
 88 405 88 405 83 405 c 0,61,62
 74 405 74 405 58 418 c 256,63,64
 42 431 42 431 34 438 c 0,65,66
 28 445 28 445 28 449 c 0,67,68
 28 456 28 456 43 459 c 0,69,70
 58 463 58 463 75 463 c 0,71,72
 91 465 91 465 118 467 c 0,73,74
 144 469 144 469 170 473 c 2,75,-1
 223 480 l 2,76,77
 240 482 240 482 254 486 c 0,78,79
 266 490 266 490 271 489 c 0,80,81
 277 488 277 488 288 475 c 0,82,83
 300 463 300 463 304 451 c 256,84,85
 308 439 308 439 302 429 c 0,86,87
 300 425 300 425 289 417 c 0,88,89
 279 409 279 409 271 397 c 0,90,91
 264 386 264 386 251 363 c 0,92,93
 238 339 238 339 222 311 c 0,94,95
 206 284 206 284 173 225 c 0,96,97
 140 165 140 165 122 129 c 2,98,-1
 104 92 l 1,0,1
EndSplineSet
EndChar
StartChar: braceleft
Encoding: 123 123 94
Width: 293
Flags: W
LayerCount: 2
Back
Fore
SplineSet
70 310 m 1,0,1
 78 305 78 305 84 301 c 256,2,3
 90 297 90 297 105 287 c 256,4,5
 120 277 120 277 135 261 c 256,6,7
 150 245 150 245 159 224 c 0,8,9
 168 204 168 204 173 178 c 256,10,11
 178 152 178 152 179 129 c 0,12,13
 179 106 179 106 171 62 c 0,14,15
 163 19 163 19 160 -9 c 0,16,17
 157 -35 157 -35 166 -67 c 0,18,19
 174 -95 174 -95 189 -113 c 0,20,21
 204 -129 204 -129 221 -140 c 256,22,23
 238 -151 238 -151 244 -157 c 0,24,25
 249 -163 249 -163 248 -167 c 0,26,27
 246 -171 246 -171 236 -171 c 0,28,29
 221 -173 221 -173 201 -163 c 256,30,31
 181 -153 181 -153 165 -141 c 256,32,33
 149 -129 149 -129 136 -108 c 0,34,35
 124 -88 124 -88 117 -68 c 0,36,37
 110 -47 110 -47 108 -23 c 0,38,39
 105 1 105 1 108 21 c 0,40,41
 108 31 108 31 116 63 c 0,42,43
 122 96 122 96 127 129 c 0,44,45
 132 163 132 163 130 187 c 0,46,47
 128 221 128 221 116 240 c 0,48,49
 105 259 105 259 87 272 c 0,50,51
 68 285 68 285 57 289 c 2,52,-1
 34 297 l 1,53,-1
 34 324 l 1,54,55
 50 329 50 329 63 334 c 256,56,57
 76 339 76 339 91 350 c 256,58,59
 106 361 106 361 118 381 c 256,60,61
 130 401 130 401 132 429 c 256,62,63
 134 457 134 457 128 495 c 0,64,65
 124 523 124 523 117 556 c 256,66,67
 110 589 110 589 109 605 c 0,68,69
 107 621 107 621 110 645 c 0,70,71
 112 668 112 668 120 691 c 256,72,73
 128 714 128 714 142 731 c 0,74,75
 156 749 156 749 168 759 c 0,76,77
 182 769 182 769 202 781 c 256,78,79
 222 793 222 793 236 793 c 0,80,81
 248 792 248 792 250 788 c 0,82,83
 251 785 251 785 244 777 c 0,84,85
 241 773 241 773 224 763 c 0,86,87
 208 753 208 753 191 734 c 0,88,89
 175 715 175 715 167 686 c 0,90,91
 158 657 158 657 164 615 c 0,92,93
 164 603 164 603 172 559 c 256,94,95
 180 515 180 515 180 489 c 0,96,97
 180 467 180 467 175 443 c 0,98,99
 170 418 170 418 160 397 c 0,100,101
 150 377 150 377 136 361 c 256,102,103
 122 345 122 345 105 332 c 0,104,105
 88 320 88 320 83 317 c 2,106,-1
 70 310 l 1,0,1
EndSplineSet
EndChar
StartChar: bar
Encoding: 124 124 95
Width: 226
Flags: W
LayerCount: 2
Back
Fore
SplineSet
96 -200 m 1,0,-1
 96 820 l 1,1,-1
 134 820 l 1,2,-1
 134 -200 l 1,3,-1
 96 -200 l 1,0,-1
EndSplineSet
EndChar
StartChar: braceright
Encoding: 125 125 96
Width: 293
Flags: W
LayerCount: 2
Back
Fore
SplineSet
212 310 m 1,0,1
 203 315 203 315 198 318 c 0,2,3
 192 321 192 321 176 333 c 0,4,5
 159 345 159 345 145 361 c 256,6,7
 131 377 131 377 121 397 c 0,8,9
 111 418 111 418 106 443 c 0,10,11
 102 467 102 467 101 491 c 0,12,13
 101 515 101 515 109 559 c 256,14,15
 117 603 117 603 120 631 c 0,16,17
 123 657 123 657 114 688 c 0,18,19
 106 714 106 714 90 734 c 0,20,21
 74 753 74 753 57 763 c 256,22,23
 40 773 40 773 36 779 c 256,24,25
 32 785 32 785 32 788 c 0,26,27
 34 792 34 792 44 793 c 0,28,29
 59 793 59 793 80 781 c 0,30,31
 100 769 100 769 113 759 c 256,32,33
 126 749 126 749 140 731 c 0,34,35
 154 714 154 714 162 691 c 256,36,37
 170 668 170 668 172 645 c 0,38,39
 174 621 174 621 172 600 c 0,40,41
 171 589 171 589 164 556 c 0,42,43
 158 523 158 523 153 490 c 256,44,45
 148 457 148 457 150 433 c 0,46,47
 152 401 152 401 164 381 c 256,48,49
 176 361 176 361 192 349 c 0,50,51
 210 337 210 337 224 333 c 2,52,-1
 248 324 l 1,53,-1
 248 297 l 1,54,55
 232 292 232 292 221 287 c 0,56,57
 209 283 209 283 193 271 c 0,58,59
 176 259 176 259 165 240 c 256,60,61
 154 221 154 221 152 192 c 256,62,63
 150 163 150 163 155 127 c 0,64,65
 159 96 159 96 166 63 c 0,66,67
 173 31 173 31 175 16 c 0,68,69
 176 1 176 1 174 -23 c 0,70,71
 171 -47 171 -47 164 -68 c 0,72,73
 158 -88 158 -88 145 -108 c 0,74,75
 132 -129 132 -129 116 -141 c 256,76,77
 100 -153 100 -153 80 -163 c 256,78,79
 60 -173 60 -173 48 -172 c 0,80,81
 35 -171 35 -171 34 -167 c 0,82,83
 32 -163 32 -163 39 -156 c 0,84,85
 44 -151 44 -151 60 -140 c 0,86,87
 78 -129 78 -129 92 -113 c 0,88,89
 108 -95 108 -95 116 -65 c 256,90,91
 124 -35 124 -35 120 7 c 0,92,93
 118 19 118 19 110 62 c 0,94,95
 102 106 102 106 103 131 c 0,96,97
 103 152 103 152 108 178 c 0,98,99
 114 204 114 204 123 224 c 0,100,101
 132 245 132 245 147 261 c 256,102,103
 162 277 162 277 177 288 c 0,104,105
 193 299 193 299 201 303 c 2,106,-1
 212 310 l 1,0,1
EndSplineSet
EndChar
StartChar: asciitilde
Encoding: 126 126 97
Width: 412
Flags: W
LayerCount: 2
Back
Fore
SplineSet
55 609 m 0,0,1
 60 616 60 616 70 630 c 256,2,3
 80 644 80 644 91 656 c 0,4,5
 102 667 102 667 110 675 c 0,6,7
 118 682 118 682 128 687 c 256,8,9
 138 692 138 692 148 692 c 0,10,11
 157 691 157 691 170 685 c 0,12,13
 182 679 182 679 210 661 c 256,14,15
 238 643 238 643 256 635 c 0,16,17
 274 628 274 628 290 629 c 0,18,19
 310 630 310 630 326 643 c 0,20,21
 342 655 342 655 356 669 c 0,22,23
 368 683 368 683 374 688 c 0,24,25
 378 693 378 693 382 693 c 0,26,27
 384 693 384 693 388 691 c 256,28,29
 392 689 392 689 388 675 c 0,30,31
 386 669 386 669 379 657 c 256,32,33
 372 645 372 645 366 636 c 256,34,35
 360 627 360 627 345 609 c 0,36,37
 330 592 330 592 314 577 c 0,38,39
 298 561 298 561 280 560 c 0,40,41
 270 559 270 559 260 562 c 0,42,43
 249 565 249 565 234 575 c 2,44,-1
 178 610 l 2,45,46
 155 622 155 622 141 623 c 0,47,48
 129 623 129 623 116 617 c 0,49,50
 104 611 104 611 96 606 c 0,51,52
 89 601 89 601 76 589 c 0,53,54
 64 577 64 577 58 568 c 0,55,56
 52 560 52 560 48 559 c 0,57,58
 43 558 43 558 38 564 c 0,59,60
 34 571 34 571 42 587 c 0,61,62
 51 603 51 603 55 609 c 0,0,1
EndSplineSet
EndChar
StartChar: uni5168
Encoding: 20840 20840 98
Width: 1024
Flags: W
LayerCount: 2
Back
Fore
SplineSet
455 631 m 1,0,1
 446 637 446 637 440 642 c 0,2,3
 433 646 433 646 422 650 c 0,4,5
 412 654 412 654 397 656 c 0,6,7
 383 657 383 657 374 657 c 0,8,9
 366 657 366 657 360 660 c 0,10,11
 353 663 353 663 354 671 c 0,12,13
 355 677 355 677 365 680 c 256,14,15
 375 683 375 683 382 685 c 0,16,17
 391 685 391 685 408 683 c 0,18,19
 426 681 426 681 436 679 c 0,20,21
 447 676 447 676 458 671 c 0,22,23
 468 667 468 667 479 661 c 0,24,25
 490 654 490 654 504 640 c 0,26,27
 520 626 520 626 555 589 c 0,28,29
 591 551 591 551 615 528 c 256,30,31
 639 505 639 505 666 483 c 0,32,33
 693 459 693 459 714 444 c 0,34,35
 734 429 734 429 767 411 c 256,36,37
 800 393 800 393 835 377 c 256,38,39
 870 361 870 361 888 355 c 256,40,41
 906 349 906 349 944 339 c 2,42,-1
 968 332 l 2,43,44
 984 327 984 327 982 321 c 0,45,46
 981 314 981 314 969 311 c 2,47,-1
 948 304 l 2,48,49
 941 302 941 302 931 300 c 0,50,51
 922 298 922 298 882 293 c 0,52,53
 842 287 842 287 822 289 c 0,54,55
 798 289 798 289 782 296 c 0,56,57
 767 303 767 303 739 327 c 0,58,59
 712 351 712 351 696 368 c 0,60,61
 681 385 681 385 624 450 c 2,62,-1
 560 522 l 1,63,-1
 500 589 l 1,64,65
 481 559 481 559 464 535 c 0,66,67
 447 510 447 510 414 471 c 0,68,69
 382 432 382 432 337 391 c 0,70,71
 292 349 292 349 253 326 c 0,72,73
 215 303 215 303 175 283 c 0,74,75
 136 263 136 263 121 257 c 2,76,-1
 94 245 l 2,77,78
 86 242 86 242 84 247 c 0,79,80
 80 253 80 253 93 262 c 2,81,-1
 120 280 l 2,82,83
 142 295 142 295 165 311 c 256,84,85
 188 327 188 327 226 357 c 0,86,87
 264 388 264 388 302 427 c 0,88,89
 339 466 339 466 383 522 c 0,90,91
 427 579 427 579 436 595 c 2,92,-1
 455 631 l 1,0,1
445 117 m 1,93,94
 413 113 413 113 394 111 c 0,95,96
 374 109 374 109 363 111 c 0,97,98
 344 111 344 111 329 115 c 0,99,100
 314 120 314 120 307 125 c 0,101,102
 300 131 300 131 300 135 c 0,103,104
 301 140 301 140 306 142 c 0,105,106
 310 145 310 145 334 148 c 2,107,-1
 444 163 l 1,108,109
 444 186 444 186 443 204 c 0,110,111
 442 221 442 221 440 239 c 256,112,113
 438 257 438 257 432 268 c 2,114,-1
 426 283 l 1,115,-1
 356 277 l 2,116,117
 346 277 346 277 326 281 c 0,118,119
 306 286 306 286 298 294 c 0,120,121
 290 301 290 301 292 305 c 0,122,123
 293 309 293 309 310 309 c 2,124,-1
 328 311 l 1,125,-1
 526 332 l 2,126,127
 555 335 555 335 574 339 c 0,128,129
 592 343 592 343 598 344 c 0,130,131
 605 344 605 344 616 343 c 0,132,133
 626 341 626 341 635 337 c 256,134,135
 644 333 644 333 652 327 c 256,136,137
 660 321 660 321 659 313 c 0,138,139
 659 306 659 306 640 304 c 2,140,-1
 498 287 l 1,141,142
 507 283 507 283 512 278 c 0,143,144
 518 273 518 273 519 267 c 256,145,146
 520 261 520 261 517 247 c 0,147,148
 513 233 513 233 512 212 c 2,149,-1
 509 170 l 1,150,-1
 554 179 l 2,151,152
 568 181 568 181 578 181 c 256,153,154
 588 181 588 181 607 177 c 256,155,156
 626 173 626 173 642 166 c 0,157,158
 657 159 657 159 656 153 c 0,159,160
 656 147 656 147 649 142 c 0,161,162
 643 137 643 137 606 134 c 2,163,-1
 508 124 l 1,164,-1
 502 -14 l 1,165,-1
 660 1 l 2,166,167
 698 4 698 4 710 6 c 0,168,169
 722 9 722 9 724 9 c 0,170,171
 732 9 732 9 749 5 c 0,172,173
 765 1 765 1 784 -7 c 0,174,175
 802 -15 802 -15 810 -24 c 0,176,177
 816 -33 816 -33 816 -38 c 256,178,179
 816 -43 816 -43 806 -47 c 0,180,181
 797 -51 797 -51 738 -52 c 2,182,-1
 532 -55 l 2,183,184
 508 -55 508 -55 470 -59 c 0,185,186
 431 -63 431 -63 380 -68 c 0,187,188
 330 -73 330 -73 300 -81 c 0,189,190
 271 -89 271 -89 262 -89 c 0,191,192
 248 -89 248 -89 242 -87 c 0,193,194
 235 -85 235 -85 211 -73 c 256,195,196
 187 -61 187 -61 182 -55 c 0,197,198
 178 -48 178 -48 180 -43 c 0,199,200
 182 -41 182 -41 194 -39 c 2,201,-1
 217 -37 l 1,202,-1
 448 -19 l 1,203,-1
 445 117 l 1,93,94
EndSplineSet
EndChar
StartChar: uni5B57
Encoding: 23383 23383 99
Width: 1024
Flags: W
LayerCount: 2
Back
Fore
SplineSet
500 233 m 1,0,1
 498 249 498 249 496 256 c 256,2,3
 494 263 494 263 489 274 c 256,4,5
 484 285 484 285 476 294 c 0,6,7
 468 304 468 304 466 309 c 0,8,9
 464 315 464 315 468 320 c 256,10,11
 472 325 472 325 480 321 c 2,12,-1
 510 311 l 1,13,-1
 546 353 l 2,14,15
 551 360 551 360 565 378 c 0,16,17
 578 395 578 395 587 408 c 256,18,19
 596 421 596 421 592 427 c 0,20,21
 589 432 589 432 582 432 c 0,22,23
 576 431 576 431 555 427 c 2,24,-1
 475 410 l 2,25,26
 435 401 435 401 410 395 c 0,27,28
 386 388 386 388 381 387 c 0,29,30
 376 385 376 385 370 386 c 0,31,32
 361 386 361 386 353 389 c 0,33,34
 344 393 344 393 333 400 c 256,35,36
 322 407 322 407 319 413 c 256,37,38
 316 419 316 419 316 422 c 0,39,40
 318 425 318 425 329 427 c 2,41,-1
 348 427 l 2,42,43
 356 428 356 428 388 431 c 0,44,45
 420 435 420 435 442 439 c 2,46,-1
 494 450 l 1,47,-1
 540 462 l 2,48,49
 574 471 574 471 588 476 c 256,50,51
 602 481 602 481 606 482 c 0,52,53
 616 483 616 483 630 479 c 0,54,55
 646 475 646 475 668 460 c 0,56,57
 691 445 691 445 700 434 c 256,58,59
 709 423 709 423 708 415 c 0,60,61
 706 409 706 409 695 401 c 2,62,-1
 660 386 l 2,63,64
 647 379 647 379 626 365 c 2,65,-1
 536 299 l 1,66,67
 544 291 544 291 548 284 c 0,68,69
 553 277 553 277 554 263 c 2,70,-1
 556 237 l 1,71,-1
 639 245 l 1,72,-1
 706 250 l 2,73,74
 708 250 708 250 746 255 c 0,75,76
 782 259 782 259 808 262 c 0,77,78
 832 265 832 265 842 265 c 0,79,80
 854 264 854 264 873 257 c 0,81,82
 892 251 892 251 907 242 c 256,83,84
 922 233 922 233 930 226 c 0,85,86
 936 219 936 219 936 215 c 0,87,88
 935 210 935 210 924 206 c 0,89,90
 912 203 912 203 898 202 c 2,91,-1
 854 200 l 1,92,-1
 786 202 l 2,93,94
 776 202 776 202 719 200 c 2,95,-1
 644 199 l 1,96,-1
 556 195 l 1,97,-1
 560 98 l 2,98,99
 560 72 560 72 559 36 c 0,100,101
 558 1 558 1 555 -27 c 256,102,103
 552 -55 552 -55 546 -75 c 0,104,105
 540 -97 540 -97 530 -115 c 0,106,107
 519 -133 519 -133 506 -143 c 0,108,109
 494 -153 494 -153 487 -151 c 0,110,111
 481 -151 481 -151 468 -133 c 256,112,113
 455 -115 455 -115 448 -107 c 0,114,115
 442 -99 442 -99 426 -83 c 0,116,117
 411 -66 411 -66 400 -55 c 2,118,-1
 382 -39 l 2,119,120
 372 -30 372 -30 374 -25 c 0,121,122
 376 -21 376 -21 388 -24 c 2,123,-1
 406 -29 l 1,124,-1
 435 -39 l 1,125,-1
 458 -46 l 2,126,127
 472 -51 472 -51 478 -48 c 0,128,129
 482 -45 482 -45 488 -30 c 0,130,131
 494 -14 494 -14 496 4 c 256,132,133
 498 22 498 22 500 48 c 256,134,135
 502 74 502 74 502 97 c 2,136,-1
 503 190 l 1,137,138
 470 187 470 187 438 184 c 256,139,140
 406 181 406 181 357 174 c 2,141,-1
 280 163 l 2,142,143
 244 158 244 158 225 153 c 0,144,145
 206 147 206 147 199 147 c 0,146,147
 190 147 190 147 163 155 c 0,148,149
 136 164 136 164 124 176 c 0,150,151
 112 189 112 189 114 194 c 0,152,153
 117 199 117 199 127 200 c 2,154,-1
 166 202 l 2,155,156
 172 202 172 202 212 206 c 2,157,-1
 288 211 l 2,158,159
 310 213 310 213 398 223 c 2,160,-1
 500 233 l 1,0,1
516 592 m 1,161,162
 505 603 505 603 497 613 c 256,163,164
 489 623 489 623 480 639 c 0,165,166
 472 656 472 656 462 679 c 0,167,168
 453 701 453 701 450 712 c 0,169,170
 448 723 448 723 450 726 c 256,171,172
 452 729 452 729 460 729 c 0,173,174
 472 730 472 730 490 721 c 256,175,176
 508 712 508 712 524 701 c 0,177,178
 540 691 540 691 550 675 c 256,179,180
 560 659 560 659 563 647 c 0,181,182
 566 629 566 629 560 614 c 2,183,-1
 553 598 l 1,184,-1
 688 615 l 1,185,-1
 728 621 l 2,186,187
 762 626 762 626 776 631 c 0,188,189
 789 635 789 635 793 636 c 0,190,191
 804 637 804 637 819 628 c 0,192,193
 834 620 834 620 855 602 c 256,194,195
 876 584 876 584 888 571 c 256,196,197
 900 558 900 558 904 546 c 256,198,199
 908 534 908 534 904 529 c 0,200,201
 901 524 901 524 882 522 c 256,202,203
 863 520 863 520 853 519 c 0,204,205
 844 517 844 517 816 511 c 0,206,207
 788 504 788 504 768 497 c 2,208,-1
 730 483 l 2,209,210
 720 479 720 479 717 483 c 0,211,212
 715 486 715 486 724 498 c 2,213,-1
 736 515 l 2,214,215
 740 521 740 521 749 534 c 256,216,217
 758 547 758 547 766 557 c 0,218,219
 776 569 776 569 774 575 c 0,220,221
 772 582 772 582 765 585 c 0,222,223
 757 589 757 589 748 589 c 0,224,225
 732 588 732 588 696 583 c 0,226,227
 661 579 661 579 590 570 c 0,228,229
 520 561 520 561 484 557 c 0,230,231
 450 552 450 552 405 545 c 0,232,233
 361 538 361 538 336 534 c 0,234,235
 311 529 311 529 300 529 c 0,236,237
 288 528 288 528 280 529 c 2,238,-1
 264 530 l 1,239,240
 260 517 260 517 256 506 c 256,241,242
 252 495 252 495 240 473 c 0,243,244
 229 450 229 450 220 441 c 0,245,246
 210 431 210 431 200 431 c 0,247,248
 188 431 188 431 181 442 c 256,249,250
 174 453 174 453 173 466 c 256,251,252
 172 479 172 479 176 491 c 0,253,254
 178 499 178 499 191 518 c 256,255,256
 204 537 204 537 210 552 c 0,257,258
 217 567 217 567 222 584 c 0,259,260
 226 601 226 601 230 609 c 256,261,262
 234 617 234 617 239 618 c 256,263,264
 244 619 244 619 251 609 c 0,265,266
 257 601 257 601 258 590 c 2,267,-1
 261 572 l 1,268,-1
 306 573 l 1,269,-1
 400 581 l 1,270,-1
 516 592 l 1,161,162
EndSplineSet
EndChar
StartChar: uni5EAB
Encoding: 24235 24235 100
Width: 1024
Flags: W
LayerCount: 2
Back
Fore
SplineSet
522 595 m 1,0,1
 504 593 504 593 489 591 c 0,2,3
 474 590 474 590 461 589 c 0,4,5
 448 587 448 587 382 578 c 2,6,-1
 344 573 l 1,7,8
 349 567 349 567 350 565 c 0,9,10
 350 562 350 562 348 557 c 0,11,12
 344 547 344 547 342 541 c 256,13,14
 340 535 340 535 338 523 c 2,15,-1
 320 410 l 2,16,17
 316 383 316 383 308 349 c 256,18,19
 300 315 300 315 296 297 c 0,20,21
 292 281 292 281 279 237 c 256,22,23
 266 193 266 193 254 167 c 0,24,25
 244 142 244 142 222 102 c 0,26,27
 200 61 200 61 182 36 c 0,28,29
 163 11 163 11 142 -9 c 0,30,31
 122 -29 122 -29 100 -43 c 2,32,-1
 74 -61 l 2,33,34
 63 -69 63 -69 60 -64 c 256,35,36
 57 -59 57 -59 66 -49 c 2,37,-1
 84 -30 l 2,38,39
 101 -12 101 -12 120 15 c 0,40,41
 139 41 139 41 157 76 c 0,42,43
 174 110 174 110 197 161 c 0,44,45
 219 213 219 213 238 273 c 0,46,47
 258 333 258 333 264 380 c 256,48,49
 270 427 270 427 274 471 c 0,50,51
 277 515 277 515 277 521 c 0,52,53
 278 527 278 527 275 543 c 0,54,55
 272 558 272 558 270 562 c 2,56,-1
 263 575 l 1,57,58
 252 581 252 581 245 585 c 0,59,60
 238 587 238 587 236 591 c 0,61,62
 233 593 233 593 234 597 c 0,63,64
 234 600 234 600 238 602 c 0,65,66
 242 603 242 603 263 606 c 2,67,-1
 360 617 l 1,68,-1
 543 642 l 1,69,70
 522 670 522 670 514 682 c 0,71,72
 505 695 505 695 493 714 c 2,73,-1
 481 733 l 2,74,75
 474 742 474 742 480 747 c 0,76,77
 484 751 484 751 498 747 c 2,78,-1
 527 739 l 2,79,80
 560 729 560 729 574 720 c 256,81,82
 588 711 588 711 592 702 c 256,83,84
 596 693 596 693 596 683 c 0,85,86
 596 667 596 667 592 660 c 2,87,-1
 583 645 l 1,88,-1
 692 659 l 1,89,-1
 742 667 l 2,90,91
 754 667 754 667 761 663 c 0,92,93
 768 661 768 661 786 649 c 256,94,95
 804 637 804 637 808 631 c 0,96,97
 811 626 811 626 811 623 c 0,98,99
 812 620 812 620 808 617 c 0,100,101
 806 615 806 615 798 613 c 0,102,103
 790 612 790 612 780 612 c 2,104,-1
 745 612 l 1,105,-1
 621 604 l 2,106,107
 648 603 648 603 583 601 c 2,108,-1
 542 598 l 2,109,110
 554 595 554 595 563 594 c 0,111,112
 572 592 572 592 586 588 c 0,113,114
 600 583 600 583 605 577 c 256,115,116
 610 571 610 571 610 567 c 256,117,118
 610 563 610 563 606 555 c 0,119,120
 603 545 603 545 602 531 c 2,121,-1
 598 505 l 1,122,-1
 644 515 l 1,123,-1
 688 523 l 2,124,125
 697 523 697 523 715 516 c 256,126,127
 733 509 733 509 737 504 c 0,128,129
 740 498 740 498 740 495 c 0,130,131
 740 493 740 493 737 489 c 0,132,133
 734 486 734 486 719 483 c 2,134,-1
 695 477 l 1,135,-1
 597 462 l 1,136,-1
 595 401 l 1,137,-1
 688 417 l 1,138,-1
 738 427 l 2,139,140
 750 427 750 427 768 417 c 2,141,-1
 787 407 l 2,142,143
 806 395 806 395 808 388 c 0,144,145
 810 380 810 380 806 372 c 2,146,-1
 794 357 l 2,147,148
 790 351 790 351 783 330 c 2,149,-1
 745 226 l 2,150,151
 728 181 728 181 720 171 c 0,152,153
 713 163 713 163 708 159 c 0,154,155
 702 157 702 157 698 156 c 0,156,157
 693 155 693 155 690 156 c 0,158,159
 681 157 681 157 681 161 c 2,160,-1
 674 178 l 1,161,-1
 592 169 l 1,162,-1
 591 101 l 1,163,-1
 695 109 l 2,164,165
 706 110 706 110 746 115 c 0,166,167
 786 119 786 119 810 123 c 0,168,169
 835 127 835 127 846 127 c 0,170,171
 868 125 868 125 892 111 c 256,172,173
 916 97 916 97 920 89 c 0,174,175
 925 82 925 82 925 78 c 0,176,177
 924 76 924 76 924 74 c 0,178,179
 922 72 922 72 918 68 c 0,180,181
 914 65 914 65 904 65 c 2,182,-1
 860 67 l 2,183,184
 814 68 814 68 750 68 c 0,185,186
 687 67 687 67 649 65 c 2,187,-1
 591 61 l 1,188,189
 588 13 588 13 587 -7 c 256,190,191
 586 -27 586 -27 583 -60 c 256,192,193
 580 -93 580 -93 577 -114 c 256,194,195
 574 -135 574 -135 567 -154 c 0,196,197
 561 -173 561 -173 558 -175 c 0,198,199
 554 -177 554 -177 552 -177 c 0,200,201
 548 -178 548 -178 545 -176 c 0,202,203
 542 -175 542 -175 539 -168 c 256,204,205
 536 -161 536 -161 535 -149 c 2,206,-1
 533 -123 l 2,207,208
 533 -111 533 -111 534 -87 c 2,209,-1
 534 59 l 1,210,211
 495 55 495 55 470 53 c 0,212,213
 444 50 444 50 408 45 c 256,214,215
 372 40 372 40 350 34 c 0,216,217
 328 29 328 29 320 29 c 0,218,219
 304 27 304 27 288 34 c 0,220,221
 271 40 271 40 256 50 c 0,222,223
 242 59 242 59 241 66 c 0,224,225
 241 72 241 72 245 75 c 0,226,227
 250 77 250 77 259 78 c 2,228,-1
 308 79 l 2,229,230
 360 79 360 79 408 85 c 2,231,-1
 534 98 l 1,232,-1
 535 164 l 1,233,-1
 444 157 l 1,234,235
 442 147 442 147 438 144 c 256,236,237
 434 141 434 141 428 141 c 256,238,239
 422 141 422 141 416 155 c 0,240,241
 413 161 413 161 411 173 c 2,242,-1
 384 320 l 2,243,244
 381 335 381 335 378 342 c 0,245,246
 374 349 374 349 363 357 c 0,247,248
 352 366 352 366 350 372 c 0,249,250
 350 379 350 379 353 381 c 0,251,252
 356 384 356 384 361 384 c 0,253,254
 366 383 366 383 372 383 c 2,255,-1
 404 378 l 1,256,-1
 536 393 l 1,257,-1
 536 455 l 1,258,-1
 454 446 l 2,259,260
 440 445 440 445 432 445 c 256,261,262
 424 445 424 445 416 448 c 256,263,264
 408 451 408 451 399 455 c 0,265,266
 390 460 390 460 387 466 c 0,267,268
 384 471 384 471 387 474 c 0,269,270
 389 477 389 477 398 477 c 2,271,-1
 413 479 l 1,272,-1
 533 495 l 1,273,-1
 535 494 l 1,274,-1
 530 533 l 2,275,276
 528 545 528 545 522 559 c 256,277,278
 516 573 516 573 515 579 c 0,279,280
 513 587 513 587 516 589 c 2,281,-1
 522 595 l 1,0,1
537 368 m 1,282,-1
 424 353 l 1,283,-1
 434 285 l 1,284,-1
 537 297 l 1,285,-1
 537 368 l 1,282,-1
536 263 m 1,286,-1
 439 261 l 1,287,-1
 447 191 l 1,288,-1
 535 197 l 1,289,-1
 536 263 l 1,286,-1
682 209 m 1,290,-1
 705 285 l 1,291,292
 672 280 672 280 669 280 c 2,293,-1
 595 271 l 1,294,-1
 593 206 l 1,295,296
 620 209 620 209 637 212 c 256,297,298
 654 215 654 215 658 214 c 2,299,-1
 682 209 l 1,290,-1
594 307 m 1,300,301
 622 313 622 313 636 315 c 0,302,303
 651 318 651 318 660 318 c 0,304,305
 672 317 672 317 678 315 c 2,306,-1
 711 304 l 1,307,308
 714 322 714 322 715 331 c 2,309,-1
 719 353 l 2,310,311
 721 366 721 366 719 372 c 0,312,313
 717 377 717 377 714 379 c 0,314,315
 710 381 710 381 704 383 c 0,316,317
 698 383 698 383 690 383 c 2,318,-1
 596 373 l 1,319,-1
 594 307 l 1,300,301
EndSplineSet
EndChar
StartChar: uni6977
Encoding: 26999 26999 101
Width: 1024
Flags: W
LayerCount: 2
Back
Fore
SplineSet
300 172 m 1,0,-1
 298 -18 l 2,1,2
 297 -61 297 -61 296 -68 c 0,3,4
 294 -75 294 -75 292 -83 c 0,5,6
 289 -91 289 -91 284 -101 c 0,7,8
 278 -113 278 -113 272 -119 c 256,9,10
 266 -125 266 -125 262 -126 c 0,11,12
 258 -126 258 -126 252 -119 c 0,13,14
 247 -115 247 -115 244 -107 c 256,15,16
 241 -99 241 -99 236 -85 c 0,17,18
 230 -71 230 -71 228 -61 c 256,19,20
 226 -51 226 -51 226 -39 c 0,21,22
 226 -31 226 -31 232 -9 c 0,23,24
 237 13 237 13 240 35 c 0,25,26
 244 57 244 57 246 84 c 256,27,28
 248 111 248 111 250 130 c 2,29,-1
 260 295 l 1,30,31
 245 269 245 269 231 246 c 0,32,33
 218 223 218 223 193 189 c 0,34,35
 168 154 168 154 144 131 c 0,36,37
 120 107 120 107 98 90 c 0,38,39
 75 73 75 73 67 68 c 2,40,-1
 50 59 l 2,41,42
 43 55 43 55 40 58 c 0,43,44
 36 61 36 61 42 68 c 2,45,-1
 51 78 l 2,46,47
 60 87 60 87 78 107 c 0,48,49
 97 128 97 128 115 151 c 0,50,51
 132 175 132 175 158 216 c 256,52,53
 184 257 184 257 202 292 c 0,54,55
 221 327 221 327 236 365 c 2,56,-1
 248 394 l 1,57,-1
 206 387 l 2,58,59
 187 383 187 383 165 381 c 0,60,61
 142 379 142 379 126 379 c 0,62,63
 105 380 105 380 95 385 c 0,64,65
 84 389 84 389 79 395 c 0,66,67
 73 401 73 401 74 405 c 0,68,69
 76 409 76 409 86 411 c 2,70,-1
 118 415 l 2,71,72
 144 417 144 417 169 423 c 2,73,-1
 262 441 l 1,74,-1
 262 515 l 1,75,-1
 260 569 l 2,76,77
 260 591 260 591 259 601 c 256,78,79
 258 611 258 611 254 632 c 0,80,81
 251 652 251 652 246 663 c 0,82,83
 240 675 240 675 241 679 c 0,84,85
 242 684 242 684 246 688 c 0,86,87
 251 692 251 692 265 689 c 0,88,89
 271 687 271 687 280 684 c 0,90,91
 288 681 288 681 300 673 c 0,92,93
 312 667 312 667 323 657 c 0,94,95
 333 648 333 648 334 642 c 256,96,97
 335 636 335 636 330 622 c 0,98,99
 327 613 327 613 324 597 c 0,100,101
 320 581 320 581 318 569 c 0,102,103
 316 556 316 556 314 516 c 2,104,-1
 310 452 l 1,105,-1
 328 457 l 2,106,107
 353 463 353 463 364 467 c 256,108,109
 375 471 375 471 378 472 c 0,110,111
 387 473 387 473 400 471 c 0,112,113
 413 468 413 468 428 461 c 0,114,115
 442 453 442 453 440 447 c 0,116,117
 439 441 439 441 431 435 c 256,118,119
 423 429 423 429 402 425 c 2,120,-1
 306 403 l 1,121,-1
 302 327 l 1,122,-1
 334 315 l 2,123,124
 349 309 349 309 364 301 c 0,125,126
 380 293 380 293 390 282 c 0,127,128
 401 271 401 271 404 261 c 0,129,130
 408 251 408 251 408 238 c 0,131,132
 409 225 409 225 402 216 c 0,133,134
 394 207 394 207 383 207 c 256,135,136
 372 207 372 207 358 227 c 2,137,-1
 303 311 l 1,138,-1
 300 172 l 1,0,-1
722 543 m 1,139,-1
 785 561 l 2,140,141
 822 572 822 572 833 576 c 0,142,143
 844 581 844 581 848 581 c 0,144,145
 858 583 858 583 876 576 c 256,146,147
 894 569 894 569 900 563 c 0,148,149
 904 555 904 555 904 551 c 0,150,151
 904 543 904 543 891 538 c 0,152,153
 879 532 879 532 855 528 c 2,154,-1
 804 517 l 2,155,156
 789 515 789 515 768 511 c 0,157,158
 747 509 747 509 740 509 c 2,159,-1
 721 511 l 1,160,-1
 718 477 l 2,161,162
 716 455 716 455 718 435 c 0,163,164
 720 417 720 417 726 406 c 0,165,166
 733 395 733 395 750 386 c 256,167,168
 767 377 767 377 800 375 c 0,169,170
 834 371 834 371 862 379 c 0,171,172
 890 385 890 385 902 399 c 0,173,174
 913 413 913 413 918 434 c 0,175,176
 924 455 924 455 927 473 c 2,177,-1
 930 493 l 2,178,179
 930 499 930 499 936 498 c 0,180,181
 940 497 940 497 942 489 c 2,182,-1
 944 473 l 1,183,-1
 948 441 l 2,184,185
 950 430 950 430 956 417 c 0,186,187
 961 405 961 405 967 396 c 0,188,189
 972 388 972 388 974 382 c 0,190,191
 976 377 976 377 966 363 c 256,192,193
 956 349 956 349 934 339 c 0,194,195
 914 328 914 328 884 321 c 0,196,197
 854 313 854 313 824 313 c 256,198,199
 794 313 794 313 766 321 c 0,200,201
 738 327 738 327 718 339 c 256,202,203
 698 351 698 351 687 370 c 0,204,205
 677 388 677 388 674 406 c 0,206,207
 671 425 671 425 672 455 c 2,208,-1
 675 577 l 1,209,-1
 675 600 l 1,210,-1
 676 599 l 1,211,212
 675 617 675 617 674 622 c 0,213,214
 674 628 674 628 671 655 c 0,215,216
 668 681 668 681 664 692 c 0,217,218
 660 702 660 702 660 707 c 256,219,220
 660 712 660 712 663 715 c 0,221,222
 666 717 666 717 675 717 c 0,223,224
 685 715 685 715 698 709 c 0,225,226
 712 703 712 703 719 697 c 0,227,228
 727 693 727 693 735 683 c 0,229,230
 743 675 743 675 743 668 c 0,231,232
 742 667 742 667 736 655 c 256,233,234
 730 643 730 643 728 628 c 2,235,-1
 726 610 l 2,236,237
 724 592 724 592 724 581 c 2,238,-1
 722 543 l 1,139,-1
505 469 m 1,239,-1
 502 399 l 1,240,-1
 502 377 l 2,241,242
 502 370 502 370 506 367 c 0,243,244
 510 363 510 363 529 373 c 2,245,-1
 556 385 l 1,246,-1
 603 409 l 1,247,-1
 618 416 l 2,248,249
 625 419 625 419 630 415 c 0,250,251
 636 412 636 412 630 407 c 2,252,-1
 619 397 l 1,253,-1
 544 335 l 2,254,255
 522 316 522 316 508 303 c 2,256,-1
 488 283 l 2,257,258
 478 273 478 273 472 273 c 256,259,260
 466 273 466 273 459 283 c 0,261,262
 451 293 451 293 448 300 c 0,263,264
 444 307 444 307 441 316 c 256,265,266
 438 325 438 325 440 329 c 2,267,-1
 445 336 l 2,268,269
 450 343 450 343 452 355 c 256,270,271
 454 367 454 367 455 380 c 256,272,273
 456 393 456 393 458 466 c 256,274,275
 460 539 460 539 460 555 c 0,276,277
 459 568 459 568 457 581 c 0,278,279
 454 594 454 594 449 603 c 2,280,-1
 442 614 l 2,281,282
 436 623 436 623 440 628 c 0,283,284
 442 633 442 633 456 633 c 0,285,286
 464 633 464 633 473 631 c 256,287,288
 482 629 482 629 494 624 c 256,289,290
 506 619 506 619 512 613 c 0,291,292
 520 607 520 607 520 602 c 0,293,294
 520 596 520 596 516 586 c 0,295,296
 513 579 513 579 512 573 c 0,297,298
 511 569 511 569 508 550 c 0,299,300
 506 531 506 531 506 526 c 2,301,-1
 507 508 l 1,302,-1
 548 521 l 2,303,304
 576 529 576 529 584 533 c 256,305,306
 592 537 592 537 596 537 c 256,307,308
 600 537 600 537 616 532 c 0,309,310
 631 527 631 527 639 521 c 0,311,312
 647 516 647 516 646 511 c 0,313,314
 645 507 645 507 640 503 c 0,315,316
 634 499 634 499 618 497 c 2,317,-1
 586 489 l 1,318,-1
 530 483 l 1,319,-1
 506 480 l 1,320,-1
 506 469 l 1,321,-1
 505 469 l 1,239,-1
579 199 m 1,322,-1
 672 215 l 2,323,324
 684 217 684 217 711 222 c 0,325,326
 738 228 738 228 751 232 c 0,327,328
 765 237 765 237 770 237 c 0,329,330
 776 237 776 237 783 235 c 256,331,332
 790 233 790 233 812 221 c 256,333,334
 834 209 834 209 842 201 c 0,335,336
 852 193 852 193 852 188 c 256,337,338
 852 183 852 183 846 173 c 0,339,340
 839 159 839 159 836 144 c 0,341,342
 834 129 834 129 834 99 c 2,343,-1
 833 -25 l 1,344,-1
 836 -71 l 2,345,346
 836 -85 836 -85 832 -95 c 0,347,348
 828 -104 828 -104 821 -115 c 0,349,350
 814 -127 814 -127 807 -134 c 0,351,352
 799 -141 799 -141 793 -140 c 0,353,354
 786 -139 786 -139 781 -131 c 0,355,356
 776 -122 776 -122 773 -107 c 0,357,358
 770 -93 770 -93 770 -88 c 2,359,-1
 768 -65 l 1,360,-1
 536 -81 l 1,361,-1
 532 -99 l 2,362,363
 530 -109 530 -109 526 -113 c 0,364,365
 522 -116 522 -116 518 -117 c 0,366,367
 514 -117 514 -117 507 -107 c 0,368,369
 498 -95 498 -95 491 -77 c 256,370,371
 484 -59 484 -59 484 -48 c 0,372,373
 484 -43 484 -43 487 -32 c 256,374,375
 490 -21 490 -21 492 -8 c 0,376,377
 495 5 495 5 496 25 c 2,378,-1
 497 123 l 2,379,380
 497 141 497 141 495 156 c 0,381,382
 494 171 494 171 488 183 c 256,383,384
 482 195 482 195 483 200 c 0,385,386
 484 204 484 204 488 207 c 0,387,388
 492 211 492 211 512 205 c 2,389,-1
 540 194 l 1,390,391
 554 213 554 213 563 227 c 0,392,393
 572 240 572 240 581 259 c 0,394,395
 591 278 591 278 595 293 c 0,396,397
 600 308 600 308 598 320 c 0,398,399
 596 331 596 331 598 335 c 256,400,401
 600 339 600 339 607 341 c 0,402,403
 613 343 613 343 627 337 c 0,404,405
 642 331 642 331 650 325 c 0,406,407
 659 319 659 319 668 310 c 0,408,409
 676 301 676 301 674 294 c 0,410,411
 672 291 672 291 668 287 c 2,412,-1
 652 274 l 2,413,414
 644 267 644 267 628 250 c 2,415,-1
 598 219 l 1,416,-1
 579 199 l 1,322,-1
538 -41 m 1,417,-1
 682 -24 l 1,418,-1
 720 -19 l 2,419,420
 733 -20 733 -20 744 -25 c 2,421,-1
 773 -39 l 1,422,-1
 773 71 l 1,423,-1
 638 51 l 1,424,-1
 614 47 l 2,425,426
 601 44 601 44 590 43 c 0,427,428
 572 42 572 42 566 43 c 2,429,-1
 542 47 l 1,430,-1
 538 -41 l 1,417,-1
542 72 m 1,431,-1
 639 87 l 2,432,433
 672 91 672 91 694 97 c 256,434,435
 716 103 716 103 726 103 c 0,436,437
 730 103 730 103 750 97 c 2,438,-1
 773 91 l 1,439,-1
 771 152 l 2,440,441
 770 167 770 167 766 175 c 0,442,443
 763 183 763 183 759 189 c 0,444,445
 754 193 754 193 732 193 c 0,446,447
 698 191 698 191 667 187 c 0,448,449
 636 182 636 182 604 175 c 0,450,451
 572 167 572 167 566 167 c 2,452,-1
 544 166 l 1,453,-1
 542 72 l 1,431,-1
EndSplineSet
EndChar
StartChar: uni6B63
Encoding: 27491 27491 102
Width: 1024
Flags: W
LayerCount: 2
Back
Fore
SplineSet
343 52 m 1,0,-1
 488 65 l 1,1,-1
 484 465 l 2,2,3
 484 491 484 491 480 513 c 256,4,5
 476 535 476 535 468 547 c 2,6,-1
 460 559 l 1,7,-1
 366 550 l 2,8,9
 344 547 344 547 327 548 c 0,10,11
 310 548 310 548 292 553 c 0,12,13
 274 559 274 559 269 566 c 256,14,15
 264 573 264 573 267 579 c 0,16,17
 270 584 270 584 284 586 c 2,18,-1
 306 589 l 1,19,-1
 346 593 l 2,20,21
 364 595 364 595 447 608 c 256,22,23
 530 621 530 621 554 627 c 0,24,25
 578 631 578 631 612 640 c 0,26,27
 645 649 645 649 660 654 c 0,28,29
 676 659 676 659 682 659 c 0,30,31
 691 659 691 659 715 651 c 0,32,33
 738 643 738 643 745 636 c 0,34,35
 751 629 751 629 752 625 c 0,36,37
 752 622 752 622 752 620 c 0,38,39
 752 619 752 619 744 613 c 0,40,41
 738 607 738 607 720 604 c 2,42,-1
 680 595 l 2,43,44
 648 589 648 589 578 577 c 2,45,-1
 524 569 l 1,46,47
 546 561 546 561 556 552 c 0,48,49
 566 544 566 544 566 539 c 0,50,51
 566 533 566 533 563 521 c 0,52,53
 560 511 560 511 556 487 c 0,54,55
 553 463 553 463 553 449 c 2,56,-1
 550 329 l 1,57,-1
 621 347 l 1,58,-1
 662 358 l 2,59,60
 699 367 699 367 713 373 c 0,61,62
 726 378 726 378 732 379 c 0,63,64
 741 379 741 379 762 372 c 0,65,66
 784 365 784 365 794 358 c 0,67,68
 804 350 804 350 804 344 c 0,69,70
 803 335 803 335 795 332 c 0,71,72
 786 329 786 329 778 327 c 2,73,-1
 755 321 l 2,74,75
 748 319 748 319 694 311 c 2,76,-1
 648 302 l 2,77,78
 614 296 614 296 593 297 c 0,79,80
 578 298 578 298 570 301 c 2,81,-1
 550 305 l 1,82,-1
 547 69 l 1,83,-1
 671 79 l 2,84,85
 688 81 688 81 708 83 c 2,86,-1
 784 93 l 2,87,88
 816 97 816 97 839 102 c 256,89,90
 862 107 862 107 870 107 c 0,91,92
 882 107 882 107 906 99 c 256,93,94
 930 91 930 91 949 82 c 0,95,96
 967 73 967 73 975 65 c 0,97,98
 983 55 983 55 982 49 c 256,99,100
 981 43 981 43 973 39 c 0,101,102
 968 37 968 37 954 38 c 2,103,-1
 914 36 l 1,104,-1
 824 35 l 1,105,-1
 696 33 l 2,106,107
 626 33 626 33 594 31 c 0,108,109
 564 29 564 29 500 24 c 0,110,111
 438 19 438 19 381 13 c 256,112,113
 324 7 324 7 284 1 c 2,114,-1
 238 -8 l 2,115,116
 195 -16 195 -16 174 -22 c 0,117,118
 154 -29 154 -29 145 -28 c 0,119,120
 136 -28 136 -28 120 -24 c 0,121,122
 105 -19 105 -19 86 -10 c 0,123,124
 66 0 66 0 61 6 c 0,125,126
 56 11 56 11 56 15 c 0,127,128
 57 19 57 19 60 22 c 0,129,130
 64 25 64 25 82 27 c 2,131,-1
 119 29 l 1,132,-1
 212 35 l 1,133,-1
 288 43 l 1,134,-1
 284 259 l 2,135,136
 284 269 284 269 282 296 c 0,137,138
 279 323 279 323 277 333 c 256,139,140
 275 343 275 343 269 354 c 0,141,142
 264 365 264 365 263 369 c 0,143,144
 263 373 263 373 266 378 c 0,145,146
 270 383 270 383 287 381 c 0,147,148
 300 380 300 380 316 377 c 0,149,150
 332 373 332 373 344 366 c 0,151,152
 357 359 357 359 358 353 c 0,153,154
 358 348 358 348 352 331 c 0,155,156
 350 326 350 326 348 308 c 2,157,-1
 347 297 l 2,158,159
 346 287 346 287 346 253 c 2,160,-1
 343 52 l 1,0,-1
EndSplineSet
EndChar
StartChar: uni9AD4
Encoding: 39636 39636 103
Width: 1024
Flags: W
LayerCount: 2
Back
Fore
SplineSet
425 437 m 1,0,1
 442 444 442 444 450 444 c 0,2,3
 458 445 458 445 474 438 c 0,4,5
 490 432 490 432 498 427 c 0,6,7
 506 423 506 423 518 413 c 0,8,9
 531 404 531 404 534 397 c 0,10,11
 537 391 537 391 535 386 c 256,12,13
 533 381 533 381 520 378 c 0,14,15
 507 374 507 374 500 371 c 0,16,17
 492 368 492 368 476 359 c 0,18,19
 460 349 460 349 447 340 c 2,20,-1
 433 330 l 2,21,22
 428 327 428 327 425 329 c 0,23,24
 422 333 422 333 424 337 c 2,25,-1
 431 348 l 2,26,27
 438 359 438 359 442 368 c 256,28,29
 446 377 446 377 449 387 c 0,30,31
 452 398 452 398 449 401 c 256,32,33
 446 404 446 404 437 405 c 0,34,35
 418 405 418 405 386 399 c 0,36,37
 353 392 353 392 305 385 c 2,38,-1
 210 370 l 1,39,-1
 143 359 l 1,40,41
 144 349 144 349 143 339 c 0,42,43
 143 329 143 329 139 312 c 256,44,45
 135 295 135 295 127 279 c 0,46,47
 119 262 119 262 110 256 c 0,48,49
 102 251 102 251 91 255 c 0,50,51
 83 259 83 259 79 268 c 0,52,53
 76 277 76 277 76 287 c 0,54,55
 76 296 76 296 77 303 c 256,56,57
 78 310 78 310 86 323 c 0,58,59
 92 337 92 337 98 350 c 256,60,61
 104 363 104 363 107 371 c 256,62,63
 110 379 110 379 112 389 c 256,64,65
 114 399 114 399 117 401 c 0,66,67
 124 405 124 405 126 401 c 2,68,-1
 136 387 l 1,69,70
 164 391 164 391 176 392 c 256,71,72
 188 393 188 393 189 394 c 2,73,-1
 209 398 l 1,74,-1
 188 583 l 2,75,76
 184 605 184 605 182 614 c 2,77,-1
 174 639 l 2,78,79
 172 647 172 647 175 651 c 256,80,81
 178 655 178 655 188 655 c 0,82,83
 197 655 197 655 220 647 c 2,84,-1
 240 638 l 1,85,-1
 314 655 l 2,86,87
 332 659 332 659 359 668 c 256,88,89
 386 677 386 677 396 681 c 256,90,91
 406 685 406 685 409 687 c 0,92,93
 416 687 416 687 428 683 c 256,94,95
 440 679 440 679 452 671 c 256,96,97
 464 663 464 663 472 655 c 0,98,99
 482 647 482 647 482 641 c 0,100,101
 481 638 481 638 472 627 c 0,102,103
 464 615 464 615 460 597 c 2,104,-1
 425 437 l 1,0,1
326 417 m 1,105,106
 352 421 352 421 357 423 c 2,107,-1
 390 429 l 1,108,-1
 398 550 l 1,109,-1
 372 539 l 2,110,111
 364 536 364 536 354 533 c 256,112,113
 344 530 344 530 342 531 c 2,114,-1
 334 533 l 1,115,-1
 326 417 l 1,105,106
294 412 m 1,116,-1
 289 513 l 2,117,118
 288 530 288 530 287 537 c 0,119,120
 286 545 286 545 283 551 c 0,121,122
 280 558 280 558 280 562 c 0,123,124
 278 565 278 565 281 569 c 0,125,126
 284 572 284 572 297 569 c 0,127,128
 307 566 307 566 316 563 c 2,129,-1
 332 557 l 1,130,-1
 349 565 l 2,131,132
 363 571 363 571 369 572 c 0,133,134
 374 573 374 573 384 571 c 2,135,-1
 400 568 l 1,136,-1
 403 613 l 2,137,138
 404 633 404 633 400 638 c 0,139,140
 394 643 394 643 382 641 c 0,141,142
 370 641 370 641 356 637 c 2,143,-1
 240 607 l 1,144,-1
 250 404 l 1,145,-1
 251 404 l 2,146,147
 270 407 270 407 274 408 c 2,148,-1
 294 412 l 1,116,-1
536 391 m 1,149,-1
 535 410 l 1,150,-1
 522 493 l 2,151,152
 519 507 519 507 514 520 c 256,153,154
 509 533 509 533 498 542 c 0,155,156
 488 551 488 551 487 555 c 0,157,158
 486 558 486 558 490 564 c 0,159,160
 494 571 494 571 506 566 c 2,161,-1
 554 553 l 1,162,-1
 614 558 l 1,163,-1
 608 641 l 2,164,165
 606 661 606 661 601 672 c 0,166,167
 596 684 596 684 595 689 c 0,168,169
 594 693 594 693 597 697 c 256,170,171
 600 701 600 701 612 701 c 0,172,173
 622 699 622 699 633 697 c 0,174,175
 644 694 644 694 654 690 c 0,176,177
 664 685 664 685 667 682 c 0,178,179
 670 678 670 678 670 675 c 0,180,181
 670 673 670 673 666 666 c 0,182,183
 664 661 664 661 664 657 c 0,184,185
 664 654 664 654 664 631 c 2,186,-1
 664 562 l 1,187,-1
 732 573 l 1,188,-1
 738 650 l 2,189,190
 740 689 740 689 738 698 c 256,191,192
 736 707 736 707 732 720 c 256,193,194
 728 733 728 733 729 738 c 256,195,196
 730 743 730 743 733 747 c 0,197,198
 736 750 736 750 750 747 c 0,199,200
 760 743 760 743 780 736 c 0,201,202
 799 729 799 729 805 721 c 256,203,204
 811 713 811 713 811 709 c 0,205,206
 812 704 812 704 806 691 c 0,207,208
 800 677 800 677 798 657 c 2,209,-1
 788 587 l 1,210,-1
 822 595 l 2,211,212
 839 600 839 600 846 600 c 0,213,214
 854 599 854 599 862 596 c 0,215,216
 872 593 872 593 894 583 c 256,217,218
 916 573 916 573 927 562 c 256,219,220
 938 551 938 551 937 544 c 0,221,222
 936 540 936 540 929 533 c 0,223,224
 922 527 922 527 918 521 c 0,225,226
 914 517 914 517 909 500 c 2,227,-1
 872 395 l 2,228,229
 860 365 860 365 850 353 c 0,230,231
 838 341 838 341 830 343 c 256,232,233
 822 345 822 345 819 351 c 2,234,-1
 808 370 l 1,235,-1
 582 353 l 1,236,237
 580 341 580 341 576 333 c 0,238,239
 572 326 572 326 565 325 c 0,240,241
 558 325 558 325 552 331 c 256,242,243
 546 337 546 337 544 354 c 2,244,-1
 536 391 l 1,149,-1
563 527 m 1,245,-1
 570 465 l 1,246,-1
 624 473 l 1,247,-1
 617 531 l 1,248,-1
 563 527 l 1,245,-1
574 449 m 1,249,-1
 582 379 l 1,250,-1
 631 384 l 1,251,-1
 626 446 l 1,252,253
 617 445 617 445 605 443 c 0,254,255
 594 442 594 442 588 445 c 2,256,-1
 574 449 l 1,249,-1
667 477 m 1,257,-1
 727 487 l 1,258,-1
 730 543 l 1,259,-1
 666 535 l 1,260,-1
 667 477 l 1,257,-1
669 389 m 1,261,-1
 721 395 l 1,262,-1
 726 458 l 1,263,-1
 668 450 l 1,264,-1
 669 389 l 1,261,-1
762 403 m 1,265,266
 784 405 784 405 790 403 c 2,267,-1
 818 398 l 1,268,269
 826 423 826 423 828 428 c 2,270,-1
 841 474 l 1,271,272
 822 471 822 471 807 469 c 256,273,274
 792 467 792 467 788 467 c 2,275,-1
 773 467 l 1,276,-1
 762 403 l 1,265,266
775 497 m 1,277,278
 796 501 796 501 800 500 c 2,279,-1
 843 489 l 1,280,-1
 848 516 l 2,281,282
 852 539 852 539 848 545 c 0,283,284
 843 551 843 551 836 554 c 0,285,286
 828 556 828 556 808 553 c 2,287,-1
 782 551 l 1,288,-1
 775 497 l 1,277,278
378 128 m 1,289,-1
 328 84 l 2,290,291
 310 67 310 67 308 65 c 256,292,293
 306 63 306 63 296 51 c 256,294,295
 286 39 286 39 282 34 c 256,296,297
 278 29 278 29 274 27 c 0,298,299
 268 24 268 24 258 29 c 0,300,301
 249 31 249 31 238 43 c 2,302,-1
 226 53 l 1,303,304
 224 44 224 44 220 32 c 0,305,306
 218 19 218 19 210 -1 c 256,307,308
 202 -21 202 -21 190 -45 c 0,309,310
 178 -68 178 -68 168 -80 c 0,311,312
 158 -93 158 -93 151 -97 c 2,313,-1
 144 -103 l 2,314,315
 137 -109 137 -109 134 -105 c 256,316,317
 131 -101 131 -101 134 -96 c 2,318,-1
 138 -87 l 2,319,320
 143 -77 143 -77 149 -65 c 0,321,322
 154 -52 154 -52 164 -28 c 0,323,324
 172 -3 172 -3 179 21 c 0,325,326
 186 46 186 46 189 73 c 0,327,328
 192 99 192 99 194 130 c 256,329,330
 196 161 196 161 198 181 c 2,331,-1
 199 233 l 2,332,333
 199 241 199 241 196 258 c 0,334,335
 194 275 194 275 192 281 c 2,336,-1
 186 295 l 2,337,338
 184 303 184 303 186 306 c 0,339,340
 189 309 189 309 196 310 c 0,341,342
 200 310 200 310 220 305 c 2,343,-1
 236 299 l 1,344,-1
 293 311 l 2,345,346
 312 315 312 315 334 321 c 0,347,348
 356 328 356 328 365 332 c 256,349,350
 374 336 374 336 378 337 c 0,351,352
 384 337 384 337 395 331 c 256,353,354
 406 325 406 325 419 317 c 256,355,356
 432 309 432 309 436 302 c 0,357,358
 442 295 442 295 442 291 c 0,359,360
 441 289 441 289 434 279 c 0,361,362
 428 270 428 270 424 253 c 0,363,364
 420 237 420 237 420 213 c 2,365,-1
 418 97 l 2,366,367
 417 92 417 92 418 59 c 256,368,369
 419 26 419 26 419 -4 c 0,370,371
 420 -34 420 -34 416 -48 c 0,372,373
 412 -69 412 -69 400 -87 c 0,374,375
 389 -107 389 -107 378 -113 c 0,376,377
 367 -121 367 -121 361 -118 c 0,378,379
 356 -117 356 -117 349 -103 c 256,380,381
 342 -89 342 -89 333 -77 c 256,382,383
 324 -65 324 -65 317 -56 c 0,384,385
 309 -47 309 -47 304 -39 c 2,386,-1
 290 -24 l 2,387,388
 286 -21 286 -21 290 -17 c 0,389,390
 293 -14 293 -14 300 -17 c 2,391,-1
 314 -24 l 2,392,393
 327 -31 327 -31 338 -35 c 0,394,395
 348 -39 348 -39 356 -35 c 0,396,397
 366 -32 366 -32 369 -17 c 0,398,399
 372 -1 372 -1 374 25 c 2,400,-1
 378 123 l 1,401,-1
 378 128 l 1,289,-1
378 143 m 1,402,-1
 377 253 l 2,403,404
 376 270 376 270 376 277 c 0,405,406
 375 283 375 283 370 288 c 0,407,408
 366 293 366 293 349 293 c 0,409,410
 332 291 332 291 309 288 c 2,411,-1
 252 279 l 1,412,413
 252 267 252 267 250 262 c 2,414,-1
 248 249 l 1,415,-1
 246 238 l 1,416,-1
 246 237 l 1,417,418
 261 235 261 235 272 234 c 0,419,420
 282 233 282 233 296 231 c 256,421,422
 310 229 310 229 329 223 c 256,423,424
 348 217 348 217 357 209 c 256,425,426
 366 201 366 201 367 188 c 256,427,428
 368 175 368 175 360 170 c 256,429,430
 352 165 352 165 343 165 c 0,431,432
 334 164 334 164 322 169 c 0,433,434
 311 173 311 173 298 183 c 2,435,-1
 272 203 l 2,436,437
 259 213 259 213 256 217 c 2,438,-1
 246 226 l 1,439,440
 244 206 244 206 243 199 c 0,441,442
 242 193 242 193 241 171 c 256,443,444
 240 149 240 149 237 125 c 256,445,446
 234 101 234 101 234 100 c 2,447,-1
 231 81 l 1,448,449
 239 82 239 82 244 83 c 0,450,451
 248 85 248 85 262 89 c 0,452,453
 275 94 275 94 285 98 c 0,454,455
 294 102 294 102 316 113 c 2,456,-1
 378 143 l 1,402,-1
602 77 m 1,457,458
 599 63 599 63 598 61 c 2,459,-1
 592 50 l 1,460,461
 612 39 612 39 626 31 c 256,462,463
 640 23 640 23 652 9 c 256,464,465
 664 -5 664 -5 660 -21 c 2,466,-1
 656 -41 l 1,467,-1
 723 -36 l 1,468,-1
 738 -2 l 2,469,470
 751 27 751 27 756 43 c 0,471,472
 761 60 761 60 762 70 c 0,473,474
 764 81 764 81 767 84 c 256,475,476
 770 87 770 87 784 82 c 0,477,478
 791 79 791 79 806 69 c 0,479,480
 820 59 820 59 824 51 c 256,481,482
 828 43 828 43 826 39 c 0,483,484
 825 36 825 36 815 30 c 0,485,486
 804 24 804 24 794 12 c 2,487,-1
 749 -35 l 1,488,489
 790 -32 790 -32 810 -30 c 2,490,-1
 858 -25 l 1,491,-1
 899 -21 l 2,492,493
 905 -21 905 -21 912 -21 c 256,494,495
 919 -21 919 -21 942 -31 c 0,496,497
 964 -41 964 -41 969 -51 c 0,498,499
 974 -62 974 -62 970 -67 c 256,500,501
 966 -72 966 -72 958 -72 c 2,502,-1
 946 -72 l 2,503,504
 942 -72 942 -72 896 -71 c 0,505,506
 851 -69 851 -69 814 -69 c 0,507,508
 784 -70 784 -70 731 -73 c 0,509,510
 678 -75 678 -75 656 -77 c 0,511,512
 632 -80 632 -80 591 -86 c 0,513,514
 549 -92 549 -92 524 -97 c 0,515,516
 498 -102 498 -102 494 -103 c 0,517,518
 488 -103 488 -103 484 -103 c 0,519,520
 472 -103 472 -103 458 -93 c 0,521,522
 442 -83 442 -83 436 -78 c 0,523,524
 429 -73 429 -73 430 -68 c 0,525,526
 430 -65 430 -65 432 -63 c 256,527,528
 434 -61 434 -61 440 -61 c 2,529,-1
 474 -59 l 2,530,531
 496 -58 496 -58 515 -56 c 0,532,533
 534 -55 534 -55 562 -51 c 2,534,-1
 624 -45 l 1,535,-1
 586 28 l 2,536,537
 585 29 585 29 580 36 c 0,538,539
 574 43 574 43 574 45 c 2,540,-1
 575 53 l 2,541,542
 575 54 575 54 570 64 c 0,543,544
 565 75 565 75 563 88 c 2,545,-1
 551 152 l 2,546,547
 548 167 548 167 541 177 c 256,548,549
 534 187 534 187 529 192 c 256,550,551
 524 197 524 197 522 201 c 0,552,553
 521 205 521 205 525 209 c 256,554,555
 529 213 529 213 544 210 c 2,556,-1
 562 207 l 1,557,-1
 584 203 l 1,558,-1
 707 221 l 2,559,560
 744 227 744 227 754 228 c 0,561,562
 763 230 763 230 774 234 c 0,563,564
 784 238 784 238 787 239 c 0,565,566
 796 239 796 239 814 229 c 256,567,568
 832 219 832 219 843 212 c 256,569,570
 854 205 854 205 859 197 c 0,571,572
 865 189 865 189 864 181 c 0,573,574
 863 179 863 179 850 169 c 0,575,576
 838 158 838 158 824 137 c 2,577,-1
 812 117 l 1,578,-1
 824 109 l 2,579,580
 834 102 834 102 832 97 c 0,581,582
 828 93 828 93 810 91 c 2,583,-1
 794 91 l 1,584,-1
 712 83 l 1,585,-1
 602 77 l 1,457,458
602 105 m 1,586,-1
 767 123 l 1,587,-1
 776 169 l 2,588,589
 778 179 778 179 776 186 c 0,590,591
 772 193 772 193 755 197 c 0,592,593
 740 201 740 201 688 190 c 2,594,-1
 636 182 l 1,595,-1
 596 172 l 1,596,-1
 598 145 l 1,597,-1
 602 105 l 1,586,-1
578 284 m 2,598,-1
 604 287 l 1,599,-1
 652 292 l 2,600,601
 654 292 654 292 688 297 c 256,602,603
 722 302 722 302 728 303 c 2,604,-1
 748 307 l 2,605,606
 758 309 758 309 762 309 c 0,607,608
 767 309 767 309 785 307 c 0,609,610
 804 303 804 303 814 298 c 0,611,612
 826 293 826 293 825 287 c 0,613,614
 824 283 824 283 819 280 c 0,615,616
 813 277 813 277 803 275 c 2,617,-1
 790 273 l 2,618,619
 786 272 786 272 762 270 c 2,620,-1
 698 261 l 2,621,622
 672 258 672 258 644 255 c 0,623,624
 616 253 616 253 608 253 c 0,625,626
 599 253 599 253 585 256 c 0,627,628
 572 259 572 259 565 265 c 0,629,630
 558 272 558 272 560 277 c 0,631,632
 563 282 563 282 578 284 c 2,598,-1
EndSplineSet
EndChar
StartChar: u20000
Encoding: 131072 131072 104
Width: 1024
Flags: W
LayerCount: 2
Back
Fore
SplineSet
769 661 m 2,0,1
 794 663 794 663 813 656 c 1,2,-1
 855 629 l 1,3,4
 878 609 878 609 872 599 c 0,5,6
 866 590 866 590 845 590 c 2,7,-1
 701 594 l 2,8,9
 627 596 627 596 554 592 c 1,10,-1
 557 588 l 1,11,12
 560 577 560 577 554 561 c 1,13,-1
 551 482 l 1,14,-1
 551 401 l 1,15,-1
 548 358 l 1,16,-1
 544 347 l 1,17,-1
 544 338 l 2,18,19
 541 328 541 328 523 328 c 2,20,-1
 439 326 l 1,21,-1
 328 321 l 1,22,-1
 315 321 l 1,23,24
 320 308 320 308 317 292 c 0,25,26
 311 235 311 235 308 97 c 0,27,28
 308 72 308 72 317 60 c 0,29,30
 327 47 327 47 348 41 c 0,31,32
 404 30 404 30 501 33 c 0,33,34
 600 37 600 37 645 46 c 0,35,36
 691 55 691 55 721 54 c 1,37,38
 757 46 757 46 772 34 c 0,39,40
 785 21 785 21 785 12 c 2,41,-1
 782 -1 l 2,42,43
 778 -8 778 -8 748 -12 c 0,44,45
 677 -22 677 -22 535 -26 c 0,46,47
 392 -31 392 -31 319 -18 c 1,48,49
 279 -4 279 -4 264 23 c 0,50,51
 249 51 249 51 249 76 c 2,52,-1
 255 222 l 2,53,54
 257 303 257 303 247 327 c 0,55,56
 240 349 240 349 246 358 c 0,57,58
 251 365 251 365 260 364 c 2,59,-1
 277 367 l 1,60,-1
 333 369 l 1,61,-1
 398 373 l 1,62,-1
 467 379 l 2,63,64
 484 381 484 381 496 377 c 1,65,-1
 493 386 l 2,66,67
 489 405 489 405 492 429 c 2,68,-1
 492 474 l 1,69,-1
 489 531 l 1,70,-1
 485 576 l 1,71,-1
 482 589 l 1,72,-1
 456 585 l 1,73,-1
 228 561 l 2,74,75
 209 560 209 560 191 567 c 0,76,77
 170 576 170 576 157 592 c 0,78,79
 142 611 142 611 166 611 c 0,80,81
 346 630 346 630 508 640 c 2,82,-1
 769 661 l 2,0,1
EndSplineSet
EndChar
StartChar: u20001
Encoding: 131073 131073 105
Width: 1024
Flags: W
LayerCount: 2
Back
Fore
SplineSet
814 592 m 0,0,1
 826 592 826 592 865 572 c 0,2,3
 898 553 898 553 898 535 c 0,4,5
 898 520 898 520 870 520 c 0,6,7
 846 520 846 520 812 525 c 0,8,9
 776 527 776 527 734 527 c 0,10,11
 634 527 634 527 496 511 c 0,12,13
 463 507 463 507 435 502 c 1,14,15
 420 452 420 452 404 389 c 0,16,17
 394 357 394 357 394 348 c 0,18,19
 394 344 394 344 405 344 c 0,20,21
 426 344 426 344 591 373 c 0,22,23
 678 388 678 388 698 388 c 0,24,25
 708 388 708 388 753 359 c 0,26,27
 789 334 789 334 789 319 c 0,28,29
 789 311 789 311 777 302 c 1,30,31
 759 278 759 278 751 238 c 0,32,33
 705 65 705 65 703 65 c 0,34,35
 686 -18 686 -18 623 -68 c 0,36,37
 566 -109 566 -109 526 -109 c 0,38,39
 508 -109 508 -109 495 -84 c 0,40,41
 471 -32 471 -32 417 40 c 1,42,43
 417 48 417 48 421 48 c 0,44,45
 428 48 428 48 449 35 c 0,46,47
 515 -4 515 -4 526 -4 c 0,48,49
 550 -4 550 -4 575 14 c 0,50,51
 616 46 616 46 647 117 c 0,52,53
 686 209 686 209 686 296 c 0,54,55
 686 319 686 319 677 328 c 0,56,57
 667 336 667 336 642 336 c 0,58,59
 572 336 572 336 499 317 c 0,60,61
 416 300 416 300 384 280 c 0,62,63
 356 264 356 264 342 264 c 0,64,65
 323 264 323 264 313 276 c 0,66,67
 302 293 302 293 302 311 c 0,68,69
 302 320 302 320 315 342 c 0,70,71
 349 396 349 396 374 492 c 1,72,73
 304 480 304 480 257 467 c 0,74,75
 214 451 214 451 205 451 c 0,76,77
 189 451 189 451 156 473 c 0,78,79
 126 491 126 491 126 499 c 0,80,81
 126 513 126 513 149 514 c 0,82,83
 208 514 208 514 306 529 c 0,84,85
 349 535 349 535 385 539 c 1,86,87
 402 623 402 623 402 680 c 0,88,89
 402 692 402 692 398 705 c 0,90,91
 390 723 390 723 390 728 c 0,92,93
 390 736 390 736 409 736 c 0,94,95
 427 736 427 736 463 712 c 0,96,97
 489 697 489 697 489 680 c 0,98,99
 489 668 489 668 479 645 c 0,100,101
 470 623 470 623 448 548 c 1,102,103
 529 558 529 558 566 561 c 0,104,105
 620 566 620 566 716 576 c 1,106,107
 808 592 808 592 814 592 c 0,0,1
EndSplineSet
EndChar
StartChar: u20002
Encoding: 131074 131074 106
Width: 1024
Flags: W
LayerCount: 2
Back
Fore
SplineSet
496 677 m 1,0,-1
 761 704 l 2,1,2
 787 708 787 708 805 699 c 0,3,4
 825 688 825 688 843 672 c 0,5,6
 861 655 861 655 857 646 c 0,7,8
 850 637 850 637 831 637 c 2,9,-1
 687 641 l 2,10,11
 568 643 568 643 445 633 c 0,12,13
 322 621 322 621 217 603 c 0,14,15
 198 601 198 601 177 607 c 0,16,17
 156 616 156 616 141 634 c 256,18,19
 126 652 126 652 150 652 c 2,20,-1
 496 677 l 1,0,-1
217 483 m 0,21,22
 305 488 305 488 356 495 c 2,23,-1
 477 517 l 1,24,25
 497 528 497 528 522 513 c 2,26,-1
 566 481 l 2,27,28
 584 464 584 464 584 452 c 0,29,30
 583 440 583 440 553 428 c 0,31,32
 532 419 532 419 448 361 c 0,33,34
 363 303 363 303 312 231 c 0,35,36
 260 158 260 158 251 121 c 1,37,38
 249 92 249 92 268 71 c 0,39,40
 288 50 288 50 324 37 c 0,41,42
 399 10 399 10 513 4 c 0,43,44
 627 -1 627 -1 699 9 c 0,45,46
 772 20 772 20 802 41 c 1,47,48
 828 76 828 76 828 190 c 0,49,50
 831 207 831 207 838 207 c 0,51,52
 847 206 847 206 848 194 c 0,53,54
 862 110 862 110 883 46 c 0,55,56
 891 18 891 18 888 6 c 0,57,58
 884 -8 884 -8 863 -20 c 0,59,60
 770 -55 770 -55 685 -65 c 0,61,62
 598 -74 598 -74 478 -62 c 0,63,64
 358 -48 358 -48 280 -21 c 1,65,66
 226 10 226 10 205 46 c 0,67,68
 184 84 184 84 193 123 c 0,69,70
 200 169 200 169 243 236 c 0,71,72
 289 305 289 305 352 360 c 2,73,-1
 440 439 l 2,74,75
 453 452 453 452 450 459 c 0,76,77
 446 466 446 466 431 463 c 2,78,-1
 322 437 l 2,79,80
 271 427 271 427 250 430 c 0,81,82
 230 434 230 434 209 449 c 0,83,84
 188 466 188 466 191 475 c 0,85,86
 196 483 196 483 217 483 c 0,21,22
EndSplineSet
EndChar
StartChar: u20003
Encoding: 131075 131075 107
Width: 1024
Flags: W
LayerCount: 2
Back
Fore
SplineSet
328 503 m 0,0,1
 324 556 324 556 318 574 c 0,2,3
 311 594 311 594 302 615 c 1,4,5
 304 625 304 625 314 631 c 0,6,7
 325 636 325 636 340 629 c 0,8,9
 350 625 350 625 362 616 c 1,10,11
 430 616 430 616 493 625 c 2,12,-1
 609 643 l 1,13,14
 635 654 635 654 666 633 c 0,15,16
 698 610 698 610 705 597 c 0,17,18
 713 582 713 582 706 566 c 0,19,20
 685 532 685 532 682 418 c 0,21,22
 678 312 678 312 678 42 c 1,23,24
 735 47 735 47 780 50 c 0,25,26
 806 52 806 52 824 43 c 0,27,28
 845 34 845 34 867 13 c 0,29,30
 889 -9 889 -9 883 -18 c 0,31,32
 876 -28 876 -28 855 -27 c 2,33,-1
 706 -16 l 2,34,35
 583 -8 583 -8 456 -12 c 0,36,37
 328 -18 328 -18 219 -31 c 0,38,39
 200 -33 200 -33 181 -27 c 0,40,41
 161 -19 161 -19 146 -1 c 256,42,43
 131 17 131 17 155 17 c 0,44,45
 248 22 248 22 335 23 c 1,46,47
 331 455 331 455 328 503 c 0,0,1
508 31 m 2,48,49
 571 36 571 36 625 39 c 1,50,51
 627 246 627 246 627 405 c 0,52,53
 626 580 626 580 617 595 c 0,54,55
 612 604 612 604 572 598 c 0,56,57
 530 592 530 592 403 580 c 0,58,59
 395 579 395 579 391 579 c 1,60,61
 392 572 392 572 391 562 c 0,62,63
 388 539 388 539 388 416 c 0,64,65
 386 298 386 298 386 25 c 1,66,-1
 508 31 l 2,48,49
EndSplineSet
EndChar
StartChar: u20004
Encoding: 131076 131076 108
Width: 1024
Flags: W
LayerCount: 2
Back
Fore
SplineSet
460 471 m 0,0,1
 457 518 457 518 451 534 c 2,2,-1
 441 563 l 1,3,4
 432 561 432 561 426 561 c 0,5,6
 290 550 290 550 241 543 c 0,7,8
 226 541 226 541 211 544 c 0,9,10
 195 548 195 548 182 566 c 0,11,12
 169 585 169 585 172 598 c 0,13,14
 176 610 176 610 218 597 c 0,15,16
 264 587 264 587 484 602 c 0,17,18
 707 619 707 619 735 628 c 0,19,20
 750 635 750 635 762 635 c 0,21,22
 774 633 774 633 796 609 c 0,23,24
 820 582 820 582 820 567 c 0,25,26
 822 552 822 552 800 540 c 0,27,28
 777 529 777 529 741 484 c 0,29,30
 705 438 705 438 644 383 c 0,31,32
 631 376 631 376 625 379 c 0,33,34
 621 384 621 384 627 393 c 0,35,36
 646 420 646 420 671 462 c 0,37,38
 698 505 698 505 725 562 c 0,39,40
 737 581 737 581 716 582 c 0,41,42
 706 582 706 582 634 576 c 0,43,44
 582 573 582 573 504 567 c 1,45,46
 508 563 508 563 512 560 c 0,47,48
 531 542 531 542 525 518 c 1,49,-1
 521 387 l 1,50,-1
 514 44 l 1,51,52
 676 54 676 54 776 63 c 0,53,54
 803 65 803 65 824 56 c 0,55,56
 846 45 846 45 870 24 c 0,57,58
 893 1 893 1 887 -9 c 0,59,60
 879 -19 879 -19 857 -18 c 0,61,62
 831 -15 831 -15 708 -8 c 0,63,64
 585 1 585 1 458 -5 c 0,65,66
 330 -11 330 -11 221 -24 c 0,67,68
 201 -27 201 -27 180 -20 c 0,69,70
 157 -11 157 -11 142 8 c 256,71,72
 127 27 127 27 152 27 c 0,73,74
 315 34 315 34 463 41 c 1,75,76
 463 426 463 426 460 471 c 0,0,1
EndSplineSet
EndChar
StartChar: u20005
Encoding: 131077 131077 109
Width: 1024
Flags: W
LayerCount: 2
Back
Fore
SplineSet
515 655 m 0,0,1
 670 662 670 662 764 668 c 0,2,3
 784 670 784 670 800 663 c 0,4,5
 816 655 816 655 834 639 c 0,6,7
 851 623 851 623 847 614 c 0,8,9
 841 607 841 607 825 607 c 0,10,11
 800 610 800 610 688 614 c 0,12,13
 634 617 634 617 580 617 c 1,14,15
 597 602 597 602 594 590 c 0,16,17
 587 575 587 575 581 557 c 0,18,19
 565 469 565 469 550 402 c 1,20,-1
 575 402 l 2,21,22
 655 404 655 404 715 416 c 0,23,24
 742 425 742 425 769 409 c 0,25,26
 796 390 796 390 809 375 c 0,27,28
 821 358 821 358 806 337 c 0,29,30
 789 314 789 314 780 280 c 0,31,32
 754 159 754 159 736 83 c 0,33,34
 716 6 716 6 680 -30 c 0,35,36
 663 -47 663 -47 645 -59 c 0,37,38
 626 -70 626 -70 614 -52 c 0,39,40
 588 -14 588 -14 519 37 c 0,41,42
 509 45 509 45 509 51 c 256,43,44
 509 57 509 57 524 54 c 2,45,-1
 603 34 l 1,46,47
 635 31 635 31 645 44 c 0,48,49
 677 85 677 85 695 157 c 0,50,51
 714 231 714 231 729 309 c 0,52,53
 739 350 739 350 730 360 c 0,54,55
 720 371 720 371 690 371 c 2,56,-1
 540 365 l 1,57,-1
 523 302 l 2,58,59
 493 204 493 204 454 144 c 0,60,61
 414 83 414 83 365 43 c 0,62,63
 315 2 315 2 252 -28 c 0,64,65
 230 -37 230 -37 217 -36 c 0,66,67
 205 -35 205 -35 208 -29 c 0,68,69
 212 -22 212 -22 227 -13 c 0,70,71
 250 3 250 3 302 43 c 0,72,73
 355 85 355 85 406 166 c 0,74,75
 458 249 458 249 485 358 c 1,76,-1
 485 362 l 1,77,-1
 433 356 l 2,78,79
 327 344 327 344 282 329 c 0,80,81
 261 319 261 319 246 337 c 0,82,83
 232 356 232 356 239 374 c 0,84,85
 259 411 259 411 271 459 c 0,86,87
 285 509 285 509 292 548 c 0,88,89
 297 579 297 579 297 601 c 1,90,-1
 239 595 l 2,91,92
 223 595 223 595 208 601 c 0,93,94
 191 608 191 608 181 623 c 0,95,96
 170 638 170 638 189 638 c 0,97,98
 361 649 361 649 515 655 c 0,0,1
519 529 m 0,99,100
 526 584 526 584 519 615 c 1,101,102
 486 615 486 615 455 612 c 2,103,-1
 349 606 l 1,104,-1
 355 598 l 2,105,106
 363 581 363 581 354 568 c 0,107,108
 341 538 341 538 329 489 c 0,109,110
 315 439 315 439 299 391 c 1,111,112
 301 376 301 376 319 379 c 0,113,114
 423 393 423 393 493 397 c 1,115,116
 512 481 512 481 519 529 c 0,99,100
EndSplineSet
EndChar
StartChar: u20006
Encoding: 131078 131078 110
Width: 1024
Flags: W
LayerCount: 2
Back
Fore
SplineSet
635 648 m 0,0,1
 649 648 649 648 688 617 c 0,2,3
 726 589 726 589 726 575 c 0,4,5
 726 574 726 574 721 570 c 0,6,7
 712 567 712 567 703 567 c 0,8,9
 691 567 691 567 539 510 c 1,10,11
 536 431 536 431 535 316 c 1,12,13
 729 330 729 330 776 336 c 1,14,15
 826 338 826 338 858 344 c 0,16,17
 877 344 877 344 908 322 c 0,18,19
 938 298 938 298 938 283 c 0,20,21
 938 260 938 260 910 260 c 0,22,23
 900 260 900 260 869 266 c 0,24,25
 822 275 822 275 719 275 c 0,26,27
 628 275 628 275 535 270 c 1,28,-1
 535 184 l 2,29,30
 535 127 535 127 537 63 c 0,31,32
 539 13 539 13 539 -21 c 0,33,34
 539 -66 539 -66 519 -106 c 0,35,36
 503 -132 503 -132 491 -132 c 0,37,38
 481 -132 481 -132 465 -95 c 0,39,40
 452 -55 452 -55 451 -32 c 0,41,42
 451 -19 451 -19 461 15 c 0,43,44
 464 33 464 33 469 74 c 0,45,46
 476 142 476 142 479 266 c 1,47,-1
 447 264 l 2,48,49
 301 252 301 252 233 235 c 0,50,51
 192 224 192 224 170 224 c 256,52,53
 148 224 148 224 116 245 c 0,54,55
 86 264 86 264 86 275 c 0,56,57
 86 285 86 285 107 287 c 0,58,59
 254 295 254 295 480 312 c 1,60,61
 482 391 482 391 482 489 c 1,62,63
 334 439 334 439 235 428 c 0,64,65
 225 428 225 428 221 432 c 0,66,67
 218 437 218 437 218 439 c 0,68,69
 218 452 218 452 296 467 c 1,70,71
 376 490 376 490 449 523 c 0,72,73
 467 531 467 531 482 540 c 1,74,-1
 482 549 l 2,75,76
 482 643 482 643 477 675 c 0,77,78
 474 703 474 703 464 720 c 0,79,80
 455 731 455 731 455 743 c 256,81,82
 455 755 455 755 478 755 c 0,83,84
 500 755 500 755 524 746 c 0,85,86
 562 730 562 730 562 711 c 0,87,88
 562 699 562 699 556 683 c 0,89,90
 548 660 548 660 544 603 c 0,91,92
 543 592 543 592 542 578 c 1,93,-1
 578 606 l 1,94,95
 622 648 622 648 635 648 c 0,0,1
EndSplineSet
EndChar
